<svg width="1928" height="24" viewBox="0 0 1928 24" fill="none" xmlns="http://www.w3.org/2000/svg">
<path d="M1928 0.305202C1924.8 0.249711 1921.61 0.166474 1918.47 0C1923.14 0.277457 1927.18 1.30405 1917.36 1.47052C1898.55 0.582659 1885.74 1.47052 1872.01 0.360694L1858.83 1.74798C1793.41 1.47052 1534.98 3.44046 1469.24 3.66243L1471.8 3.44046C1371.65 4.1341 1166.1 4.02312 1062.59 5.93757C1046.59 4.57804 1024.51 4.91098 1007.82 4.52254C1017.11 5.07746 1013.92 6.04856 1006.68 5.99306C955.786 5.82659 1003.25 6.93642 951.798 7.51908C892.532 8.79538 665.767 7.3526 613.183 6.18728C584.923 8.18497 549.665 6.68671 521.986 7.93526L524.786 7.46358C495.047 8.21272 326.783 6.35376 292.211 7.07514L296.859 7.3526C266.724 8.60116 270.844 6.40925 247.101 5.71561C250.217 7.96301 224.414 9.23931 214.563 9.40578L214.932 8.90636C200.089 9.2948 166.442 11.237 141.932 11.5422L142.883 10.3214C122.362 11.6532 83.9076 11.0983 69.2231 11.237C50.3921 10.9595 25.8563 10.1549 0 9.79422V24H1928V0.305202Z" fill="#F0A489"/>
</svg>
