<svg width="1928" height="23" viewBox="0 0 1928 23" fill="none" xmlns="http://www.w3.org/2000/svg">
<path d="M0 18.9C84.0397 19.798 165.966 20.9865 251.195 20.7488C253.255 21.2242 250.798 21.2241 248.21 21.4354C275.361 20.9336 299.5 21.1185 324.221 20.5903C331.088 21.1185 332.963 21.8316 334.997 22.307C330.929 21.3298 471.515 21.2506 473.733 21.4883L475.45 19.3754C502.178 19.349 483.241 21.7788 507.936 21.277C517.602 18.2925 548.978 21.5939 557.535 20.0093C557.35 20.247 569.447 20.3262 568.681 21.277C572.378 19.6659 581.12 20.9072 588.753 20.4847C591.526 20.0357 586.719 20.0093 584.659 19.5074L602.143 18.9264C608.984 19.4546 610.674 20.4054 603.226 20.5903C648.917 21.1713 868.287 22.7296 917.49 21.9108C911.152 20.6959 895.965 21.5147 890.208 19.5867C903.228 18.5038 909.356 19.9564 915.113 18.8208C920.105 21.6731 943.716 19.5074 953.568 22.4126L957.292 20.8016L963.762 21.8052C1020.99 20.1149 976.836 20.9865 1027.57 21.3562C1056.49 21.1185 1070.46 18.9264 1086.47 19.6659C1083.72 19.5074 1078.99 18.6359 1085.91 18.2661C1087.21 19.6923 1106.17 17.2361 1109.87 18.6887C1117.32 18.5038 1141.46 18.6887 1133.29 16.7343C1137.39 17.7115 1158.94 18.1077 1146.1 18.9528C1153.37 19.0056 1160.42 19.2962 1165.65 18.8736L1156.32 18.3189C1180.86 18.0284 1194.22 19.5339 1210.2 17.7907L1201.14 17.0248C1215.8 16.8928 1228.08 16.7607 1233.84 18.6887L1218.79 19.2697C1243.11 19.2169 1257.8 19.0849 1278.05 18.0548L1270.82 18.002C1296.65 16.074 1431.79 14.4894 1455.59 12.086L1444.63 10.5806L1465.1 9.31282C1462.67 9.2864 1455.22 14.1724 1453.18 13.6706C1497.05 13.5386 1725.19 12.3765 1765.7 13.3801C1782.05 14.1988 1768.64 15.7571 1768.45 15.9948C1788.34 15.4402 1777.03 14.4101 1793.94 14.5422C1798.56 14.8063 1792.99 15.7043 1790.37 15.9156C1797.79 15.7307 1804.66 16.2589 1805.22 15.5458C1795.95 14.9912 1799.88 13.1424 1795.95 11.9539L1817.71 12.1124L1816.73 13.2745C1821.59 13.3009 1829.04 10.0787 1850.4 10.7126C1875.44 11.0559 1901.99 10.9767 1928 10.9767V0.650024H0V18.9Z" fill="#F0A489"/>
</svg>
