<svg width="2485" height="273" viewBox="0 0 2485 273" fill="none" xmlns="http://www.w3.org/2000/svg">
<path d="M2462.85 0C2468.7 0.48 2473.79 2.22 2461.45 2.51C2437.85 0.99 2421.75 2.51 2404.5 0.64L2387.94 2.99C2305.78 2.53 1981.23 5.88 1898.69 6.25L1901.92 5.87C1776.16 7.05 1518.01 6.86 1388.03 10.11C1367.93 7.79 1340.2 8.34 1319.23 7.69C1330.89 8.66 1326.9 10.3 1317.79 10.2C1253.89 9.93 1313.48 11.8 1248.85 12.79C1174.44 14.94 889.66 7.49 823.6 5.52C788.12 8.93 743.83 6.35 709.06 8.51L712.56 7.7C675.25 9 463.91 2.83 420.52 4.05L426.35 4.54C388.51 6.66 393.67 2.92 363.85 1.76C367.77 5.59 335.35 7.77 322.98 8.06L323.45 7.22C304.8 7.87 262.56 11.19 231.77 11.71L232.97 9.61C207.29 11.86 159 10.93 140.54 11.15C104.02 10.4 50.36 7.57 0 8.61V267.63C4.4 267.41 8.85 267.37 13.07 267.72C31.26 267.92 14.23 271.11 35.46 271.34C147.42 272.96 255.91 268.38 369.08 267.91C371.65 268.78 368.59 268.75 365.32 269.14C399.42 268.24 429.72 268.56 460.76 267.63C469.38 268.57 471.74 269.86 474.29 270.72C469.17 268.98 645.73 268.82 648.53 269.28L650.69 265.5C684.26 265.44 660.46 269.82 691.5 268.89C703.64 263.55 743.05 269.44 753.78 266.6C753.54 267.02 768.73 267.19 767.77 268.86C772.42 265.96 783.4 268.19 792.99 267.45C796.46 266.64 790.44 266.58 787.84 265.71L809.79 264.69C818.38 265.62 820.49 267.33 811.16 267.65C868.54 268.69 1144.02 271.47 1205.83 270.02C1197.88 267.83 1178.8 269.31 1171.55 265.86C1187.89 263.93 1195.61 266.53 1202.81 264.51C1209.08 269.63 1238.72 265.74 1251.1 270.93L1255.79 268.03L1263.91 269.81C1335.78 266.79 1280.33 268.34 1344.04 269.02C1380.14 268.58 1397.69 264.72 1417.67 265.95C1414.2 265.59 1408.92 264.14 1417.33 263.48C1418.96 266.03 1442.76 261.65 1447.41 264.23C1456.77 263.91 1487.08 264.24 1476.82 260.75C1481.97 262.49 1509.01 263.2 1492.91 264.71C1502.03 264.81 1510.87 265.33 1517.44 264.56L1505.73 263.59C1536.54 263.08 1553.33 265.78 1573.4 262.63L1562.02 261.24C1580.44 261.02 1595.85 260.76 1603.08 264.21L1584.17 265.27C1614.72 265.18 1633.14 264.95 1658.61 263.12L1649.52 263.03C1681.96 259.59 1851.66 269.74 1881.55 265.43L1867.78 262.75L1893.49 260.5C1890.72 260.47 1882.71 267.69 1879.38 268.32C1936.46 268.05 2220.37 266.01 2270.99 267.8C2291.51 269.28 2274.68 272.05 2274.45 272.47C2299.43 271.47 2285.23 269.63 2306.46 269.86C2312.26 270.34 2305.26 271.96 2302 272.34C2311.31 272.02 2319.94 272.95 2320.65 271.7C2309.01 270.73 2313.94 267.41 2309.01 265.25L2336.33 265.54L2335.12 267.64C2341.21 267.7 2350.57 261.91 2377.4 263.03C2411.79 263.72 2448.43 263.46 2484.02 263.51V0.61C2477.07 0.62 2469.85 0.51 2462.85 0Z"/>
</svg>
