<svg width="636" height="642" viewBox="0 0 636 642" fill="none" xmlns="http://www.w3.org/2000/svg">
<g clip-path="url(#clip0)">
<path d="M88.3 114.3C78.9 126.4 75.1 134.4 74.4 136.4C74.4 136.4 74.4 136.4 74.3 136.5C73.4 137.3 71 139.6 70 140.5L69.9 141.6C64.7 148.1 63.5 147.3 60.8 150.5C60.9 150.6 61.1 150.5 61.3 150.5L61.4 150C61.8 149.8 61.9 150.1 61.7 150.6C62 150.7 62 151.1 60.7 153L60.8 152.5C59.1 155.6 55.8 160.5 54.3 162.7L53.2 162.1C53 162.9 52.5 164 51.8 165.5C51.1 166.9 50.1 168.6 49 170.4C47.9 172.2 46.5 174.2 45.1 176.4C43.8 178.6 42.3 180.8 40.9 183.1C39.5 185.4 37.9 187.6 36.6 189.9C35.3 192.2 34 194.4 32.8 196.4C31.6 198.4 30.6 200.3 29.7 201.9C28.9 203.5 28.3 204.9 27.9 205.9C26.8 207.7 25.8 209.8 25 212C24.6 213.1 24.1 214.2 23.7 215.4C23.3 216.5 23 217.8 22.6 219C21.9 221.4 21.2 223.9 20.5 226.4C20.1 227.6 19.7 228.9 19.3 230.1C18.9 231.4 18.5 232.6 18.1 233.9C13.3 250.1 14.1 241.6 11.2 249.7C8.2 260 13 247.9 12.2 252.1L10 258.2C9.3 260.2 8.7 262.3 8.1 264.3C9.2 256.9 7.8 260.8 7.1 262C6.6 264.7 5.9 267.8 5.1 271C4.9 271.8 4.7 272.6 4.6 273.4C4.5 274.2 4.3 275 4.2 275.8C3.9 277.4 3.6 279 3.4 280.5C2.9 283.6 2.5 286.4 2.4 288.7C2.4 291 2.5 292.8 3.1 293.7C2.5 297.4 2.1 300.2 1.7 302.4C1.3 304.6 1.1 306.2 0.9 307.6C0.4 310.3 0.1 311.9 0 315.1C0.5 312.9 1 308.6 1.5 308.6C0.3 314.6 1.7 311.5 2 309C2.1 310.2 2.1 311.8 2 313.7C1.9 315.6 1.7 317.9 1.6 320.4C1.5 322.9 1.3 325.5 1.2 328.3C1.1 329.6 1 331 1 332.4C0.9 333.8 0.9 335.2 0.9 336.6C0.9 339.4 0.9 342.1 0.9 344.6C0.9 345.9 0.9 347.1 0.9 348.2C1 349.4 1.1 350.4 1.1 351.5C1.5 355.5 1.9 358.3 2.7 358.7L2.2 358.8C4.4 360.7 5.9 357 7.8 363.2L7.6 367.5L9.5 373.7C9.6 378 8.7 376.1 8.5 376.1C8.8 377.4 9.2 378.7 9.5 380.1C9.9 381.5 10.2 382.9 10.5 384.4C11.2 387.3 11.7 390.5 12.5 393.7C13.2 396.9 14 400.1 14.7 403.4C15.1 405 15.4 406.6 15.9 408.2C16.4 409.8 16.8 411.3 17.3 412.8C17.5 410.4 17.6 408 17.9 405.6L18.8 398.5C19 399.8 19.2 401.3 19.4 402.8C19.6 404.3 19.8 406 20.2 407.6C20.8 410.9 21.5 414.2 22.3 417.4C23 420.5 23.8 423.3 24.6 425.4C25.4 427.5 26.1 428.9 26.7 429.3C26.9 431.5 27.1 433.7 27.3 435.9C28.6 441.1 29.8 444.6 30.7 446.9C31.2 448.1 31.6 449 32.1 449.7C32.6 450.4 33 450.9 33.4 451.3C35 452.9 36.1 453 37.5 457L39 462.2C39.5 464 40.1 465.6 40.7 467.4C39.9 465.8 38.9 464.3 38.2 462.7L35.8 457.9C36.8 460.4 37.6 462.6 38.3 464.5C39.1 466.4 39.8 468.1 40.5 469.7C41.1 471.3 41.8 472.9 42.4 474.6C43.1 476.3 43.7 478.1 44.6 480.1L44.7 480.2C44.5 479.7 44.3 479.3 44.4 479.2L45.2 480.5C46.8 481.1 50.2 485.5 54.3 491.9C57.3 496.4 60.2 500.2 63.5 504.7C65.2 506.9 67.1 509.3 69 512C70 513.4 71 514.9 72 516.5C73.1 518 74.3 519.7 75.5 521.5L79.8 523.4C81.1 525.1 82.3 526.9 83.6 528.6L87.6 533.7L86.4 534.8C84.2 532.5 81.5 529.8 78.7 526.5C77.3 524.9 75.8 523.2 74.3 521.5C73.5 520.6 72.8 519.8 72 518.9C71.6 518.5 71.2 518 70.8 517.6C70.4 517.1 70.1 516.7 69.7 516.2C66.7 512.4 63.6 508.6 60.7 504.9C57.9 501 55.3 497.3 52.9 494L52.1 494.2C54.9 498.2 58 502.4 60.9 506.1C63.9 509.8 66.7 513.1 68.6 515.7C69 516.4 69.6 517.3 70.1 518.3C70.6 519.3 71.2 520.3 71.5 521.1C72 522.4 72 523.2 70.9 522.6L74.8 525.3C80 531.5 84.4 535.8 87.9 539.5C91.4 543.3 94.4 546 97.4 549C98.9 550.5 100.4 552 101.9 553.6C103.5 555.2 105.3 556.8 107.2 558.6C109.1 560.4 111.3 562.4 113.7 564.7C116.1 567 119 569.3 122.2 572.1L120.4 569.7C123.2 571.6 126 573.5 128.2 575.1C130.5 576.7 132.1 578.1 132.5 579.1C134.6 580.6 136.7 582.1 138.7 583.6L140.3 584.7L141.9 585.8C143 586.5 144 587.2 145.1 587.9C149.3 590.7 153.4 593.6 157.5 596.1C159.5 597.4 161.5 598.7 163.4 599.9C164.3 600.5 165.3 601.1 166.2 601.7C167.1 602.3 168 602.8 168.9 603.4C172.5 605.6 175.7 607.7 178.5 609.7C179.6 609.6 180.8 609.4 181.9 609.2C185.8 611 190.7 616.2 193.7 614.7C195.2 615.2 196.7 615.6 198.2 616L202.7 617.2C205.4 618.3 207.8 618.9 210.1 619.7C212.5 620.4 215 621.2 218 622.7C218.4 622.9 218.8 623.1 219.1 623.3C219.1 623.2 219.1 623.2 219.1 623.1C222.2 624.3 223.8 624.8 224.7 625C225.6 625.1 225.7 624.9 225.8 624.8C226.1 624.5 226.6 624.3 233.9 626.8C236.1 628.1 237.6 627.9 239.4 627.6C241.2 627.3 243.3 626.9 246.9 627.9L253.7 632.1C260.2 634.1 264.2 634.4 269 634.7C271.4 634.8 274 634.8 277.1 634.9C278.7 635 280.4 635.1 282.4 635.2C283.4 635.3 284.4 635.4 285.5 635.5C286.6 635.6 287.7 635.6 289 635.7C298.3 637.3 302.8 640 296.4 641.6C300.8 640.7 301.8 640.3 303.1 640.1C304.4 639.9 306.1 639.9 311.9 639.4C313.7 640.5 312.4 640.6 309.9 641.5C312.5 641.9 314.1 642 315.3 642C316.5 642 317.2 641.8 317.8 641.6C319.1 641.2 320 640.7 323.8 640.6C326 638.6 328.4 635.5 330.9 635.3L327.9 634.8C328.9 634.7 329.9 634.5 330.9 634.4C331.9 634.2 332.9 634 334 633.9C336.1 633.6 338.2 633.3 340.3 633.1C342.5 632.9 344.7 632.8 346.9 632.6C349.1 632.4 351.4 632.3 353.8 632.2L353.6 633.2L358.5 632.4L360.9 632C361.7 631.8 362.5 631.7 363.3 631.5L364.1 632.6L371.1 631.2L374.6 630.5L376.3 630.2L378 629.8L376 629.9C377.6 629.5 381.1 628.6 384.9 627.7C386.8 627.3 388.8 626.8 390.7 626.4C392.6 626 394.4 625.6 396 625.3V626C398.2 625.7 400.3 625.3 402.4 624.9C404.5 624.5 406.6 624 408.5 623.3C412.5 622.1 416.4 620.6 420.3 619.1C424.2 617.5 428.1 615.6 432.3 613.8C433.3 613.3 434.4 612.9 435.5 612.4C436.6 611.9 437.6 611.4 438.7 610.8C440.9 609.8 443.1 608.7 445.5 607.6L443.6 610C447.1 609.2 447.3 608.5 447.7 607.7C448 606.9 448.5 606 452.4 604.4L453.5 605.8C456.3 603.1 458.5 602.2 460.6 601.7C461.7 601.5 462.7 601.3 463.8 601.2C464.9 601 466 600.8 467.2 600.3L464.1 599.5L472.7 595.2C475.1 594.1 476.7 593.5 477.9 593.2C479 592.9 479.5 593 479.8 593.3C480.3 593.9 479.5 595.4 479.1 596.3C480.9 594.5 482.6 592.7 484.4 591L486.7 591.9C488.3 589.5 489.5 588.9 491.2 588.1C492.9 587.4 495 586.3 498.5 583.1C499.6 583.3 497.9 585 500.7 583.4L506.2 577.9L511.4 572.1L508.1 575.4C507 576.5 505.9 577.6 504.8 578.7L504 575.7C507.2 571.9 509.7 570 512.2 568.4C514.6 566.8 517 565.6 519.3 563.1C518.3 564.3 517.3 565.6 516.2 566.8C517.3 565.9 518.1 565 519 564.3C519.8 563.6 520.5 562.9 521.2 562.4C522.5 561.3 523.6 560.5 524.6 559.9C526.6 558.6 528.2 557.8 530.8 556C529 556.9 526.2 558.2 529.3 555C531.6 552.6 531.3 554.5 533.8 552.6C533.4 551.6 534.5 549.6 536.4 547.3C537.3 546.1 538.5 544.9 539.8 543.7C541.1 542.5 542.4 541.2 543.8 540C543.9 540.3 544 540.6 543.8 541C544.8 539.4 545.1 538.4 547.7 536.4L548 539.3L550.8 533.4C552.5 532.1 553.9 530 555.1 528.5C556.3 526.9 557.1 525.9 557.5 526.6L556.3 528.7C563.3 521 570 512.9 576.2 504.5L577.9 505.1C577.8 503.1 580.5 499.8 582.7 496.7C583.9 495.2 584.8 493.7 585.4 492.6C585.9 491.5 586 490.7 585.2 490.5C586.3 489.5 587.6 487.7 588.9 485.6C589.5 484.6 590.2 483.5 590.8 482.4C591.1 481.9 591.4 481.3 591.7 480.8C592 480.3 592.3 479.7 592.5 479.2C594.7 475.1 596.5 472.1 597.1 474.5C598.4 472.2 599.6 470.1 600.6 468C601.6 465.9 602.5 463.8 603.4 461.8C604.3 459.8 605.1 457.8 605.9 455.9C606.3 454.9 606.7 454 607.1 453C607.5 452 607.8 451 608.2 450C608.9 448 609.7 446 610.5 443.9C610.9 442.9 611.3 441.8 611.7 440.7C612.1 439.6 612.6 438.5 613 437.4C613.8 435.1 614.8 432.7 615.8 430.1C616.3 428.8 616.9 427.5 617.4 426.2C617.7 425.5 618 424.8 618.3 424.1C618.6 423.4 618.9 422.7 619.1 421.9C621.8 418.1 625 410.3 627.5 401.3C628.1 399.1 628.8 396.8 629.4 394.4C629.9 392.1 630.4 389.7 630.9 387.4C631.4 385.1 631.9 382.8 632.4 380.6C632.8 378.4 633.2 376.3 633.6 374.3C635.9 358.6 636.3 345.5 636.5 332.4C636.4 329.1 636.4 325.9 636.3 322.5C636.3 320.8 636.3 319.2 636.2 317.5C636.1 315.8 636 314.1 635.9 312.4C635.7 308.9 635.5 305.4 635.2 301.7C634.8 298 634.4 294.2 634 290.2C634.4 287.7 634.4 285.2 634.3 282.5C634.2 279.8 634 277 633.7 274.1C633.6 272.7 633.3 271.2 633.1 269.8C632.8 268.3 632.6 266.9 632.3 265.4C631.7 262.4 631.1 259.4 630.4 256.5C629.6 253.5 628.8 250.6 628 247.6C627.6 246.1 627.2 244.7 626.8 243.2C626.4 241.7 625.9 240.3 625.6 238.9C623.9 233.2 622.7 227.6 621.5 222.5L618.3 217.6C618.1 215.9 617.7 214 617.2 212.2C616.7 210.3 616 208.4 615.3 206.4C613.9 202.4 612.3 198.1 610.3 193.9C609.3 191.7 608.3 189.6 607.4 187.3C606.9 186.2 606.4 185.1 605.9 183.9C605.4 182.8 604.8 181.7 604.3 180.6C603.3 178.4 602.2 176.1 601.3 173.8C600.4 171.5 599.4 169.2 598.5 167C595.6 163.2 594.2 161.1 593.6 160.2C594 161 594.4 162.3 593.7 163.2C593.2 161.9 592.4 160.4 591.6 158.8C591.2 158 590.8 157.2 590.3 156.4C589.8 155.6 589.4 154.8 589 154.1C587.3 151.2 586.2 148.8 587.2 148.6L588.1 149.7C589.2 149.5 586.7 146.1 583.8 141.9C580.7 137.9 577 133.1 575.9 130.1L576.1 134.1L573.2 129.7L570.1 125.4L572.1 127.4C570.1 125.3 568.2 123.3 566.4 121.3C564.6 119.3 562.9 117.4 561.2 115.6C557.7 112 554.6 108.5 551.6 105.2C548.5 102 545.6 98.9 542.8 95.8C542.1 95 541.4 94.3 540.7 93.5C540 92.8 539.3 92 538.5 91.3C537.1 89.8 535.7 88.4 534.2 87C532.8 85.6 531.4 84.1 530 82.7C528.6 81.3 527 79.9 525.5 78.6C524 77.2 522.4 75.9 520.9 74.5C520.1 73.8 519.3 73.1 518.5 72.4C517.7 71.7 516.9 71 516 70.4C512.6 67.8 509 65.1 505.1 62.4C504.1 61.7 503.1 61.1 502.1 60.5C501.1 59.9 500 59.2 498.9 58.6C496.7 57.3 494.5 56 492.2 54.7C495.2 55.3 493.3 54.4 490.8 53C488.2 51.7 485 50 485.4 48.8C483.5 46.7 481.5 45 479.4 43.6C477.3 42.2 475 41.3 472.8 40.4C470.6 39.5 468.3 38.8 466.1 38.1C465 37.8 463.9 37.4 462.9 37C461.8 36.7 460.8 36.3 459.7 35.9C459.6 36 459.5 36.1 458.9 36L452.1 32.5C451 31.9 449.8 31.3 448.7 30.8L445.2 29.2C450.1 29.6 447.3 29.1 444.3 28.6C441.4 28.1 438.4 27.7 442.8 28.1C425 18.9 402.8 11.5 379.3 6.89996C376.4 6.19996 373.4 5.79996 370.4 5.29996C367.4 4.79996 364.4 4.29996 361.5 3.89996L352.5 2.89996C349.5 2.59996 346.5 2.09996 343.5 1.99996C340.5 1.79996 337.5 1.59996 334.5 1.39996C333 1.29996 331.5 1.09996 330 1.09996C328.5 1.09996 327 0.999962 325.5 0.999962C322.5 0.899962 319.6 0.799962 316.6 0.699962C313.7 0.599962 310.7 0.699962 307.8 0.699962L309.9 1.49996C307 1.49996 303.8 1.59996 300.7 1.79996C297.5 2.09996 294.4 2.29996 291.2 2.59996C285 2.99996 279.2 3.79996 274.6 3.59996C270.1 3.39996 265.3 4.79996 261.3 6.19996C259.3 6.89996 257.5 7.59996 255.9 8.19996C254.4 8.79996 253.2 9.29996 252.3 9.49996C247.7 11.2 243.1 11.9 240.1 12C237.8 12.2 236.5 12 237.1 11.7C234.9 12.4 232.8 13.2 230.6 14.1C228.2 15.1 225.7 16.1 223.2 17.3C220.7 18.4 218 19.6 215.1 20.6C213.7 21.1 212.1 21.6 210.5 22.2C208.9 22.7 207.3 23.3 205.5 23.8C204.1 23.6 201.2 24.5 197.5 26C193.9 27.6 189.7 29.8 185.5 31.9C184.5 32.4 183.4 32.9 182.5 33.5C181.5 34.1 180.6 34.6 179.6 35.1C177.8 36.1 176 37.1 174.5 37.8C171.5 39.3 169.4 40.1 169 39.5V39.8C164.7 41.6 160.6 43.6 156.7 45.9L155.2 46.7C154.7 47 154.2 47.3 153.8 47.6L151 49.5C149.1 50.8 147.9 52.8 146.1 54.1C145.2 54.7 144.2 55.4 143.3 56C142.4 56.7 141.5 57.4 140.5 58.1C138.6 59.5 136.8 60.9 134.8 62.2C133.8 62.9 134.3 65 133.3 65.6C132.3 66.3 131.3 66.9 130.3 67.6C128.3 69 126.3 70.4 124.2 71.7C124.2 71.7 124.4 71.3 124.8 70.7C115.9 81.3 95.1 103.7 87.9 114.9C87.9 114.4 88.1 114.4 88.3 114.3Z" fill="#202020"/>
</g>
<defs>
<clipPath id="clip0">
<rect width="636" height="641.9" fill="white"/>
</clipPath>
</defs>
</svg>
