<svg width="636" height="632" viewBox="0 0 636 632" fill="none" xmlns="http://www.w3.org/2000/svg">
<path d="M622.35 398.598C622.581 397.789 622.581 397.442 622.35 398.598V398.598Z" fill="#555555"/>
<path d="M94.972 546.107C94.7406 545.876 94.7406 545.876 94.5093 545.645C94.0466 545.529 93.5839 545.298 93.2368 545.182L94.972 546.107Z" fill="#555555"/>
<path d="M30.8864 462.295C30.7707 462.064 30.7707 461.948 30.655 461.717C30.655 461.833 30.4237 461.717 30.8864 462.295Z" fill="#555555"/>
<path d="M317.769 630.844C318.694 630.844 319.157 630.844 319.504 630.728C319.041 630.728 318.463 630.844 317.769 630.844Z" fill="#555555"/>
<path d="M615.988 209.01C615.988 209.01 616.103 209.241 616.219 209.472C616.103 209.125 615.988 208.779 615.872 208.432L615.988 209.01Z" fill="#555555"/>
<path d="M617.26 210.859C618.07 213.056 616.682 210.397 616.219 209.472C617.029 211.9 618.07 214.327 619.227 216.639C619.574 216.524 617.492 211.9 617.26 210.859Z" fill="#555555"/>
<path d="M307.473 613.388C307.936 613.388 308.514 613.272 309.093 613.272C308.167 613.272 307.705 613.388 307.473 613.388Z" fill="#555555"/>
<path d="M410.658 14.3347L411.352 13.988C410.774 13.988 410.543 14.2191 410.658 14.3347Z" fill="#555555"/>
<path d="M93.237 545.182L92.543 544.836C92.7743 544.951 93.0057 545.067 93.237 545.182Z" fill="#555555"/>
<path d="M1.9668 369.004C2.08248 368.888 2.19815 368.657 2.31383 368.426C2.31383 368.31 2.31383 368.195 2.31383 368.195L1.9668 369.004Z" fill="#555555"/>
<path d="M255.071 8.90135C255.071 8.78574 254.955 8.78577 254.724 8.78577L252.989 9.59497C254.03 9.24814 254.608 9.01696 255.071 8.90135Z" fill="#555555"/>
<path d="M7.40328 236.408C7.40328 236.292 7.40328 235.945 7.2876 235.945C6.59353 238.257 5.43675 244.5 4.74268 252.13L5.43675 252.708C5.78378 247.39 6.36217 241.956 7.40328 236.408Z" fill="#555555"/>
<path d="M229.737 24.5078L229.39 24.6234C229.506 25.0859 229.969 24.6234 229.737 24.5078Z" fill="#555555"/>
<path d="M36.7856 170.398C36.9013 170.167 37.017 169.936 37.1326 169.589C36.5542 170.514 35.9759 171.323 35.3975 172.248L36.7856 170.398Z" fill="#555555"/>
<path d="M143.094 50.5184C137.194 54.6801 136.963 55.0269 137.889 54.5645C140.086 53.0617 141.937 51.6744 143.094 50.5184Z" fill="#555555"/>
<path d="M317.074 0.578047C317.768 0.924855 318.462 1.27166 319.156 1.73407C317.421 2.19648 315.686 2.77453 313.951 3.35254C310.018 4.50857 306.316 4.50858 302.267 4.73979C297.64 4.97099 293.013 5.78017 288.501 6.9362C285.494 6.9362 282.37 7.05181 279.594 7.16742C274.389 7.28302 269.993 7.62983 267.332 7.74543C274.273 6.70501 275.198 6.70498 274.042 6.70498C272.885 6.70498 269.53 7.05184 268.142 7.05184L267.216 7.51421C258.772 8.78584 258.656 8.09222 254.376 8.67024C254.376 8.78584 254.492 8.78588 254.723 8.78588L255.186 8.55466C255.649 8.55466 255.417 8.78586 254.955 8.90146C255.07 9.01706 254.723 9.24828 252.525 9.71069L252.988 9.47947C249.518 10.4043 243.502 11.7915 240.957 12.3695L240.726 11.676C239.338 12.4852 235.868 13.1787 231.703 14.4504C227.539 15.722 222.449 17.6873 217.359 19.7681C212.269 21.849 207.179 24.0454 202.899 25.7794C198.503 27.5135 194.917 28.5539 192.951 29.3632C184.738 31.5596 174.905 35.6057 164.841 39.9986C160.908 41.8483 158.479 43.2355 156.975 44.0447C155.471 44.8539 154.661 45.2007 154.083 45.3163C153.042 45.6631 152.811 45.3163 148.993 47.5128C139.855 53.4085 151.191 46.9348 147.721 49.478C144.019 51.6745 140.317 53.9865 136.731 56.2986C142.631 51.6745 139.16 53.8709 137.888 54.4489C135.69 56.0674 133.03 57.917 130.369 59.8823C129.096 60.8071 127.708 61.7319 126.436 62.7723C125.742 63.2347 125.163 63.6971 124.469 64.1595C123.775 64.6219 123.081 65.2 122.503 65.6624C117.297 69.7085 113.711 73.7546 113.017 75.4886C107.58 80.8063 104.92 83.4652 102.953 85.3149C100.987 87.1645 99.8298 88.2049 97.7476 90.4014C99.3671 89.1297 102.375 86.1241 102.606 86.3553C98.2103 90.2858 100.871 88.5517 102.606 86.8177C101.218 88.5517 98.4417 91.4418 94.9713 94.6787C91.3853 97.9156 87.1052 101.846 83.0565 105.43C79.0077 109.129 75.0746 112.944 72.2984 116.065C69.5221 119.186 67.7869 121.498 67.7869 122.076L67.5555 121.961C67.0928 124.389 70.1005 122.423 66.7458 127.625L63.7382 130.516L60.0364 135.718C57.0288 138.723 58.0699 136.989 57.9542 136.874C54.8309 141.035 50.6665 145.891 46.8491 151.44C44.8826 154.214 43.0317 157.22 41.4122 160.341C39.7927 163.462 38.4046 166.584 37.2478 169.589C39.7927 165.659 42.6847 161.844 45.808 158.376C44.3042 160.688 42.6847 163.462 41.1809 166.468C39.677 169.474 38.2889 172.71 37.0164 175.716C34.5872 181.727 32.9677 186.698 32.9677 187.854C31.9266 189.704 30.8855 191.554 29.8444 193.403C28.6876 195.715 27.6465 197.565 26.7211 199.068C25.7956 200.686 25.1016 201.958 24.5232 202.998C23.3664 205.195 22.6723 206.466 22.3253 207.507C21.6312 209.472 21.8626 210.281 19.4333 213.865C17.3511 216.871 15.2689 219.876 13.3024 223.113C14.9219 219.645 16.657 216.408 18.3922 213.287C15.5003 217.796 13.418 221.264 11.7985 224.616C10.9888 226.235 10.1791 227.969 9.48498 229.818C8.79091 231.668 8.09684 233.633 7.40277 235.83L7.40277 235.945C7.63413 235.367 7.7498 234.905 7.7498 234.905L7.40277 236.523C7.63413 238.026 6.94006 243.806 6.24599 251.436C5.66759 256.869 5.55192 261.609 5.0892 267.042C4.97352 268.43 4.85785 269.817 4.62649 271.204C4.39513 272.707 4.16378 274.325 3.93242 275.944C3.46971 279.412 3.12267 283.342 2.89131 287.735C3.23835 289.238 3.70106 290.625 4.16378 292.128C4.0481 296.521 4.0481 300.798 4.0481 304.96L3.12267 304.96C3.00699 301.839 2.77564 298.024 2.65996 293.747C2.54428 289.469 2.31292 284.614 2.65996 279.643C2.65996 278.371 2.77563 277.1 2.89131 275.828L3.23835 272.129C3.46971 269.817 3.70106 267.505 3.81674 265.308C4.16378 260.8 4.39513 256.291 4.85785 252.13L4.51081 251.783C4.0481 256.638 3.81674 261.725 3.46971 266.349C3.35403 268.661 3.12267 270.742 2.89131 272.707C2.77563 273.747 2.65996 274.788 2.54428 275.712C2.4286 276.753 2.4286 277.562 2.31292 278.487C1.85021 281.377 1.04046 288.198 0.462067 285.539C0.693424 287.157 0.924781 288.66 1.15614 290.163C1.3875 298.371 1.85021 304.266 1.96589 309.237C2.08157 314.093 2.08157 317.907 1.85021 321.838C1.61885 325.768 1.15614 329.815 0.693426 335.132C0.462069 337.791 0.230713 340.797 0.115034 344.265C-0.000643807 347.733 -0.000643631 351.663 0.46207 356.403C0.46207 355.363 0.46207 354.207 0.577749 353.166C0.693427 354.091 0.809105 355.016 0.924784 355.825C1.04046 356.634 1.15614 357.444 1.27182 358.253C1.50318 359.871 1.73453 361.258 1.96589 362.646C2.31293 365.305 2.54428 367.501 2.31293 368.426C3.70107 378.483 5.43624 388.888 7.63413 398.251C9.71635 407.153 11.3358 415.592 12.724 422.181L14.6905 424.724C15.8473 428.886 16.6571 435.822 18.9706 437.325C20.3588 440.215 21.7469 442.99 23.135 445.648C25.5643 451.082 27.6465 454.087 30.1914 460.33C30.3071 460.677 30.5385 461.139 30.6541 461.486L30.6541 461.37C33.5461 467.382 33.7775 467.266 34.1245 467.266C34.4715 467.382 34.8186 467.613 38.2889 474.434C38.5203 475.012 38.7516 475.474 38.983 476.052C39.2143 476.514 39.5614 476.977 39.7927 477.324C40.3711 478.017 40.9495 478.595 41.6436 479.289C43.0317 480.56 44.5356 482.063 46.8491 485.185C48.0059 487.497 49.2784 489.809 50.4352 492.121C54.4839 497.554 57.1445 500.213 60.2678 503.45C61.0776 504.259 61.7716 505.068 62.6971 505.993C63.1598 506.455 63.5068 506.918 63.9695 507.38C64.2009 507.611 64.4322 507.843 64.6636 508.19C64.895 508.421 65.1263 508.768 65.3577 509.114C67.3242 511.542 69.7535 514.432 72.7611 518.247C78.198 525.877 80.2802 530.154 75.306 526.224C78.6607 529.114 79.4704 529.692 80.5115 530.616C81.5527 531.541 82.5938 532.813 86.8739 536.743C87.6836 538.477 86.7582 537.668 84.5603 536.165C87.7993 540.211 89.0718 541.252 90.1129 541.945C91.154 542.639 91.9637 543.102 94.5086 545.645C96.8222 546.338 99.8298 546.916 101.565 548.65L99.7142 546.338C105.845 551.425 112.207 557.436 119.148 564.026L118.57 564.257C119.958 565.297 121.23 566.338 122.618 567.378C124.007 568.419 125.51 569.459 126.899 570.384L127.014 571.309C131.179 574.083 135.459 576.395 139.739 578.592L138.119 577.436C139.623 578.129 142.747 579.748 146.217 581.597C149.687 583.331 153.273 585.297 155.818 586.915L155.471 587.146C158.826 589.343 162.412 591.655 165.998 593.736C169.584 595.816 173.17 597.666 176.987 599.631C184.622 603.331 192.835 606.914 202.899 610.382L200.007 610.151C203.246 611.77 203.825 611.654 204.634 611.538C205.329 611.423 206.254 611.307 210.303 612.81L210.418 613.85C217.937 614.775 219.557 616.856 224.3 618.59L222.333 616.74L231.356 619.284C241.189 622.289 236.909 622.521 235.405 622.752L242.346 623.561L243.387 625.064C248.708 625.179 248.245 626.682 257.5 628.301C258.194 628.879 255.764 628.532 258.888 629.572C264.093 630.266 269.414 630.728 274.736 630.96C271.497 630.728 268.373 630.497 265.134 630.035L266.638 628.648C271.612 628.994 274.851 629.457 277.859 629.919C280.867 630.382 283.527 630.844 286.998 630.728C285.378 630.844 283.759 630.96 282.139 630.96C287.923 631.191 290.931 631.191 293.244 631.422C295.558 631.653 297.293 631.884 300.416 632C298.45 631.769 295.442 631.306 299.954 630.96C303.192 630.844 301.689 631.538 304.812 631.653C305.159 631.075 307.241 630.613 310.133 630.266C313.025 629.919 316.611 629.919 320.197 630.15C320.082 630.266 319.966 630.497 319.503 630.613C321.354 630.382 322.279 630.15 325.403 630.382L323.552 631.653L329.683 630.382C333.847 630.613 339.747 629.457 339.284 630.382L336.971 630.728C342.176 630.613 347.497 630.266 352.703 629.804C358.024 629.341 363.23 628.648 368.435 627.723L369.014 628.648C370.402 627.723 374.682 627.029 378.383 626.335C382.085 625.642 385.209 624.948 384.514 624.255C387.522 624.023 393.075 622.521 397.47 621.249C401.866 620.093 405.105 619.284 403.717 620.555C413.55 618.012 421.069 615.353 429.051 612.232C431.017 611.423 433.099 610.613 435.182 609.689C437.264 608.764 439.346 607.955 441.544 606.914C445.94 605.065 450.798 603.215 456.698 600.903C461.094 599.862 469.075 596.741 477.52 592.001C485.27 587.609 493.946 582.638 500.887 578.245C504.242 576.048 507.365 573.736 510.373 571.424C511.067 570.846 511.876 570.268 512.57 569.69C513.265 569.112 514.074 568.418 514.768 567.84C515.462 567.262 516.156 566.569 516.851 565.991C517.545 565.413 518.239 564.719 518.817 564.141C524.023 559.055 528.303 554.084 532.467 549.344C534.549 546.916 536.632 544.604 538.598 542.292C539.639 541.136 540.68 540.096 541.721 538.94C542.878 537.784 544.035 536.628 545.192 535.356C549.819 530.501 554.909 525.414 560.346 519.287C562.196 517.669 564.047 515.819 566.014 513.854C566.939 512.814 567.865 511.773 568.79 510.617C569.6 509.577 570.525 508.536 571.451 507.38C574.805 503.219 578.507 498.71 582.209 493.97C585.911 489.115 589.728 484.029 593.083 478.595C594.702 475.936 596.322 473.162 597.71 470.503C599.098 467.844 600.37 465.301 601.527 462.873C601.99 460.908 602.453 459.058 602.8 457.093C604.419 453.972 605.807 450.388 607.195 446.573C607.889 444.724 608.584 442.758 609.393 440.793C610.203 438.828 611.013 436.747 611.823 434.551C615.409 425.187 617.606 415.129 620.498 406.228C621.193 401.719 621.655 399.407 621.887 398.367C621.655 399.176 621.193 400.332 620.498 400.563C620.961 399.292 621.308 397.673 621.771 396.055C622.234 394.552 622.696 392.934 623.275 391.546C624.316 388.656 625.357 386.46 625.82 387.038L625.473 388.309C625.82 388.887 627.092 385.188 628.827 380.564C629.753 378.136 630.678 375.478 631.488 373.166C632.413 370.738 633.223 368.426 633.917 366.923C633.223 367.963 632.413 369.004 631.719 370.044C632.992 366.576 634.033 362.877 634.727 359.062C634.611 360.102 634.496 361.143 634.38 362.183C634.611 360.565 634.843 359.062 634.958 357.559C635.074 356.75 635.074 356.056 635.19 355.363C635.19 354.669 635.305 353.975 635.305 353.282C635.421 350.507 635.537 347.849 635.537 345.305C635.537 340.219 635.537 335.479 635.421 331.086C635.305 326.693 635.305 322.532 635.305 318.485C635.305 316.405 635.305 314.324 635.305 312.359C635.305 310.162 635.19 308.081 635.074 306C634.495 297.677 633.223 289.7 631.835 281.493C631.141 277.331 630.447 273.285 629.868 268.892C629.29 264.499 628.712 259.644 627.902 254.442C628.827 257.216 628.48 255.135 628.018 252.245C627.555 249.355 626.976 245.656 627.67 245.309C627.786 242.534 627.555 239.76 626.976 237.101C626.514 234.442 625.704 231.899 624.778 229.587C622.928 224.847 620.614 220.686 618.648 216.755C618.532 216.755 618.416 216.755 618.185 216.293C616.218 211.553 614.02 206.929 612.054 202.305C614.714 206.004 613.326 203.692 611.707 201.38C610.203 199.068 608.584 196.64 611.013 199.993C610.087 197.796 609.278 195.6 608.352 193.172C607.427 190.744 606.501 188.317 605.46 185.889C603.378 180.918 601.18 175.947 598.635 170.861C596.09 165.774 593.43 160.688 590.422 155.486C587.299 150.284 583.828 145.313 580.242 140.457C576.656 135.602 572.955 130.978 569.253 126.354L566.592 122.886C565.782 121.73 564.857 120.689 564.047 119.533C562.312 117.221 560.693 114.909 558.957 112.481C555.487 107.626 552.017 102.771 548.084 97.9155C546.117 95.4879 544.035 93.1758 541.953 90.8637C539.871 88.6673 537.788 86.7021 535.706 84.6212L536.863 86.3553C532.698 82.1936 527.84 77.8007 523.097 73.7546C518.354 69.7085 513.843 65.8936 510.488 62.8879C507.365 59.9979 503.547 57.2234 500.077 55.0269C496.607 52.7149 493.599 50.9808 492.095 49.9404C488.047 47.2815 484.229 44.2759 481.916 42.4262C480.065 40.9234 479.139 39.9986 479.833 40.3454C477.751 39.0738 475.553 38.0333 473.24 36.9929C470.695 35.8369 468.15 34.912 465.374 33.8716C459.937 31.9064 454.153 30.0567 447.675 27.3979C446.634 26.5887 443.857 25.5483 440.387 24.161C439.462 23.8142 438.536 23.4674 437.611 23.1206C436.57 22.7738 435.529 22.3113 434.372 21.9645C432.174 21.1553 429.86 20.4617 427.547 19.7681C418.408 17.2249 409.964 15.4908 409.964 14.566L409.732 14.6816C405.337 13.1788 401.056 12.0227 396.776 10.8667C392.496 9.71068 388.1 8.67027 383.705 7.62985C379.309 6.58943 374.682 5.54896 370.055 4.62414C367.741 4.16173 365.312 3.6993 362.883 3.23689C361.61 3.00569 360.453 2.77451 359.181 2.5433C358.602 2.4277 357.908 2.31211 357.33 2.19651C356.752 2.08091 356.173 1.96532 355.595 1.84972C355.595 1.84972 355.942 1.73407 356.636 1.73407C344.721 1.61847 330.724 -1.2716 317.074 0.578047Z" fill="#555555"/>
<path d="M218.401 31.0972C218.748 30.9816 219.211 30.7503 219.558 30.6347C219.095 30.7503 218.748 30.9816 218.401 31.0972Z" fill="#555555"/>
<path d="M480.297 40.114C480.528 40.2296 480.76 40.3452 480.991 40.5764C480.644 40.3452 480.413 40.2296 480.297 40.114Z" fill="#555555"/>
<path d="M0.462802 285.539C0.347124 285.076 0.347124 284.498 0.231445 284.036C0.231445 284.729 0.347124 285.192 0.462802 285.539Z" fill="#555555"/>
<path d="M268.142 6.82056L269.184 6.24255C267.101 6.70496 267.217 6.82056 268.142 6.82056Z" fill="#555555"/>
</svg>
