<svg width="630" height="632" viewBox="0 0 630 632" fill="none" xmlns="http://www.w3.org/2000/svg">
<path d="M514.193 558.691C512.714 559.374 511.349 560.171 509.87 560.854C510.211 561.196 511.349 560.74 514.193 558.691Z" fill="#555555"/>
<path d="M404.87 6.9436C405.325 7.05744 405.894 7.17127 406.235 7.2851C405.211 6.9436 404.984 6.9436 404.87 6.9436Z" fill="#555555"/>
<path d="M330.926 602.404C331.04 602.404 331.04 602.404 331.154 602.404C331.495 602.29 331.95 602.176 332.291 602.062L330.926 602.404Z" fill="#555555"/>
<path d="M566.75 510.313L566.181 510.085C566.295 510.313 566.409 510.313 566.75 510.313Z" fill="#555555"/>
<path d="M629.886 268.076C629.659 257.945 628.407 246.107 626.36 232.674L627.384 233.926C627.27 233.471 627.156 232.902 627.042 232.447C626.929 231.991 626.815 231.536 626.701 230.967C626.473 229.828 626.132 228.804 625.905 227.666C625.563 226.641 625.336 225.617 624.995 224.592C624.653 223.568 624.312 222.543 623.971 221.632C622.606 217.762 621.127 214.347 619.648 211.16C616.804 204.785 614.074 199.435 611.912 194.654C607.589 185.092 604.177 174.961 597.806 164.602C598.261 163.35 597.92 161.073 596.668 158.114C596.327 157.431 595.986 156.634 595.645 155.837C595.417 155.496 595.19 155.04 595.076 154.699C594.848 154.357 594.621 153.902 594.393 153.56C593.483 152.081 592.459 150.487 591.436 148.893C587.226 142.632 581.993 136.713 580.287 133.298L580.97 133.64C577.329 130.111 574.144 126.354 571.186 122.484L568.797 119.297C567.887 118.158 567.091 117.02 566.181 115.996C564.475 113.833 562.654 111.784 560.834 109.735C557.194 105.751 553.667 102.108 550.141 98.9207C548.434 97.327 546.728 95.7333 544.908 94.3673C543.201 92.8875 541.609 91.6353 539.675 90.1555C540.016 90.2694 540.471 90.2694 541.154 90.497C541.836 90.7247 542.633 91.18 543.657 92.2045C543.315 91.863 542.86 91.5215 542.405 91.18C541.723 90.6109 541.154 90.0417 540.471 89.3587C539.106 88.1065 537.855 86.8544 536.49 85.6022C533.873 83.0979 531.143 80.4797 528.754 78.0892C523.976 73.3083 520.222 69.5518 520.563 68.4135C518.857 66.9336 517.151 65.5676 515.33 64.0878C513.624 62.7218 511.918 61.4696 510.097 60.1037C506.912 57.5993 503.499 54.7535 499.973 51.7939C492.806 45.8745 484.615 39.1584 474.718 34.3774C469.94 31.9869 465.276 30.3933 460.953 29.0273C456.631 27.6613 452.649 26.523 449.122 25.6123C445.596 24.5878 442.297 23.791 439.567 22.8803C436.95 22.1973 434.447 21.2867 432.172 20.4898L433.651 20.6037C428.304 19.1238 424.892 17.1887 421.365 15.0258C419.545 14.0013 417.611 12.863 415.336 11.6109C412.947 10.4725 410.103 9.22037 406.349 8.19587C405.666 7.62671 404.642 7.05754 404.87 7.05754C403.846 6.94371 402.822 6.71605 401.798 6.60221C400.775 6.48838 399.751 6.26071 398.613 6.14688C396.452 5.80538 394.177 5.46388 391.901 5.23622C387.237 4.66705 382.459 4.21172 377.795 3.75639C373.131 3.30106 368.808 2.95956 364.94 2.61806C363.006 2.3904 361.186 2.27656 359.594 2.0489C357.66 1.82123 355.953 1.82123 354.588 1.82123L353.792 0.11374C344.236 -0.341591 335.363 0.455239 327.058 0.91057L336.614 0.796737C335.022 2.95956 330.016 2.61806 323.532 1.93507C320.233 1.59357 316.706 1.13824 312.725 0.796737C308.743 0.455239 304.307 0.11374 299.415 0.569071C294.865 0.227573 290.2 0.455239 285.309 1.3659C282.92 1.82123 280.417 2.50423 278.028 3.30106C275.867 4.09789 273.705 4.89472 271.544 5.69155C262.898 8.87887 254.139 12.0662 245.038 13.0907C240.943 15.0258 242.649 13.8875 243.9 12.6354C245.038 11.497 245.72 10.3587 239.464 12.7492C238.44 10.7002 245.152 9.90337 241.398 8.9927C239.805 9.44803 238.212 10.0172 236.847 10.3587C235.482 10.7002 234.117 11.0417 232.752 11.3832C230.022 11.9524 227.291 12.4077 224.561 12.863C218.987 13.8875 212.958 15.0258 205.336 18.4408L204.085 17.0748C201.696 18.327 199.193 19.5792 196.804 20.7175C194.529 21.8558 192.254 22.8803 189.978 23.9048C185.428 25.9538 181.105 27.7751 176.896 29.5964C172.687 31.4178 168.819 33.2391 165.293 35.1743C163.472 36.1988 161.88 37.1094 160.287 38.2477C159.491 38.8169 158.581 39.4999 157.784 40.0691C156.988 40.7521 156.306 41.4351 155.623 42.0042C150.959 45.6469 148.115 47.9235 145.726 49.4034C143.337 50.8832 141.631 51.68 139.81 52.4769C138.104 53.2737 136.398 54.1843 134.236 55.8918C133.212 56.6887 131.961 57.827 130.71 59.0792C130.027 59.7622 129.345 60.4452 128.662 61.242C127.866 62.0388 127.069 62.9495 126.159 63.8601C123.429 64.9985 120.699 66.1368 117.855 67.389C113.987 70.2348 113.077 71.9423 111.939 73.5359C110.916 75.2434 109.664 76.8371 105.228 80.0244C105 79.2276 102.156 81.2766 99.9946 82.9841C97.8332 84.6915 96.1268 85.9437 97.9469 83.2117C96.6956 84.2362 95.4442 85.1469 94.3066 86.2852L92.6002 87.8789L91.0076 89.2449C88.8462 91.2939 86.6847 93.3428 84.6371 95.6195C80.3142 100.059 75.9914 104.954 71.5547 110.418C69.3933 113.15 67.1181 115.996 64.9567 119.069C62.5677 122.256 60.5201 125.558 58.4724 128.859C54.3771 135.461 50.7367 142.177 46.4139 148.324C46.3001 150.032 45.6176 152.194 44.8213 154.243C44.3662 155.268 43.7974 156.52 43.2286 157.658C42.6598 158.911 41.9773 160.049 41.2947 161.301C38.792 166.196 36.2893 170.863 35.948 173.709C35.1517 173.823 31.2839 180.994 28.6674 186.344C27.3023 188.962 26.2785 191.125 25.8234 191.353C25.3684 191.694 25.4821 190.101 26.8473 185.434C27.3023 183.84 28.5537 181.336 28.8949 181.677L28.4399 178.945C25.5959 182.815 23.4345 186.913 21.7281 191.239C20.0217 195.565 18.7703 199.89 17.7465 204.102C15.8126 212.64 14.7888 220.836 12.3998 229.259C14.22 224.478 15.9264 217.534 15.8126 222.429L13.6512 230.284L11.376 237.911L10.9209 234.268C8.53199 241.781 5.91552 249.749 3.75409 258.173C4.5504 257.148 5.46048 256.124 6.2568 255.099C4.32289 261.132 2.50273 265.344 1.36514 269.898C0.796341 272.174 0.341304 274.679 0.113785 277.524C2.51747e-05 280.37 0.113785 283.444 0.568823 287.086C1.25138 290.388 1.82018 287.314 2.38897 285.151C2.95777 282.988 3.29905 281.736 3.41281 288.452C3.07153 292.664 2.84401 297.331 2.61649 302.112C2.50273 304.503 2.38897 306.893 2.27521 309.398C2.16146 311.902 1.93394 314.406 1.82018 317.024C1.13762 327.725 0.910101 339.222 1.82018 350.15C3.52657 347.873 3.98161 353.792 5.34672 359.598L3.75409 360.509C5.23296 366.086 5.91552 369.388 6.14304 371.55C6.37056 373.713 6.14304 374.851 5.80176 375.99C5.57424 377.128 5.23296 378.267 5.46048 380.429C5.688 382.592 6.37056 385.779 8.19071 391.016C9.3283 392.04 10.3521 393.179 11.4897 394.203C15.5851 403.196 15.4713 405.928 15.5851 409.001C15.5851 410.481 15.6988 412.075 16.4951 414.579C17.2915 417.084 18.7703 420.385 21.7281 425.393C20.1355 421.181 20.7042 419.929 21.9556 420.954C23.207 422.092 25.2546 425.507 26.8473 430.743C26.0509 430.06 25.1409 429.377 24.3446 428.694C25.5959 431.54 26.6197 433.362 27.4161 434.955C28.2124 436.435 28.7812 437.687 29.35 439.509C27.3023 436.777 26.3922 438.712 29.9188 446.452L25.8234 441.899C28.7812 446.452 31.7389 451.12 34.9242 455.9C35.8343 459.088 37.1994 462.617 39.0195 466.145C40.7259 469.674 43.0011 473.545 44.5937 476.39C48.1203 482.424 51.3055 488.001 51.6468 490.847C51.6468 490.847 52.4431 492.327 53.8083 494.718C55.1734 497.108 57.221 500.295 59.4962 503.596C60.6338 505.304 61.8852 506.898 63.2503 508.605C63.8191 509.402 64.6154 510.199 65.298 510.996C65.9805 511.792 66.6631 512.589 67.3456 513.272C69.7346 515.663 71.896 517.484 73.4886 518.395C71.896 517.712 73.1474 519.761 74.5125 521.81C75.9913 524.086 77.6977 526.477 75.4226 525.566C78.7216 527.501 84.5233 531.599 89.5287 535.811C90.7801 536.836 92.0314 537.974 93.0553 538.998C94.1929 540.137 95.4442 541.275 96.4681 542.413C98.6295 544.69 100.45 546.967 101.587 548.674L100.336 547.764C105.341 553.569 110.688 558.805 116.262 563.586C117.627 564.725 119.106 565.863 120.585 567.001C121.268 567.571 122.064 568.14 122.746 568.595C123.315 569.05 123.998 569.506 124.567 569.961C126.956 571.669 129.345 573.49 131.847 575.311C136.739 579.068 141.858 583.052 147.66 587.15C150.504 589.199 153.575 591.248 156.761 593.297C160.06 595.346 163.472 597.281 166.885 599.102C166.658 597.964 170.07 599.216 173.256 600.127C176.327 601.037 179.057 601.607 177.806 599.785C184.859 601.72 191.116 603.883 196.349 606.274C197.486 606.843 199.307 607.64 200.785 608.323C202.378 609.006 203.857 609.575 205.336 610.258C208.294 611.396 211.138 612.421 213.754 613.331C219.101 615.039 223.765 616.291 227.633 616.746C231.614 617.202 234.913 617.088 237.757 615.836C243.104 617.088 246.289 618.909 248.792 620.503C251.295 622.096 253.115 623.576 256.3 624.942L253.229 624.145C256.073 625.17 258.803 626.194 261.419 626.991C264.036 627.788 266.538 628.585 269.041 629.154C270.293 629.496 271.43 629.723 272.681 629.951C273.819 630.179 275.07 630.292 276.208 630.52C278.483 630.862 280.303 630.975 282.237 631.089C289.859 631.658 296.343 631.658 305.33 631.658C309.767 631.203 312.27 630.065 315.569 629.154C316.365 628.926 317.275 628.699 318.299 628.471C319.323 628.243 320.574 628.13 321.939 627.902C324.67 627.56 327.969 627.333 332.064 626.991C326.831 629.04 333.657 628.13 339.8 627.105C337.866 627.56 336.614 627.902 336.842 628.13C337.069 628.357 338.889 628.471 342.871 628.357C343.895 627.788 345.601 627.219 347.08 626.65C347.194 626.764 347.535 626.764 347.308 626.991C352.086 625.967 354.019 625.398 354.247 625.17C354.475 624.942 352.882 625.056 350.607 625.284C350.834 625.056 350.379 624.828 348.9 624.601C351.517 624.601 354.475 624.373 357.546 624.032C360.618 623.69 363.575 623.349 366.533 623.121C372.335 622.666 377.34 622.438 378.136 623.576C385.758 622.779 393.267 621.527 400.433 619.364C407.486 617.088 413.516 614.242 419.09 611.282C424.664 608.323 429.783 605.363 434.902 602.745C440.249 600.127 445.596 597.395 451.284 594.663C454.355 594.663 449.464 598.192 442.979 601.493C448.44 598.988 453.787 596.37 459.247 593.638C459.588 594.549 457.313 595.915 454.355 597.281C451.398 598.761 447.757 600.241 445.255 601.493C455.72 598.647 465.618 593.069 475.401 586.581C485.639 579.864 494.74 571.669 505.092 565.294L508.164 561.082L509.415 560.399C508.846 559.83 512.486 555.846 515.33 553.569C517.151 553.228 517.719 554.024 518.971 554.024C520.222 554.024 522.156 553.228 527.275 549.471C529.55 548.333 532.053 546.511 534.783 544.349C536.148 543.21 537.514 541.958 538.879 540.592C539.561 539.909 540.244 539.226 540.926 538.429C541.609 537.746 542.291 536.949 542.86 536.266C547.752 530.689 552.416 524.542 556.398 519.305C551.506 524.314 552.416 522.037 554.009 519.419C558.104 514.752 561.631 513.045 564.133 508.833L565.726 509.516C565.612 509.174 565.84 508.605 566.295 507.808C566.636 507.125 567.091 506.328 567.66 505.418C568.229 504.507 568.684 503.71 569.366 502.686C571.755 498.929 574.827 494.831 575.168 493.693C576.874 492.896 575.623 494.945 574.03 497.449C572.438 499.954 570.39 502.8 570.39 503.824C577.898 494.262 579.832 491.872 581.652 489.481C582.562 488.229 583.586 486.977 585.179 484.7C586.771 482.424 589.274 479.236 592.687 473.431C594.166 470.13 594.621 468.422 594.621 467.853C594.621 467.284 594.166 467.625 593.483 468.194C592.232 469.333 590.525 471.154 591.322 467.853C596.668 456.811 598.375 445.314 604.404 433.817C603.267 434.841 602.243 435.866 601.105 436.89C601.446 435.638 601.901 434.386 602.243 433.134C602.698 431.882 603.039 430.743 603.494 429.605C604.29 427.215 604.973 424.938 605.656 422.775C606.907 418.449 608.044 414.465 609.182 410.709C611.343 403.196 613.505 396.707 616.349 389.991C618.055 380.088 619.42 371.095 620.103 363.127C620.444 359.143 620.558 355.386 620.558 351.971C620.672 348.442 620.786 345.255 621.013 342.181C621.127 339.791 621.354 337.628 621.468 335.465C624.198 327.156 625.563 318.277 625.45 309.511C626.587 306.096 627.725 300.405 628.635 291.981C628.976 288.68 629.204 285.037 629.431 280.939C629.886 277.638 630 273.199 629.886 268.076Z" fill="#555555"/>
<path d="M8.30455 391.243C7.73575 390.674 7.16695 390.219 6.71191 389.65L8.30455 391.243Z" fill="#555555"/>
<path d="M543.771 92.2046C543.998 92.3184 544.112 92.5461 544.339 92.6599C544.112 92.5461 543.884 92.4323 543.771 92.2046Z" fill="#555555"/>
</svg>
