<svg width="313" height="37" viewBox="0 0 313 37" fill="none" xmlns="http://www.w3.org/2000/svg">
<path d="M297.343 17.1054C297.193 16.9616 297.313 16.4439 297.223 16.1564L297.073 16.2714C297.043 16.1564 296.953 15.955 296.953 15.84C296.923 15.725 296.863 15.7825 296.803 15.8113C296.683 15.8688 296.593 15.955 296.473 15.7825C296.293 15.3224 296.203 14.8335 296.173 14.3159C296.233 14.057 296.293 13.827 296.353 13.5969C296.443 13.3669 296.533 13.1368 296.623 12.9067C296.713 12.9067 296.803 12.878 296.863 12.8205C296.923 12.7054 297.013 12.5616 297.073 12.4466C297.253 12.4179 297.433 12.4754 297.553 12.4466C297.913 12.5329 298.332 12.3603 298.662 12.3603C299.442 9.80091 301.451 7.93166 303.79 7.29899C303.91 7.24148 304.03 7.1552 304.12 7.09769C304.36 7.04017 304.6 6.98266 304.84 6.9539L305.2 6.89638C305.32 6.89638 305.44 6.89638 305.59 6.89638C306.699 6.86763 307.839 7.12644 308.798 7.64408C309.788 8.16172 310.627 8.90942 311.287 9.80091C311.407 9.97345 311.527 10.1748 311.677 10.4336C311.737 10.5774 311.797 10.6924 311.887 10.8362C311.917 10.8937 311.947 10.98 311.977 11.0375L312.067 11.2675C312.127 11.4113 312.187 11.5551 312.247 11.6989C312.277 11.8427 312.337 11.9865 312.367 12.1303C312.457 12.4179 312.487 12.6479 312.547 12.8492C312.337 11.2388 311.557 9.65712 310.358 8.50681C309.158 7.32775 307.449 6.66632 305.769 6.60881C305.859 6.60881 305.949 6.58005 306.039 6.58005C307.839 6.60881 309.608 7.44278 310.867 8.73687C310.957 8.85191 311.077 8.96694 311.167 9.08197C311.257 9.197 311.347 9.31203 311.467 9.45582C311.287 9.197 311.077 8.96694 310.867 8.73687C310.328 8.16172 309.758 7.58657 308.978 7.12645C308.738 7.01141 308.438 6.89638 308.168 6.81011C307.869 6.7526 307.599 6.66632 307.329 6.60881C307.119 6.58005 306.879 6.55129 306.669 6.55129C306.459 6.55129 306.249 6.58005 306.039 6.58005C305.769 6.55129 305.5 6.58005 305.23 6.60881C305.14 6.60881 305.08 6.60881 304.99 6.60881C305.02 6.58005 305.08 6.55129 305.17 6.49378C305.26 6.46502 305.35 6.43626 305.5 6.4075C305.619 6.37875 305.769 6.34999 305.949 6.32123C306.129 6.32123 306.309 6.29247 306.489 6.29247C307.269 6.29247 308.318 6.43626 309.278 6.89638C310.238 7.32775 311.107 8.01793 311.677 8.67936C311.947 9.02445 312.217 9.34079 312.367 9.5996C312.457 9.74339 312.517 9.85842 312.577 9.97345C312.637 10.0885 312.667 10.1748 312.697 10.2323C312.877 10.6924 312.907 11.1525 312.937 11.6126C312.937 11.8427 312.937 12.0728 312.937 12.3316C312.937 12.5616 312.937 12.8205 312.937 13.0505C312.937 13.3956 313.057 13.6544 312.967 13.9133C312.907 13.942 312.847 14.057 312.817 14.2008C312.787 14.3734 312.817 14.5172 312.787 14.6897C312.787 14.8623 312.757 15.006 312.757 15.1786C312.757 15.4949 312.667 15.7825 312.517 16.0126C312.457 16.1851 312.547 16.559 312.637 16.9041C312.727 17.2779 312.757 17.5942 312.667 17.5942C312.307 17.5942 312.277 17.5942 312.277 17.7093C312.277 17.7668 312.277 17.8243 312.277 17.9393C312.337 18.0544 312.307 18.2269 312.187 18.4282C312.157 18.4857 312.067 18.5432 311.947 18.6295C311.827 18.7158 311.707 18.7733 311.647 18.8883C311.587 19.0609 311.497 19.1759 311.407 19.2909C311.317 19.406 311.227 19.4635 311.137 19.5498C311.047 19.636 310.927 19.6935 310.807 19.8086C310.687 19.8661 310.568 19.9811 310.388 20.0962C310.148 20.2687 309.938 20.4125 309.758 20.5563C309.608 20.7001 309.458 20.8151 309.308 20.9301C309.158 21.0452 309.008 21.1314 308.828 21.2177C308.648 21.304 308.408 21.3615 308.138 21.3902C308.079 21.3902 307.629 21.534 307.179 21.5916C306.969 21.6203 306.759 21.6491 306.579 21.6778C306.429 21.6778 306.309 21.6778 306.309 21.6778C306.159 21.7066 306.009 21.7353 305.859 21.7641C305.709 21.7929 305.56 21.7929 305.44 21.7929C305.17 21.8216 304.9 21.7929 304.66 21.7641C304.42 21.7641 304.18 21.7353 303.94 21.7353C303.82 21.7353 303.7 21.7641 303.58 21.7641C303.46 21.7641 303.31 21.7929 303.19 21.8216C302.651 21.534 302.021 21.304 301.391 21.0164C300.761 20.7288 300.132 20.355 299.712 19.8949C299.502 19.6648 299.352 19.4635 299.172 19.2909C299.022 19.1184 298.842 18.9458 298.692 18.8021C298.392 18.4857 298.033 18.2269 297.703 17.738C297.523 17.508 297.493 17.2491 297.343 17.1054Z"/>
<path d="M292.995 8.593C292.965 8.76555 292.995 8.90933 292.965 9.08188C292.965 9.25443 292.935 9.39821 292.935 9.57076C292.935 9.8871 292.846 10.1747 292.696 10.4047C292.636 10.5773 292.726 10.9511 292.816 11.2962C292.906 11.6701 292.935 11.9864 292.846 11.9864C292.486 11.9864 292.456 11.9864 292.456 12.1014C292.456 12.159 292.456 12.2165 292.456 12.3315C292.426 12.4465 292.396 12.5903 292.306 12.7916C292.276 12.8491 292.186 12.9067 292.066 12.9929C291.946 13.0792 291.826 13.1367 291.766 13.2517C291.706 13.4243 291.616 13.5393 291.526 13.6543C291.436 13.7694 291.346 13.8269 291.256 13.9132C291.166 13.9994 291.046 14.057 290.926 14.172C290.806 14.2583 290.656 14.3445 290.506 14.4883C290.267 14.6609 290.057 14.8047 289.877 14.9484C289.727 15.0922 289.577 15.2073 289.427 15.3223C289.277 15.4373 289.127 15.5236 288.947 15.6099C288.767 15.6961 288.527 15.7537 288.257 15.7824C288.197 15.7824 287.748 15.9262 287.298 15.9837C287.088 16.0125 286.878 16.0412 286.698 16.07C286.548 16.07 286.428 16.07 286.428 16.07C286.278 16.0988 286.128 16.1275 285.978 16.1563C285.828 16.185 285.678 16.185 285.558 16.185C285.289 16.2138 285.019 16.185 284.779 16.1563C284.539 16.1563 284.299 16.1275 284.059 16.1275C283.939 16.1275 283.819 16.1563 283.699 16.1563C283.579 16.1563 283.429 16.185 283.309 16.2138C282.77 15.9262 282.14 15.6961 281.51 15.4086C280.88 15.121 280.251 14.7471 279.831 14.287C279.621 14.057 279.471 13.8557 279.291 13.6831C279.141 13.5106 278.961 13.338 278.811 13.1942C278.511 12.8779 278.151 12.6191 277.822 12.1302C277.642 11.8426 277.612 11.6126 277.462 11.4688C277.312 11.325 277.432 10.8073 277.342 10.5198L277.192 10.6348C277.162 10.5198 277.072 10.3185 277.072 10.2034C277.042 10.0884 276.982 10.1459 276.922 10.1747C276.802 10.2322 276.712 10.3185 276.592 10.1459C276.412 9.68579 276.322 9.19691 276.292 8.67927C276.352 8.42045 276.412 8.19039 276.472 7.96033C276.562 7.73027 276.652 7.50021 276.742 7.27015C276.832 7.27015 276.922 7.24139 276.982 7.18387C277.042 7.06884 277.132 6.92506 277.192 6.81002C277.372 6.78127 277.552 6.83878 277.672 6.81002C278.032 6.8963 278.451 6.72375 278.781 6.72375C279.561 4.16432 281.57 2.29507 283.909 1.6624C284.029 1.60489 284.149 1.51861 284.239 1.4611C284.479 1.40358 284.719 1.34607 284.959 1.31731L285.319 1.25979C285.439 1.25979 285.558 1.25979 285.708 1.25979C286.818 1.23104 287.958 1.48986 288.917 2.00749C289.907 2.52513 290.746 3.27283 291.406 4.16432C291.526 4.33687 291.646 4.53817 291.796 4.79699C291.856 4.94078 291.916 5.05581 292.006 5.19959C292.036 5.25711 292.066 5.34338 292.096 5.4009L292.186 5.63096C292.246 5.77475 292.306 5.91854 292.366 6.06233C292.396 6.20611 292.456 6.3499 292.486 6.49369C292.576 6.78127 292.606 7.01133 292.666 7.21263C292.456 5.6022 291.676 4.02053 290.476 2.87022C289.277 1.69116 287.568 1.02973 285.888 0.972218C285.978 0.972218 286.068 0.94346 286.158 0.94346C287.958 0.972218 289.727 1.80619 290.986 3.10029C291.076 3.21532 291.196 3.33035 291.286 3.44538C291.376 3.56041 291.466 3.67544 291.586 3.81923C291.406 3.56041 291.196 3.33035 290.986 3.10029C290.447 2.52513 289.877 1.94998 289.097 1.48986C288.857 1.37483 288.557 1.25979 288.287 1.17352C287.987 1.11601 287.718 1.02973 287.448 0.972218C287.238 0.94346 286.998 0.914703 286.788 0.914703C286.578 0.914703 286.368 0.94346 286.158 0.94346C285.888 0.914703 285.618 0.94346 285.349 0.972218C285.259 0.972218 285.199 0.972218 285.109 0.972218C285.139 0.94346 285.199 0.914703 285.289 0.857187C285.379 0.82843 285.469 0.799672 285.618 0.770914C285.738 0.742157 285.888 0.713399 286.068 0.684641C286.248 0.684641 286.428 0.655884 286.608 0.655884C287.388 0.655884 288.437 0.799672 289.397 1.25979C290.357 1.69116 291.226 2.38134 291.796 3.04277C292.066 3.38786 292.336 3.7042 292.486 3.96302C292.576 4.1068 292.636 4.22183 292.696 4.33687C292.756 4.4519 292.786 4.53817 292.816 4.59568C292.995 5.05581 293.025 5.51593 293.055 5.97605C293.055 6.20611 293.055 6.43617 293.055 6.69499C293.055 6.92506 293.055 7.18387 293.055 7.41394C293.055 7.75903 293.175 8.01785 293.085 8.27667C293.115 8.36294 293.055 8.47797 292.995 8.593Z"/>
<path d="M281.48 26.9404C281.57 26.9404 281.66 26.9117 281.72 26.8542C281.78 26.7391 281.87 26.5953 281.93 26.4803C282.11 26.4516 282.29 26.5091 282.41 26.4803C282.77 26.5666 283.189 26.394 283.519 26.394C284.299 23.8346 286.308 21.9654 288.647 21.3327C288.767 21.2752 288.887 21.1889 288.977 21.1314C289.217 21.0739 289.457 21.0164 289.697 20.9876L290.057 20.9301C290.177 20.9301 290.296 20.9301 290.446 20.9301C291.556 20.9013 292.696 21.1601 293.655 21.6778C294.645 22.1954 295.484 22.9431 296.144 23.8346C296.264 24.0072 296.384 24.2085 296.534 24.4673C296.594 24.6111 296.654 24.7261 296.744 24.8699C296.774 24.9274 296.804 25.0137 296.834 25.0712L296.924 25.3012C296.984 25.445 297.044 25.5888 297.104 25.7326C297.134 25.8764 297.194 26.0202 297.224 26.164C297.314 26.4516 297.344 26.6816 297.404 26.8829C297.194 25.2725 296.414 23.6908 295.215 22.5405C294.015 21.3614 292.336 20.7 290.626 20.6425C290.716 20.6425 290.806 20.6137 290.896 20.6137C292.696 20.6713 294.465 21.4765 295.724 22.7993C295.814 22.9144 295.934 23.0294 296.024 23.1444C296.114 23.2595 296.204 23.3745 296.324 23.5183C296.144 23.2595 295.934 23.0294 295.724 22.7993C295.185 22.2242 294.615 21.649 293.835 21.1889C293.595 21.0739 293.295 20.9588 293.025 20.8726C292.726 20.8151 292.456 20.7288 292.186 20.6713C291.976 20.6425 291.736 20.6137 291.526 20.6137C291.316 20.6137 291.106 20.6425 290.896 20.6425C290.626 20.6137 290.356 20.6425 290.087 20.6713C289.997 20.6713 289.937 20.6713 289.847 20.6713C289.877 20.6425 289.937 20.6137 290.027 20.5562C290.117 20.5275 290.207 20.4987 290.356 20.47C290.476 20.4412 290.626 20.4124 290.806 20.3837C290.986 20.3837 291.166 20.3549 291.346 20.3549C292.126 20.3549 293.175 20.5275 294.135 20.9588C295.095 21.3902 295.964 22.0804 296.534 22.7418C296.804 23.0869 297.074 23.4032 297.224 23.6621C297.314 23.8058 297.374 23.9209 297.434 24.0359C297.494 24.1509 297.524 24.2372 297.554 24.2947C297.734 24.7548 297.764 25.215 297.793 25.6751C297.793 25.9052 297.793 26.1352 297.793 26.394C297.793 26.6241 297.793 26.8829 297.793 27.113C297.793 27.4581 297.913 27.7169 297.823 27.9757C297.763 28.0045 297.704 28.1195 297.674 28.2633C297.644 28.4358 297.674 28.5796 297.644 28.7522C297.644 28.9247 297.614 29.0685 297.614 29.241C297.614 29.5574 297.524 29.845 297.374 30.075C297.314 30.2476 297.404 30.6214 297.494 30.9665C297.584 31.3404 297.614 31.6567 297.524 31.6567C297.164 31.6567 297.134 31.6567 297.134 31.7717C297.134 31.8292 297.134 31.8868 297.134 32.0018C297.104 32.1168 297.074 32.2606 296.984 32.4619C296.954 32.5194 296.864 32.5769 296.744 32.6632C296.624 32.7495 296.504 32.807 296.444 32.922C296.384 33.0946 296.294 33.2096 296.204 33.3246C296.114 33.4397 296.024 33.4972 295.934 33.5835C295.844 33.6697 295.724 33.7272 295.604 33.8423C295.484 33.9285 295.334 34.0148 295.185 34.1586C294.945 34.3312 294.735 34.4749 294.555 34.6187C294.405 34.7625 294.255 34.8776 294.105 34.9926C293.955 35.1076 293.805 35.1939 293.625 35.2802C293.445 35.3664 293.205 35.4239 292.935 35.4527C292.875 35.4527 292.426 35.5965 291.976 35.654C291.766 35.6828 291.556 35.7115 291.376 35.7403C291.226 35.7403 291.106 35.7403 291.106 35.7403C290.956 35.769 290.806 35.7978 290.656 35.8266C290.506 35.8553 290.356 35.8553 290.237 35.8553C289.967 35.8841 289.697 35.8553 289.457 35.8266C289.217 35.8266 288.977 35.7978 288.737 35.7978C288.617 35.7978 288.497 35.8266 288.377 35.8266C288.257 35.8266 288.107 35.8553 287.987 35.8841C287.448 35.5965 286.818 35.3664 286.188 35.0789C285.558 34.7913 284.929 34.4174 284.509 33.9573C284.299 33.7272 284.149 33.5259 283.969 33.3534C283.819 33.1808 283.639 33.0083 283.489 32.8645C283.189 32.5482 282.829 32.2894 282.5 31.8005C282.32 31.5129 282.29 31.2828 282.14 31.1391C281.99 30.9953 282.11 30.4776 282.02 30.19L281.87 30.3051C281.84 30.1901 281.75 29.9887 281.75 29.8737C281.72 29.7587 281.66 29.8162 281.6 29.845C281.48 29.9025 281.39 29.9887 281.27 29.8162C281.09 29.3561 281 28.8672 280.97 28.3496C281.03 28.0907 281.09 27.8607 281.15 27.6306C281.3 27.4006 281.39 27.1705 281.48 26.9404Z"/>
<path d="M146.865 34.9639C146.895 34.8488 146.924 34.7338 146.984 34.6188C147.044 34.5325 147.074 34.4175 147.134 34.3312C147.194 34.2449 147.254 34.1874 147.314 34.1011L147.404 34.0149L147.584 33.8136L147.974 33.4397C148.484 32.9508 148.994 32.4332 149.503 31.9443L149.893 31.5705L150.283 31.1966C150.553 30.9665 150.823 30.7077 151.093 30.4777C151.633 29.9888 152.172 29.4999 152.712 29.011C153.282 28.5509 153.852 28.062 154.391 27.5731C154.661 27.3431 154.961 27.0843 155.261 26.8542C155.561 26.6241 155.861 26.3941 156.131 26.164C156.731 25.7039 157.33 25.2438 157.93 24.7549C158.53 24.266 159.16 23.8346 159.789 23.3745C160.419 22.9144 161.049 22.4543 161.679 22.0229C162.338 21.5915 162.998 21.1314 163.658 20.7001C163.988 20.47 164.317 20.2399 164.647 20.0386L165.667 19.406C166.357 18.9746 167.046 18.5432 167.706 18.1119C168.396 17.7093 169.086 17.3067 169.805 16.8753L170.855 16.2714L171.934 15.6962L174.064 14.5172C174.783 14.1433 175.503 13.7695 176.223 13.4244C177.662 12.6767 179.162 12.0152 180.631 11.3251C183.6 10.0022 186.599 8.76563 189.687 7.7016L190.827 7.29899L191.397 7.09768L191.966 6.92514C192.746 6.69508 193.496 6.43626 194.275 6.2062L194.845 6.03365L195.415 5.8611L196.585 5.54477L197.754 5.22844C198.144 5.11341 198.534 5.02713 198.924 4.94086C205.161 3.38795 211.519 2.61149 217.666 2.98534C220.725 3.15788 223.754 3.58925 226.602 4.25068C229.481 4.9121 232.24 5.83235 234.819 6.83887C237.728 7.98917 240.487 9.19699 243.156 10.3761C243.246 10.3761 243.366 10.3761 243.456 10.3761C243.576 10.3761 243.696 10.3761 243.846 10.4048C243.995 10.4336 244.145 10.4336 244.445 10.5198C244.175 10.4623 244.025 10.4911 243.876 10.4911C243.756 10.4911 243.666 10.5198 243.546 10.5486C244.205 10.8362 244.835 11.1238 245.495 11.4113C245.645 11.4113 245.795 11.4113 245.915 11.3826C246.035 11.3251 245.825 11.1238 245.735 10.9512C246.365 11.0662 246.424 10.8937 246.215 10.6924C246.365 10.6924 246.514 10.7212 246.514 10.7212C246.484 10.6636 246.424 10.4623 246.424 10.4623C247.204 10.4911 248.044 10.4623 248.854 10.4048C249.663 10.3473 250.443 10.3185 251.193 10.4048C251.522 10.4048 252.062 10.5198 252.422 10.5486C252.602 10.5774 252.992 10.4336 253.112 10.4048C253.382 10.5198 253.382 10.6924 253.502 10.8649C254.041 10.7212 254.911 10.4336 255.631 10.2323C256.35 10.031 256.92 9.94469 256.98 10.2323C257.85 9.94469 258.12 10.146 259.019 9.8009C259.619 9.57084 260.249 9.28327 260.879 8.90942C261.508 8.53557 262.078 8.07545 262.528 7.55781C263.038 7.01141 263.308 6.32123 263.368 5.68856C263.368 5.54477 263.398 5.40098 263.398 5.25719C263.398 5.11341 263.398 4.99837 263.398 4.88334C263.398 4.56701 263.338 4.36571 263.188 4.10689C263.128 3.99186 263.038 3.87683 262.948 3.7618C262.888 3.70428 262.858 3.64676 262.798 3.58925L262.678 3.47422C262.348 3.15788 261.928 2.92782 261.508 2.98534C261.299 3.0141 261.119 3.12913 260.969 3.30167C260.849 3.47422 260.789 3.67552 260.759 3.84807C260.759 3.90558 260.789 3.87683 260.609 4.1644C260.489 4.33695 260.339 4.45198 260.249 4.56701C260.009 4.73956 259.799 4.88334 259.589 4.96962C259.349 5.08465 259.139 5.17092 258.78 5.22844C258.66 5.22844 258.57 5.25719 258.33 5.22844C258.21 5.19968 258.06 5.17092 257.85 5.05589C257.76 4.99837 257.61 4.85459 257.55 4.73956C257.52 4.68204 257.46 4.59577 257.43 4.53825C257.43 4.50949 257.4 4.45198 257.4 4.42322V4.39446L257.34 4.02061L257.31 3.84807V3.64676C257.31 3.50298 257.31 3.38795 257.31 3.24416C257.37 2.98534 257.4 2.72652 257.52 2.4677C257.73 1.97882 258.09 1.54745 258.51 1.25988L258.66 1.14485L258.81 1.05857C258.899 1.00106 259.019 0.943544 259.109 0.886028C259.319 0.799755 259.529 0.684725 259.739 0.627209C260.159 0.454663 260.609 0.397148 261.059 0.339633C261.928 0.25336 262.828 0.310875 263.728 0.598452C264.177 0.74224 264.597 0.943544 265.017 1.20236C265.437 1.48994 265.797 1.86379 266.097 2.29515C266.366 2.75528 266.546 3.27291 266.576 3.7618C266.606 3.87683 266.576 4.02061 266.576 4.13564C266.576 4.25068 266.576 4.39446 266.546 4.50949C266.516 4.73956 266.486 4.99837 266.396 5.19968C266.157 6.09117 265.707 6.83887 265.227 7.55781C264.267 8.93818 263.038 10.1748 261.688 11.1238C258.959 13.0793 255.751 14.0283 252.842 14.4021C252.782 14.4021 252.692 14.4309 252.632 14.4309C255.751 15.6675 258.72 16.6452 261.478 17.3354C265.227 18.2844 268.586 18.6583 271.314 18.6583C271.494 18.6583 271.644 18.6583 271.824 18.6583C272.004 18.6583 272.154 18.6583 272.304 18.6295C272.634 18.6008 272.934 18.6008 273.264 18.6008C273.564 18.572 273.863 18.5432 274.163 18.5145C274.463 18.4857 274.733 18.457 275.003 18.4282C276.053 18.2844 276.952 18.1119 277.702 17.9681L278.572 17.8243L279.081 17.738C279.411 17.6805 279.771 17.6805 280.191 17.7955C280.281 17.8243 280.401 17.8818 280.521 17.9106C280.611 17.9681 280.761 18.0544 280.881 18.1119C280.941 18.1406 281.031 18.2269 281.091 18.2844C281.151 18.3707 281.211 18.3994 281.27 18.5145C281.39 18.7158 281.48 18.9171 281.51 19.1471C281.57 19.636 281.39 20.0099 281.24 20.2399L281.181 20.3262C281.151 20.355 281.151 20.355 281.121 20.3837L281.001 20.4988L280.881 20.6138C280.851 20.6425 280.821 20.6713 280.791 20.7001C280.731 20.7576 280.671 20.7863 280.581 20.8438C280.521 20.8726 280.461 20.9014 280.401 20.9301L280.221 21.0164L280.071 21.0739C279.861 21.1602 279.681 21.2177 279.501 21.2752C279.801 21.1602 280.131 21.0452 280.551 20.7576C280.671 20.6713 280.761 20.6138 280.911 20.4412C280.971 20.355 281.031 20.2975 281.121 20.1824C281.181 20.0674 281.24 19.9524 281.3 19.7511C281.33 19.6648 281.33 19.5785 281.36 19.4635C281.36 19.3485 281.36 19.2334 281.33 19.1184C281.3 19.0034 281.27 18.9171 281.24 18.8021C281.181 18.7158 281.151 18.6008 281.091 18.5432C280.851 18.2557 280.581 18.1119 280.371 18.0544C279.951 17.9106 279.591 17.9106 279.231 17.9681L279.111 17.9968L278.991 18.0256L278.871 18.0544C278.781 18.0831 278.722 18.1119 278.632 18.1119C278.302 18.1981 277.942 18.3132 277.582 18.3994C276.113 18.7445 274.373 19.0321 272.454 19.0896C270.535 19.1759 268.436 19.0609 266.247 18.7445C264.057 18.4282 261.808 17.9106 259.559 17.2491C256.98 16.5014 254.401 15.5524 251.912 14.5459C251.642 14.5747 251.372 14.5747 251.133 14.6034C252.242 15.0348 254.281 16.1563 255.841 16.7603L255.481 16.4439C256.051 16.6452 257.16 17.1054 257.73 17.2779C258.3 17.4792 258.18 17.3642 258.06 17.2779C257.82 17.0766 257.58 16.8753 258.6 17.1629C260.939 17.9393 263.338 18.6007 265.827 18.9746C268.226 19.4635 270.655 19.6648 273.054 19.521C273.204 19.5785 273.384 19.636 273.714 19.6648L274.253 19.636C274.433 19.6073 274.613 19.5785 274.793 19.5785L275.873 19.4347C276.262 19.4922 276.262 19.636 276.412 19.7223C277.402 19.5785 278.362 19.3772 279.351 19.1184C280.131 18.9171 280.881 19.6073 279.141 20.1249C279.111 20.1249 279.081 20.1249 279.081 20.1537C279.321 20.2112 279.411 20.2975 279.261 20.47C279.201 20.5275 278.871 20.6425 278.392 20.7863C278.152 20.8726 277.882 20.9589 277.582 21.0452C277.282 21.1314 276.952 21.2465 276.622 21.3327C275.933 21.4765 275.183 21.6778 274.493 21.8216C273.773 21.9366 273.114 22.0517 272.634 22.1667C272.154 22.2817 273.294 22.3105 273.773 22.4255C273.444 22.4543 273.144 22.5118 272.874 22.5406C272.604 22.5693 272.394 22.5981 272.214 22.6268C271.824 22.6556 271.584 22.6843 271.464 22.7419C271.225 22.8281 271.464 22.8856 272.034 22.9432C271.374 22.9719 270.745 23.0294 270.745 23.0294C270.895 23.0869 271.404 23.2307 271.404 23.2307C270.955 23.2595 270.535 23.2882 270.085 23.2882C269.635 23.2882 269.185 23.2882 268.736 23.2882H268.046L267.356 23.2307C266.906 23.202 266.456 23.1732 265.977 23.1157C264.177 22.8856 262.318 22.5693 260.579 22.0804C259.679 21.8504 258.839 21.5628 258 21.304C257.16 21.0164 256.321 20.7288 255.511 20.3837C253.891 19.7511 252.362 19.0609 250.923 18.3994C250.293 18.1119 249.483 17.7093 248.644 17.3067C247.804 16.904 246.964 16.5014 246.275 16.1851C245.585 15.8688 243.995 15.3224 243.426 15.0923C242.496 14.5459 242.706 14.4309 242.376 14.1146C240.157 13.3093 236.648 12.0152 233.77 11.0375C230.861 10.031 228.552 9.31203 228.792 9.05321C227.892 8.82314 227.172 8.62184 226.542 8.42054C225.913 8.21923 225.373 8.07545 224.803 7.93166C224.263 7.75911 223.694 7.58657 223.034 7.47153C222.704 7.41402 222.344 7.32775 221.954 7.24147C221.564 7.1552 221.145 7.06893 220.635 7.01141C215.537 6.17744 208.88 6.11992 202.492 7.38526C202.042 7.47153 201.622 7.52905 201.173 7.61532L200.513 7.73035L199.883 7.87414C199.044 8.07545 198.174 8.27675 197.334 8.47805C197.124 8.53557 196.914 8.56433 196.704 8.62184L196.075 8.79439L194.815 9.16824L193.586 9.54209L192.956 9.71463L192.356 9.91594C191.756 10.1172 191.157 10.3185 190.557 10.5198C189.957 10.7212 189.387 10.8937 188.818 11.1238C182.76 13.3669 177.332 16.0701 172.354 19.0034C167.376 21.9366 162.818 25.1575 158.5 28.6084C157.42 29.4711 156.371 30.3626 155.321 31.2541C154.302 32.1744 153.252 33.0946 152.232 34.0149C151.723 34.5037 151.243 34.9639 150.733 35.4527L149.983 36.1717L149.803 36.3442L149.713 36.4305C149.683 36.4593 149.683 36.4593 149.563 36.5455C149.413 36.6606 149.234 36.8044 149.024 36.8906C148.784 36.9769 148.514 37.0344 148.214 36.9769C147.614 36.9194 147.104 36.488 146.954 35.9704C146.805 35.4815 146.805 35.1939 146.865 34.9639ZM241.926 10.6924C242.106 10.6061 242.226 10.5774 242.316 10.5198C241.297 10.1172 240.337 9.71463 239.377 9.31203C237.788 8.67936 236.289 8.1042 234.879 7.58657C237.188 8.53557 239.557 9.5996 241.926 10.6924ZM242.436 10.9225C242.946 11.1525 243.486 11.4113 244.025 11.6414C244.085 11.6414 244.145 11.6414 244.175 11.6702C244.175 11.6702 244.175 11.6702 244.205 11.6702C244.175 11.5551 244.205 11.4401 244.295 11.3251C243.816 11.1238 243.366 10.9512 242.886 10.7499C242.736 10.8074 242.616 10.8362 242.436 10.9225ZM244.505 11.2963C244.535 11.2963 244.565 11.2963 244.625 11.2963C244.115 11.0662 243.636 10.8649 243.156 10.6349C243.126 10.6349 243.126 10.6349 243.096 10.6636C243.546 10.8937 244.025 11.095 244.505 11.2963ZM251.852 13.7695C251.732 13.827 251.492 13.7982 251.253 13.7695C251.343 13.7982 251.402 13.827 251.492 13.8557C251.882 13.7982 252.242 13.7119 252.572 13.6257C252.272 13.6832 252.062 13.7119 251.852 13.7695ZM250.473 13.8557C250.323 13.8845 249.993 13.942 249.813 13.942C249.753 13.942 249.723 13.9708 249.693 13.9708C249.783 13.9995 249.873 14.057 249.993 14.0858C250.263 14.057 250.533 14.0283 250.773 13.9995C250.683 13.942 250.563 13.8845 250.473 13.8557ZM225.493 4.36571C224.383 4.13564 225.103 4.27943 227.082 4.73956C229.061 5.19968 232.27 6.11992 235.959 7.61532C237.968 8.42054 240.127 9.36954 242.556 10.4623C242.586 10.4623 242.586 10.4623 242.616 10.4336C240.127 9.34078 237.878 8.36302 235.989 7.61532C231.64 5.83235 228.132 4.88334 225.493 4.36571ZM252.542 14.0283C253.772 13.8845 254.671 13.6832 255.331 13.4819C255.601 13.3956 255.421 13.4531 254.911 13.5682C254.401 13.7119 253.592 13.8845 252.542 14.0283C252.362 14.057 252.182 14.057 252.002 14.0858H252.032C252.212 14.0858 252.392 14.057 252.542 14.0283ZM251.133 14.1433C250.833 14.1433 250.503 14.1721 250.173 14.1721C250.203 14.1721 250.233 14.2008 250.263 14.2008C250.593 14.2008 250.893 14.1721 251.163 14.1721C251.193 14.1433 251.163 14.1433 251.133 14.1433Z"/>
<path d="M15.6572 19.8948C15.8071 20.0385 15.6872 20.5562 15.7771 20.8438L15.9271 20.7287C15.9571 20.8438 16.047 21.0451 16.047 21.1601C16.077 21.2751 16.137 21.2176 16.197 21.1889C16.3169 21.1313 16.4069 21.0451 16.5268 21.2176C16.7068 21.6777 16.7967 22.1666 16.8267 22.6842C16.7667 22.9431 16.7068 23.1731 16.6468 23.4032C16.5568 23.6333 16.4669 23.8633 16.3769 24.0934C16.2869 24.0934 16.197 24.1221 16.137 24.1796C16.077 24.2947 15.987 24.4385 15.9271 24.5535C15.7471 24.5823 15.5672 24.5247 15.4473 24.5535C15.0874 24.4672 14.6676 24.6398 14.3377 24.6398C13.558 27.1992 11.5488 29.0684 9.20977 29.7011C9.08982 29.7586 8.96987 29.8449 8.8799 29.9024C8.64 29.9599 8.4001 30.0175 8.16019 30.0462L7.80034 30.1037C7.68038 30.1037 7.56043 30.1037 7.41049 30.1037C6.30094 30.1325 5.1614 29.8737 4.20178 29.356C3.21218 28.8384 2.37252 28.0907 1.71278 27.1992C1.59283 27.0267 1.47288 26.8253 1.32294 26.5665C1.26296 26.4227 1.20299 26.3077 1.11302 26.1639C1.08304 26.1064 1.05305 26.0201 1.02306 25.9626L0.933097 25.7326C0.873121 25.5888 0.813145 25.445 0.753169 25.3012C0.723181 25.1574 0.663206 25.0136 0.633218 24.8698C0.543254 24.5823 0.513266 24.3522 0.45329 24.1509C0.663205 25.7613 1.44289 27.343 2.64241 28.4933C3.84193 29.6724 5.55124 30.3338 7.23057 30.3913C7.1406 30.3913 7.05064 30.4201 6.96067 30.4201C5.1614 30.3913 3.39211 29.5573 2.13261 28.2632C2.04265 28.1482 1.9227 28.0332 1.83274 27.9181C1.74277 27.8031 1.65281 27.6881 1.53286 27.5443C1.71278 27.8031 1.9227 28.0332 2.13261 28.2632C2.6724 28.8384 3.24217 29.4135 4.02186 29.8737C4.26176 29.9887 4.56164 30.1037 4.83153 30.19C5.13141 30.2475 5.4013 30.3338 5.67119 30.3913C5.88111 30.4201 6.12101 30.4488 6.33093 30.4488C6.54084 30.4488 6.75076 30.4201 6.96067 30.4201C7.23057 30.4488 7.50046 30.4201 7.77035 30.3913C7.86031 30.3913 7.92029 30.3913 8.01025 30.3913C7.98026 30.4201 7.92029 30.4488 7.83032 30.5063C7.74036 30.5351 7.6504 30.5638 7.50046 30.5926C7.38051 30.6214 7.23057 30.6501 7.05064 30.6789C6.87071 30.6789 6.69078 30.7076 6.51085 30.7076C5.73117 30.7076 4.68159 30.5638 3.72198 30.1037C2.76236 29.6724 1.89271 28.9822 1.32294 28.3207C1.05305 27.9757 0.783157 27.6593 0.633217 27.4005C0.543253 27.2567 0.483278 27.1417 0.423302 27.0267C0.363326 26.9116 0.333338 26.8253 0.30335 26.7678C0.123422 26.3077 0.0934344 25.8476 0.0634465 25.3875C0.0634466 25.1574 0.0634466 24.9273 0.0634466 24.6685C0.0634467 24.4385 0.0634467 24.1796 0.0634468 23.9496C0.0634468 23.6045 -0.0565049 23.3457 0.033459 23.0869C0.0934349 23.0581 0.153411 22.9431 0.183399 22.7993C0.213387 22.6267 0.183399 22.4829 0.213387 22.3104C0.213387 22.1378 0.243375 21.9941 0.243375 21.8215C0.243375 21.5052 0.333339 21.2176 0.483279 20.9875C0.543255 20.815 0.453291 20.4411 0.363327 20.0961C0.273363 19.7222 0.243375 19.4059 0.333339 19.4059C0.693195 19.4059 0.723182 19.4059 0.723182 19.2908C0.723182 19.2333 0.723182 19.1758 0.723183 19.0608C0.663207 18.9457 0.693195 18.7732 0.813146 18.5719C0.843134 18.5144 0.933098 18.4569 1.05305 18.3706C1.173 18.2843 1.29295 18.2268 1.35293 18.1118C1.41291 17.9392 1.50287 17.8242 1.59283 17.7092C1.6828 17.5941 1.77276 17.5366 1.86272 17.4504C1.95269 17.3641 2.07264 17.3066 2.19259 17.1915C2.31254 17.134 2.4325 17.019 2.61242 16.904C2.85233 16.7314 3.06224 16.5876 3.24217 16.4438C3.39211 16.3 3.54205 16.185 3.69199 16.07C3.84193 15.955 3.99187 15.8687 4.1718 15.7824C4.35172 15.6961 4.59163 15.6386 4.86152 15.6099C4.9215 15.6099 5.37132 15.4661 5.82113 15.4086C6.03105 15.3798 6.24097 15.351 6.42089 15.3223C6.57083 15.3223 6.69079 15.3223 6.69079 15.3223C6.84073 15.2935 6.99066 15.2648 7.1406 15.236C7.29054 15.2073 7.44048 15.2073 7.56044 15.2073C7.83033 15.1785 8.10022 15.2073 8.34012 15.236C8.58003 15.236 8.81993 15.2648 9.05983 15.2648C9.17978 15.2648 9.29974 15.236 9.41969 15.236C9.53964 15.236 9.68958 15.2073 9.80953 15.1785C10.3493 15.4661 10.9791 15.6961 11.6088 15.9837C12.2386 16.2713 12.8683 16.6451 13.2881 17.1053C13.498 17.3353 13.648 17.5366 13.8279 17.7092C13.9779 17.8817 14.1578 18.0543 14.3077 18.1981C14.6076 18.5144 14.9675 18.7732 15.2973 19.2621C15.4773 19.4921 15.5072 19.751 15.6572 19.8948Z"/>
<path d="M20.0045 28.407C20.0345 28.2344 20.0045 28.0907 20.0345 27.9181C20.0345 27.7456 20.0645 27.6018 20.0645 27.4292C20.0645 27.1129 20.1545 26.8253 20.3044 26.5953C20.3644 26.4227 20.2744 26.0489 20.1845 25.7038C20.0945 25.3299 20.0645 25.0136 20.1545 25.0136C20.5143 25.0136 20.5443 25.0136 20.5443 24.8986C20.5443 24.841 20.5443 24.7835 20.5443 24.6685C20.5743 24.5535 20.6043 24.4097 20.6943 24.2084C20.7242 24.1509 20.8142 24.0933 20.9342 24.0071C21.0541 23.9208 21.1741 23.8633 21.234 23.7483C21.294 23.5757 21.384 23.4607 21.4739 23.3456C21.5639 23.2306 21.6539 23.1731 21.7438 23.0868C21.8338 23.0006 21.9537 22.943 22.0737 22.828C22.1936 22.7417 22.3436 22.6555 22.4935 22.5117C22.7334 22.3391 22.9433 22.1953 23.1233 22.0516C23.2732 21.9078 23.4232 21.7927 23.5731 21.6777C23.723 21.5627 23.873 21.4764 24.0529 21.3901C24.2328 21.3039 24.4727 21.2463 24.7426 21.2176C24.8026 21.2176 25.2524 21.0738 25.7022 21.0163C25.9122 20.9875 26.1221 20.9588 26.302 20.93C26.4519 20.93 26.5719 20.93 26.5719 20.93C26.7218 20.9012 26.8718 20.8725 27.0217 20.8437C27.1716 20.815 27.3216 20.815 27.4415 20.815C27.7114 20.7862 27.9813 20.815 28.2212 20.8437C28.4611 20.8437 28.701 20.8725 28.9409 20.8725C29.0609 20.8725 29.1808 20.8437 29.3008 20.8437C29.4207 20.8437 29.5707 20.815 29.6906 20.7862C30.2304 21.0738 30.8602 21.3039 31.4899 21.5914C32.1197 21.879 32.7494 22.2529 33.1692 22.713C33.3792 22.943 33.5291 23.1443 33.709 23.3169C33.859 23.4894 34.0389 23.662 34.1888 23.8058C34.4887 24.1221 34.8486 24.3809 35.1784 24.8698C35.3584 25.1574 35.3883 25.3874 35.5383 25.5312C35.6882 25.675 35.5683 26.1927 35.6582 26.4802L35.8082 26.3652C35.8382 26.4802 35.9281 26.6815 35.9281 26.7966C35.9581 26.9116 36.0181 26.8541 36.0781 26.8253C36.198 26.7678 36.288 26.6815 36.4079 26.8541C36.5879 27.3142 36.6778 27.8031 36.7078 28.3207C36.6478 28.5795 36.5879 28.8096 36.5279 29.0397C36.4379 29.2697 36.348 29.4998 36.258 29.7298C36.168 29.7298 36.0781 29.7586 36.0181 29.8161C35.9581 29.9312 35.8682 30.0749 35.8082 30.19C35.6282 30.2187 35.4483 30.1612 35.3284 30.19C34.9685 30.1037 34.5487 30.2762 34.2188 30.2762C33.4391 32.8357 31.4299 34.7049 29.0909 35.3376C28.9709 35.3951 28.851 35.4814 28.761 35.5389C28.5211 35.5964 28.2812 35.6539 28.0413 35.6827L27.6814 35.7402C27.5615 35.7402 27.4415 35.7402 27.2916 35.7402C26.182 35.769 25.0425 35.5101 24.0829 34.9925C23.0933 34.4749 22.2536 33.7272 21.5939 32.8357C21.4739 32.6631 21.354 32.4618 21.204 32.203C21.1441 32.0592 21.0841 31.9442 20.9941 31.8004C20.9641 31.7429 20.9342 31.6566 20.9042 31.5991L20.8142 31.369C20.7542 31.2252 20.6942 31.0815 20.6343 30.9377C20.6043 30.7939 20.5443 30.6501 20.5143 30.5063C20.4244 30.2187 20.3944 29.9887 20.3344 29.7874C20.5443 31.3978 21.324 32.9795 22.5235 34.1298C23.723 35.3088 25.4323 35.9703 27.1117 36.0278C27.0217 36.0278 26.9317 36.0565 26.8418 36.0565C25.0425 36.0278 23.2732 35.1938 22.0137 33.8997C21.9238 33.7847 21.8038 33.6696 21.7138 33.5546C21.6239 33.4396 21.5339 33.3246 21.414 33.1808C21.5939 33.4396 21.8038 33.6696 22.0137 33.8997C22.5535 34.4749 23.1233 35.05 23.903 35.5101C24.1429 35.6252 24.4427 35.7402 24.7126 35.8265C25.0125 35.884 25.2824 35.9703 25.5523 36.0278C25.7622 36.0565 26.0021 36.0853 26.212 36.0853C26.4219 36.0853 26.6319 36.0565 26.8418 36.0565C27.1117 36.0853 27.3816 36.0565 27.6515 36.0278C27.7414 36.0278 27.8014 36.0278 27.8914 36.0278C27.8614 36.0565 27.8014 36.0853 27.7114 36.1428C27.6215 36.1716 27.5315 36.2003 27.3816 36.2291C27.2616 36.2578 27.1117 36.2866 26.9317 36.3154C26.7518 36.3154 26.5719 36.3441 26.392 36.3441C25.6123 36.3441 24.5627 36.2003 23.6031 35.7402C22.6435 35.3088 21.7738 34.6186 21.204 33.9572C20.9342 33.6121 20.6643 33.2958 20.5143 33.037C20.4244 32.8932 20.3644 32.7782 20.3044 32.6631C20.2444 32.5481 20.2144 32.4618 20.1845 32.4043C20.0045 31.9442 19.9745 31.4841 19.9446 31.0239C19.9446 30.7939 19.9446 30.5638 19.9446 30.305C19.9446 30.0749 19.9446 29.8161 19.9446 29.5861C19.9446 29.241 19.8246 28.9821 19.9146 28.7233C19.8846 28.6371 19.9446 28.522 20.0045 28.407Z"/>
<path d="M31.52 10.0596C31.43 10.0596 31.34 10.0883 31.2801 10.1458C31.2201 10.2609 31.1301 10.4047 31.0701 10.5197C30.8902 10.5484 30.7103 10.4909 30.5903 10.5197C30.2305 10.4334 29.8106 10.606 29.4808 10.606C28.7011 13.1654 26.6919 15.0346 24.3528 15.6673C24.2329 15.7248 24.1129 15.8111 24.023 15.8686C23.7831 15.9261 23.5432 15.9836 23.3033 16.0124L22.9434 16.0699C22.8235 16.0699 22.7035 16.0699 22.5536 16.0699C21.444 16.0987 20.3045 15.8399 19.3449 15.3222C18.3552 14.8046 17.5156 14.0569 16.8558 13.1654C16.7359 12.9928 16.6159 12.7915 16.466 12.5327C16.406 12.3889 16.3461 12.2739 16.2561 12.1301C16.2261 12.0726 16.1961 11.9863 16.1661 11.9288L16.0762 11.6987C16.0162 11.555 15.9562 11.4112 15.8962 11.2674C15.8662 11.1236 15.8063 10.9798 15.7763 10.836C15.6863 10.5484 15.6563 10.3184 15.5964 10.1171C15.8063 11.7275 16.586 13.3092 17.7855 14.4595C18.985 15.6385 20.6643 16.3 22.3736 16.3575C22.2837 16.3575 22.1937 16.3862 22.1037 16.3862C20.3045 16.3287 18.5352 15.5235 17.2757 14.2007C17.1857 14.0856 17.0658 13.9706 16.9758 13.8556C16.8858 13.7405 16.7959 13.6255 16.6759 13.4817C16.8559 13.7405 17.0658 13.9706 17.2757 14.2007C17.8155 14.7758 18.3852 15.351 19.1649 15.8111C19.4048 15.9261 19.7047 16.0412 19.9746 16.1274C20.2745 16.1849 20.5444 16.2712 20.8143 16.3287C21.0242 16.3575 21.2641 16.3862 21.474 16.3862C21.6839 16.3862 21.8938 16.3575 22.1037 16.3575C22.3736 16.3862 22.6435 16.3575 22.9134 16.3287C23.0034 16.3287 23.0634 16.3287 23.1533 16.3287C23.1233 16.3575 23.0634 16.3862 22.9734 16.4438C22.8834 16.4725 22.7935 16.5013 22.6435 16.53C22.5236 16.5588 22.3736 16.5876 22.1937 16.6163C22.0138 16.6163 21.8338 16.6451 21.6539 16.6451C20.8742 16.6451 19.8247 16.4725 18.865 16.0412C17.9054 15.6098 17.0358 14.9196 16.466 14.2582C16.1961 13.9131 15.9262 13.5968 15.7763 13.3379C15.6863 13.1941 15.6263 13.0791 15.5664 12.9641C15.5064 12.8491 15.4764 12.7628 15.4464 12.7053C15.2665 12.2451 15.2365 11.785 15.2065 11.3249C15.2065 11.0948 15.2065 10.8648 15.2065 10.606C15.2065 10.3759 15.2065 10.1171 15.2065 9.88701C15.2065 9.54192 15.0866 9.2831 15.1765 9.02428C15.2365 8.99552 15.2965 8.88049 15.3265 8.73671C15.3565 8.56416 15.3265 8.42037 15.3565 8.24783C15.3565 8.07528 15.3864 7.93149 15.3864 7.75894C15.3864 7.44261 15.4764 7.15503 15.6263 6.92497C15.6863 6.75243 15.5964 6.37858 15.5064 6.03348C15.4164 5.65963 15.3864 5.3433 15.4764 5.3433C15.8363 5.3433 15.8662 5.3433 15.8662 5.22827C15.8662 5.17076 15.8662 5.11324 15.8662 4.99821C15.8962 4.88318 15.9262 4.73939 16.0162 4.53809C16.0462 4.48057 16.1361 4.42305 16.2561 4.33678C16.376 4.25051 16.496 4.193 16.556 4.07796C16.6159 3.90542 16.7059 3.79039 16.7959 3.67536C16.8858 3.56033 16.9758 3.50281 17.0658 3.41654C17.1557 3.33026 17.2757 3.27275 17.3956 3.15772C17.5156 3.07144 17.6655 2.98517 17.8155 2.84138C18.0554 2.66884 18.2653 2.52505 18.4452 2.38126C18.5952 2.23747 18.7451 2.12244 18.895 2.00741C19.045 1.89238 19.1949 1.80611 19.3748 1.71984C19.5548 1.63356 19.7947 1.57605 20.0646 1.54729C20.1245 1.54729 20.5744 1.4035 21.0242 1.34599C21.2341 1.31723 21.444 1.28847 21.6239 1.25971C21.7739 1.25971 21.8938 1.25971 21.8938 1.25971C22.0438 1.23096 22.1937 1.2022 22.3436 1.17344C22.4936 1.14468 22.6435 1.14468 22.7635 1.14468C23.0334 1.11592 23.3033 1.14468 23.5432 1.17344C23.7831 1.17344 24.023 1.2022 24.2629 1.2022C24.3828 1.2022 24.5028 1.17344 24.6227 1.17344C24.7427 1.17344 24.8926 1.14468 25.0126 1.11592C25.5524 1.4035 26.1821 1.63356 26.8119 1.92114C27.4416 2.20872 28.0713 2.58257 28.4912 3.04269C28.7011 3.27275 28.851 3.47406 29.031 3.6466C29.1809 3.81915 29.3608 3.99169 29.5108 4.13548C29.8106 4.45182 30.1705 4.71063 30.5004 5.19951C30.6803 5.48709 30.7103 5.71715 30.8602 5.86094C31.0102 6.00473 30.8902 6.52237 30.9802 6.80995L31.1301 6.69491C31.1601 6.80995 31.2501 7.01125 31.2501 7.12628C31.2801 7.24131 31.34 7.18379 31.4 7.15504C31.52 7.09752 31.6099 7.01125 31.7299 7.18379C31.9098 7.64392 31.9998 8.1328 32.0298 8.65044C31.9698 8.90925 31.9098 9.13932 31.8498 9.36938C31.6999 9.59944 31.6099 9.8295 31.52 10.0596Z"/>
<path d="M166.136 2.03627C166.106 2.1513 166.076 2.26633 166.016 2.38136C165.956 2.46763 165.926 2.58266 165.866 2.66893C165.806 2.75521 165.746 2.81272 165.686 2.89899L165.596 2.98527L165.416 3.18657L165.026 3.56042C164.516 4.0493 164.006 4.56694 163.497 5.05582L163.107 5.42967L162.717 5.80352C162.447 6.03358 162.177 6.2924 161.907 6.52246C161.367 7.01134 160.828 7.50022 160.288 7.9891C159.718 8.44923 159.148 8.93811 158.609 9.42699C158.339 9.65705 158.039 9.91587 157.739 10.1459C157.439 10.376 157.139 10.606 156.869 10.8361C156.27 11.2962 155.67 11.7564 155.07 12.2452C154.47 12.7341 153.84 13.1655 153.211 13.6256C152.581 14.0857 151.951 14.5458 151.321 14.9772C150.662 15.4086 150.002 15.8687 149.342 16.3001C149.012 16.5301 148.683 16.7602 148.353 16.9615L147.333 17.5942C146.643 18.0255 145.954 18.4569 145.294 18.8883C144.604 19.2909 143.914 19.6935 143.195 20.1248L142.145 20.7287L141.066 21.3039L138.936 22.483C138.217 22.8568 137.497 23.2307 136.777 23.5758C135.338 24.3235 133.839 24.9849 132.369 25.6751C129.4 26.9979 126.401 28.2345 123.313 29.2985L122.173 29.7011L121.603 29.9024L121.034 30.075C120.254 30.305 119.504 30.5639 118.725 30.7939L118.155 30.9665L117.585 31.139L116.416 31.4554L115.246 31.7717C114.856 31.8867 114.466 31.973 114.076 32.0593C107.839 33.6122 101.482 34.3886 95.334 34.0148C92.2752 33.8422 89.2464 33.4109 86.3976 32.7494C83.5187 32.088 80.7598 31.1678 78.1809 30.1612C75.272 29.0109 72.5131 27.8031 69.8442 26.6241C69.7543 26.6241 69.6343 26.6241 69.5443 26.6241C69.4244 26.6241 69.3044 26.6241 69.1545 26.5953C69.0046 26.5665 68.8546 26.5665 68.5547 26.4803C68.8246 26.5378 68.9746 26.509 69.1245 26.509C69.2445 26.509 69.3344 26.4803 69.4544 26.4515C68.7946 26.1639 68.1649 25.8764 67.5052 25.5888C67.3552 25.5888 67.2053 25.5888 67.0853 25.6175C66.9654 25.6751 67.1753 25.8764 67.2653 26.0489C66.6355 25.9339 66.5755 26.1064 66.7854 26.3077C66.6355 26.3077 66.4856 26.279 66.4856 26.279C66.5156 26.3365 66.5755 26.5378 66.5755 26.5378C65.7958 26.509 64.9562 26.5378 64.1465 26.5953C63.3368 26.6528 62.5571 26.6816 61.8074 26.5953C61.4776 26.5953 60.9378 26.4803 60.5779 26.4515C60.398 26.4227 60.0082 26.5665 59.8882 26.5953C59.6183 26.4803 59.6183 26.3077 59.4984 26.1352C58.9586 26.279 58.0889 26.5665 57.3692 26.7678C56.6495 26.9691 56.0797 27.0554 56.0198 26.7678C55.1501 27.0554 54.8802 26.8541 53.9806 27.1992C53.3808 27.4293 52.7511 27.7168 52.1213 28.0907C51.4916 28.4645 50.9218 28.9247 50.472 29.4423C49.9622 29.9887 49.6923 30.6789 49.6323 31.3116C49.6323 31.4553 49.6023 31.5991 49.6023 31.7429C49.6023 31.8867 49.6023 32.0017 49.6023 32.1168C49.6023 32.4331 49.6623 32.6344 49.8123 32.8932C49.8722 33.0083 49.9622 33.1233 50.0522 33.2383C50.1121 33.2958 50.1421 33.3533 50.2021 33.4109L50.3221 33.5259C50.6519 33.8422 51.0718 34.0723 51.4916 34.0148C51.7015 33.986 51.8814 33.871 52.0314 33.6984C52.1513 33.5259 52.2113 33.3246 52.2413 33.152C52.2413 33.0945 52.2113 33.1233 52.3912 32.8357C52.5112 32.6632 52.6611 32.5481 52.7511 32.4331C52.991 32.2606 53.2009 32.1168 53.4108 32.0305C53.6507 31.9155 53.8606 31.8292 54.2205 31.7717C54.3404 31.7717 54.4304 31.7429 54.6703 31.7717C54.7903 31.8004 54.9402 31.8292 55.1501 31.9442C55.2401 32.0017 55.39 32.1455 55.45 32.2606C55.48 32.3181 55.54 32.4043 55.57 32.4619C55.57 32.4906 55.5999 32.5481 55.5999 32.5769L55.5999 32.6056L55.6599 32.9795L55.6899 33.152L55.6899 33.3533C55.6899 33.4971 55.6899 33.6122 55.6899 33.756C55.6299 34.0148 55.5999 34.2736 55.48 34.5324C55.2701 35.0213 54.9102 35.4527 54.4904 35.7402L54.3404 35.8553L54.1905 35.9415C54.1005 35.9991 53.9806 36.0566 53.8906 36.1141C53.6807 36.2004 53.4708 36.3154 53.2609 36.3729C52.841 36.5454 52.3912 36.603 51.9414 36.6605C51.0718 36.7468 50.1721 36.6892 49.2725 36.4017C48.8227 36.2579 48.4028 36.0566 47.983 35.7977C47.5632 35.5102 47.2033 35.1363 46.9034 34.705C46.6335 34.2448 46.4536 33.7272 46.4236 33.2383C46.3936 33.1233 46.4236 32.9795 46.4236 32.8645C46.4236 32.7494 46.4236 32.6056 46.4536 32.4906C46.4836 32.2606 46.5136 32.0017 46.6035 31.8004C46.8435 30.9089 47.2933 30.1612 47.7731 29.4423C48.7327 28.0619 49.9622 26.8254 51.3117 25.8764C54.0406 23.9208 57.2493 22.9718 60.1581 22.598C60.2181 22.598 60.308 22.5692 60.368 22.5692C57.2493 21.3326 54.2805 20.3549 51.5216 19.6647C47.7731 18.7157 44.4144 18.3418 41.6855 18.3418C41.5056 18.3418 41.3557 18.3418 41.1757 18.3418C40.9958 18.3418 40.8459 18.3418 40.6959 18.3706C40.3661 18.3994 40.0662 18.3994 39.7363 18.3994C39.4364 18.4281 39.1366 18.4569 38.8367 18.4856C38.5368 18.5144 38.2669 18.5431 37.997 18.5719C36.9474 18.7157 36.0478 18.8882 35.2981 19.032L34.4284 19.1758L33.9186 19.2621C33.5888 19.3196 33.2289 19.3196 32.8091 19.2046C32.7191 19.1758 32.5992 19.1183 32.4792 19.0895C32.3893 19.032 32.2393 18.9458 32.1194 18.8882C32.0594 18.8595 31.9694 18.7732 31.9095 18.7157C31.8495 18.6294 31.7895 18.6007 31.7295 18.4856C31.6096 18.2843 31.5196 18.083 31.4896 17.853C31.4296 17.3641 31.6096 16.9902 31.7595 16.7602L31.8195 16.6739C31.8495 16.6451 31.8495 16.6451 31.8795 16.6164L31.9994 16.5014L32.1194 16.3863C32.1494 16.3576 32.1793 16.3288 32.2093 16.3C32.2693 16.2425 32.3293 16.2138 32.4193 16.1563C32.4792 16.1275 32.5392 16.0987 32.5992 16.07L32.7791 15.9837L32.929 15.9262C33.139 15.8399 33.3189 15.7824 33.4988 15.7249C33.1989 15.8399 32.8691 15.955 32.4492 16.2425C32.3293 16.3288 32.2393 16.3863 32.0894 16.5589C32.0294 16.6451 31.9694 16.7027 31.8795 16.8177C31.8195 16.9327 31.7595 17.0477 31.6995 17.249C31.6696 17.3353 31.6696 17.4216 31.6396 17.5366C31.6396 17.6517 31.6396 17.7667 31.6696 17.8817C31.6995 17.9967 31.7295 18.083 31.7595 18.1981C31.8195 18.2843 31.8495 18.3994 31.9095 18.4569C32.1494 18.7444 32.4192 18.8882 32.6292 18.9458C33.049 19.0895 33.4089 19.0895 33.7687 19.032L33.8887 19.0033L34.0086 18.9745L34.1286 18.9458C34.2185 18.917 34.2785 18.8882 34.3685 18.8882C34.6983 18.802 35.0582 18.6869 35.418 18.6007C36.8875 18.2556 38.6268 17.968 40.546 17.9105C42.4652 17.8242 44.5644 17.9392 46.7535 18.2556C48.9426 18.5719 51.1917 19.0895 53.4408 19.751C56.0198 20.4987 58.5987 21.4477 61.0877 22.4542C61.3576 22.4254 61.6275 22.4254 61.8674 22.3967C60.7579 21.9653 58.7187 20.8438 57.1593 20.2399L57.5192 20.5562C56.9494 20.3549 55.8398 19.8948 55.2701 19.7222C54.7003 19.5209 54.8203 19.6359 54.9402 19.7222C55.1801 19.9235 55.42 20.1248 54.4004 19.8372C52.0614 19.0608 49.6623 18.3994 47.1733 18.0255C44.7743 17.5366 42.3453 17.3353 39.9462 17.4791C39.7963 17.4216 39.6164 17.3641 39.2865 17.3353L38.7467 17.3641C38.5668 17.3928 38.3869 17.4216 38.2069 17.4216L37.1274 17.5654C36.7375 17.5079 36.7375 17.3641 36.5876 17.2778C35.598 17.4216 34.6384 17.6229 33.6488 17.8817C32.8691 18.083 32.1194 17.3928 33.8587 16.8752C33.8887 16.8752 33.9186 16.8752 33.9186 16.8464C33.6787 16.7889 33.5888 16.7027 33.7387 16.5301C33.7987 16.4726 34.1286 16.3576 34.6084 16.2138C34.8483 16.1275 35.1182 16.0412 35.418 15.955C35.7179 15.8687 36.0478 15.7537 36.3777 15.6674C37.0674 15.5236 37.8171 15.3223 38.5068 15.1785C39.2265 15.0635 39.8862 14.9484 40.3661 14.8334C40.8459 14.7184 39.7063 14.6896 39.2265 14.5746C39.5564 14.5458 39.8563 14.4883 40.1262 14.4596C40.396 14.4308 40.606 14.402 40.7859 14.3733C41.1757 14.3445 41.4156 14.3158 41.5356 14.2583C41.7755 14.172 41.5356 14.1145 40.9658 14.0569C41.6256 14.0282 42.2553 13.9707 42.2553 13.9707C42.1054 13.9132 41.5956 13.7694 41.5956 13.7694C42.0454 13.7406 42.4652 13.7119 42.915 13.7119C43.3649 13.7119 43.8147 13.7119 44.2645 13.7119L44.9542 13.7119L45.6439 13.7694C46.0938 13.7981 46.5436 13.8269 47.0234 13.8844C48.8227 14.1145 50.6819 14.4308 52.4212 14.9197C53.3209 15.1497 54.1605 15.4373 55.0002 15.6961C55.8398 15.9837 56.6795 16.2713 57.4892 16.6164C59.1085 17.2491 60.6379 17.9392 62.0773 18.6007C62.7071 18.8882 63.5168 19.2908 64.3564 19.6935C65.1961 20.0961 66.0357 20.4987 66.7255 20.815C67.4152 21.1313 69.0046 21.6777 69.5743 21.9078C70.504 22.4542 70.294 22.5692 70.6239 22.8856C72.843 23.6908 76.3516 24.9849 79.2304 25.9626C82.1393 26.9691 84.4484 27.6881 84.2084 27.9469C85.1081 28.177 85.8278 28.3783 86.4575 28.5796C87.0873 28.7809 87.6271 28.9247 88.1968 29.0685C88.7366 29.241 89.3064 29.4136 89.9661 29.5286C90.296 29.5861 90.6559 29.6724 91.0457 29.7586C91.4355 29.8449 91.8554 29.9312 92.3652 29.9887C97.4631 30.8227 104.12 30.8802 110.508 29.6149C110.958 29.5286 111.378 29.4711 111.827 29.3848L112.487 29.2698L113.117 29.126C113.956 28.9247 114.826 28.7234 115.666 28.5221C115.876 28.4646 116.086 28.4358 116.296 28.3783L116.925 28.2057L118.185 27.8319L119.414 27.458L120.044 27.2855L120.644 27.0842C121.244 26.8829 121.843 26.6816 122.443 26.4803C123.043 26.279 123.613 26.1064 124.182 25.8764C130.24 23.6333 135.668 20.93 140.646 17.9968C145.624 15.0635 150.182 11.8426 154.5 8.39171C155.58 7.52898 156.629 6.63749 157.679 5.746C158.699 4.82576 159.748 3.90551 160.768 2.98527C161.278 2.49639 161.757 2.03627 162.267 1.54739L163.017 0.828445L163.197 0.655899L163.287 0.569626C163.317 0.540867 163.317 0.540867 163.437 0.454594C163.587 0.339562 163.766 0.195774 163.976 0.109501C164.216 0.0232279 164.486 -0.0342862 164.786 0.023228C165.386 0.0807423 165.896 0.512108 166.046 1.02975C166.196 1.51863 166.196 1.8062 166.136 2.03627ZM71.0737 26.3077C70.8938 26.394 70.7738 26.4228 70.6839 26.4803C71.7035 26.8829 72.6631 27.2855 73.6227 27.6881C75.2121 28.3208 76.7115 28.8959 78.1209 29.4135C75.8118 28.4645 73.4428 27.4005 71.0737 26.3077ZM70.5639 26.0777C70.0541 25.8476 69.5143 25.5888 68.9746 25.3587C68.9146 25.3587 68.8546 25.3587 68.8246 25.33C68.8246 25.33 68.8246 25.33 68.7946 25.33C68.8246 25.445 68.7946 25.56 68.7047 25.6751C69.1845 25.8764 69.6343 26.0489 70.1141 26.2502C70.2641 26.1927 70.384 26.1639 70.5639 26.0777ZM68.4948 25.7038C68.4648 25.7038 68.4348 25.7038 68.3748 25.7038C68.8846 25.9339 69.3644 26.1352 69.8442 26.3652C69.8742 26.3652 69.8742 26.3652 69.9042 26.3365C69.4544 26.1064 68.9746 25.9051 68.4948 25.7038ZM61.1477 23.2306C61.2677 23.1731 61.5076 23.2019 61.7475 23.2306C61.6575 23.2019 61.5975 23.1731 61.5076 23.1444C61.1177 23.2019 60.7579 23.2882 60.428 23.3744C60.7279 23.3169 60.9378 23.2882 61.1477 23.2306ZM62.5272 23.1444C62.6771 23.1156 63.007 23.0581 63.1869 23.0581C63.2469 23.0581 63.2769 23.0293 63.3068 23.0293C63.2169 23.0006 63.1269 22.9431 63.007 22.9143C62.7371 22.9431 62.4672 22.9718 62.2273 23.0006C62.3172 23.0581 62.4372 23.1156 62.5272 23.1444ZM87.5071 32.6344C88.6167 32.8645 87.897 32.7207 85.9178 32.2606C83.9385 31.8004 80.7298 30.8802 77.0413 29.3848C75.0321 28.5796 72.873 27.6306 70.444 26.5378C70.414 26.5378 70.414 26.5378 70.384 26.5665C72.873 27.6593 75.1221 28.6371 77.0113 29.3848C81.3596 31.1678 84.8682 32.1168 87.5071 32.6344ZM60.458 22.9718C59.2285 23.1156 58.3288 23.3169 57.6691 23.5182C57.3992 23.6045 57.5791 23.547 58.0889 23.432C58.5987 23.2882 59.4084 23.1156 60.458 22.9718C60.6379 22.9431 60.8178 22.9431 60.9978 22.9143L60.9678 22.9143C60.7879 22.9143 60.6079 22.9431 60.458 22.9718ZM61.8674 22.8568C62.1673 22.8568 62.4972 22.828 62.827 22.828C62.797 22.828 62.7671 22.7993 62.7371 22.7993C62.4072 22.7993 62.1073 22.828 61.8374 22.828C61.8074 22.8568 61.8374 22.8568 61.8674 22.8568Z"/>
</svg>
