<svg xmlns="http://www.w3.org/2000/svg" width="297" height="32" viewBox="0 0 297 32"><path d="M11.954 30.745l-3.382-.211V14.658c2.364-2.441 3.44-3.255 5.1-3.255 2.27 0 3.282 1.364 3.282 4.423v14.709l-2.579.212v.696h10.687v-.698l-3.383-.211V14.86c1.972-2.457 3.452-3.458 5.1-3.458 2.27 0 3.281 1.364 3.281 4.423v14.709l-2.577.212v.696h10.685v-.698l-3.383-.211V16.08c0-4.06-2.092-6.483-5.596-6.483-2.947 0-5.233 1.266-7.636 4.228h-.156c-.604-2.69-2.535-4.228-5.314-4.228-3.207 0-5.174 1.455-7.292 3.805h-.217V9.597h-.575l-7.017.422-.134.007v.699H3.85V30.53l-3.424.211v.7h11.53v-.697h-.002zm34.093-9.091c-3.036 1.075-6.141 2.574-6.141 5.546 0 2.835 1.982 4.666 5.047 4.666 2.5 0 4.13-.782 6.425-2.324h.238v2.324h.57l7.536-.43v-.7H56.34V15.191c0-3.609-2.498-5.595-7.033-5.595-4.478 0-8.556 2.445-8.556 5.13a2.429 2.429 0 0 0 2.426 2.426c1.763 0 2.552-1.196 2.552-2.383 0-1.137-.824-2.283-2.664-2.299v-.214c1.078-.918 3.12-1.657 4.593-1.657 2.7 0 3.959 1.298 3.959 4.085v5.098l-5.57 1.871zm5.57-1.143v8.164c-1.184.563-2.191.793-3.451.793-2.149 0-3.537-1.337-3.537-3.409 0-2.17.958-3.366 3.414-4.263l3.574-1.285zm20.785 10.234l-3.382-.211V17.507c1.285-2.865 2.274-4.507 3.295-5.47h.236c.184 1.917 1.52 2.791 2.711 2.791 1.25 0 2.595-.852 2.595-2.722 0-1.407-1.195-2.51-2.723-2.51-2.137 0-3.965 1.735-5.92 5.625h-.194V9.597h-.574l-7.018.422-.133.007v.699h3.002V30.53l-3.424.211v.7h11.53v-.697zM82.6 26.65c0 3.558 1.468 5.215 4.624 5.215 2.023 0 3.799-.446 5.939-1.493l.08-.039v-.723l-.197.08c-1.294.527-2.215.75-3.074.75-1.634 0-2.649-.677-2.649-4.044V10.938h5.92v-.92h-5.92V4.947h-.634l-4.018 5.078-3.199.216v.698h3.13V26.65H82.6zm24.168 4.095l-3.382-.211V14.658c2.417-2.494 3.675-3.255 5.356-3.255 2.323 0 3.453 1.446 3.453 4.423v14.709l-2.58.212v.696H120.3v-.698l-3.381-.211V16.08c0-4.06-2.092-6.483-5.596-6.483-2.904 0-5.215 1.138-7.713 3.805h-.223V.295h-.572l-7.018.422-.134.009v.699h3.003v29.107l-3.425.212v.699h11.528v-.698zm21.412-9.091c-3.037 1.075-6.14 2.574-6.14 5.546 0 2.835 1.98 4.666 5.047 4.666 2.5 0 4.13-.782 6.425-2.324h.24v2.324h.567l7.537-.43v-.7h-3.383V15.191c0-3.609-2.498-5.595-7.032-5.595-4.478 0-8.556 2.445-8.556 5.13a2.427 2.427 0 0 0 2.425 2.426c1.763 0 2.551-1.196 2.551-2.383 0-1.137-.824-2.283-2.664-2.299v-.214c1.08-.918 3.122-1.657 4.594-1.657 2.7 0 3.959 1.298 3.959 4.085v5.098l-5.57 1.871zm5.571-1.143v8.164c-1.185.563-2.19.793-3.453.793-2.148 0-3.536-1.337-3.536-3.409 0-2.17.959-3.366 3.416-4.263l3.573-1.285zm28.704-2.574c-2.123-.825-4.39-1.918-4.39-4.434 0-1.951 1.487-3.368 3.534-3.368 1.214 0 2.35.458 3.368 1.354 1.15 1.153 2.039 2.64 2.714 4.554l.033.094h.666v-6.75h-.695l-.199 2.034c-2.302-1.677-4.486-2.035-5.93-2.035-4.533 0-7.583 2.436-7.583 6.06 0 3.556 2.22 5.178 5.793 6.643 2.679 1.171 4.99 2.181 4.99 4.817 0 2.394-1.711 4.001-4.256 4.001-1.377 0-2.55-.58-3.487-1.729-.921-1.04-1.715-2.41-2.427-4.186l-.034-.088h-.662v6.75h.694l.2-2.16c1.407 1.021 3.599 2.16 6.352 2.16 4.89 0 8.175-2.655 8.175-6.608 0-3.963-3.243-5.624-6.856-7.109zm16.998-13.201h-.634l-4.018 5.078-3.2.215v.696h3.13v15.714c0 3.558 1.468 5.214 4.624 5.214 2.023 0 3.8-.446 5.94-1.493l.08-.038V29.4l-.197.08c-1.294.525-2.215.75-3.075.75-1.635 0-2.648-.678-2.648-4.044v-15.46h5.92V9.81h-5.92V4.736h-.002zm26.07 19.989c-.917 1.792-3.539 3.645-6.342 3.645-4.263 0-7.25-3.858-7.3-9.4h13.887l.02-.12c.148-.93.213-1.603.213-2.177 0-5.373-4.134-7.287-8.006-7.287-5.344 0-10.754 3.854-10.754 11.22 0 2.955.955 5.686 2.689 7.685 1.905 2.201 4.59 3.362 7.769 3.362 4.717 0 7.718-3.54 8.51-6.83l.042-.175h-.69l-.038.077zm-4.519-6.668l-9.03.206c.344-5.194 2.457-8.17 5.812-8.17 1.729 0 3.578 1.308 3.578 4.974-.002.89-.161 1.883-.36 2.99zm42.073-7.575V9.81h-8.149v.668l3.348 1.045-4.79 15.58h-.213l-5.033-16.387 3.414-.202.134-.005v-.7h-11.53v.696l2.574.213 1.604 4.73-3.633 11.654h-.216l-5.574-16.389 2.95-.207V9.81h-10.939v.695l2.535.214 7.578 20.63.034.094h3.038l4.09-12.909.545-1.743 4.976 14.557.033.095h3.039l6.307-19.896 3.773-1.037zm16.061 4.501c0-3.609-2.498-5.595-7.032-5.595-4.48 0-8.556 2.445-8.556 5.13a2.429 2.429 0 0 0 2.426 2.425c1.762 0 2.55-1.198 2.55-2.385 0-1.136-.824-2.283-2.664-2.297v-.215c1.08-.918 3.122-1.657 4.595-1.657 2.7 0 3.958 1.3 3.958 4.087v5.098l-5.57 1.869c-3.037 1.075-6.142 2.574-6.142 5.545 0 2.835 1.983 4.665 5.049 4.665 2.504 0 4.132-.783 6.424-2.324h.239v2.324h.568l7.404-.422.134-.007v-.697h-3.383V14.983zm-4.725 5.317v8.165c-1.185.562-2.19.793-3.453.793-2.148 0-3.535-1.339-3.535-3.41 0-2.169.958-3.365 3.416-4.263l3.572-1.285zm24.364-10.914c-2.14 0-3.965 1.735-5.922 5.624h-.195V9.386h-.57l-7.152.432v.696h3.002v19.808l-3.424.212v.696h11.528v-.696l-3.384-.212V17.294c1.285-2.865 2.277-4.507 3.297-5.47h.236c.183 1.917 1.52 2.791 2.71 2.791 1.25 0 2.593-.85 2.593-2.72.001-1.406-1.193-2.509-2.719-2.509zm18.193 1.34V9.81h-5.92V4.736h-.635l-4.019 5.078-3.197.215v.696h3.128v15.714c0 3.558 1.467 5.214 4.623 5.214 2.026 0 3.803-.446 5.94-1.493l.08-.038V29.4l-.197.08c-1.293.525-2.212.75-3.075.75-1.634 0-2.647-.678-2.647-4.044v-15.46h5.918z" fill-opacity=".95"></path></svg>