<svg xmlns="http://www.w3.org/2000/svg" width="80" height="32" viewBox="0 0 80 32">
                                    <path fill="#20B1EA" fill-rule="evenodd" d="M72.379 21.936c1.002.006 1.53-.946 1.735-2.143h5.485c-.69 8.351-12.24 8.418-13.25 1.795V25.9h-7.964v-4.359c-.695 4.263-3.133 4.85-4.202 4.847-.897-.003-3.094-.74-3.907-2.986l.078 2.446c.017 1.518.987 2.48 2.017 2.618v3.531L43.078 32v-3.534c.78-.022 2.03-.788 2.044-2.492v-6.4c-.285 1.609-1.477 6.812-7.193 6.812-5.664 0-6.945-5.495-7.188-6.3-1.058 5.986-5.039 6.316-6.787 6.294-3.14-.04-5.02-2.2-5.066-2.248-1.889-1.918-2.252-4.823-2.176-7.956 0-.63.161-1.855.218-2.457-2.032 2.183-3.915 1.91-6.15 1.994l-1.878-.004v3.58c-.002 1.44.527 2.3 2.134 2.312v4.305H0v-4.215c1.607-.012 2.158-.95 2.156-2.39V6.536c0-.305-.075-2.279-2.15-2.294V0h11.91c2.244 0 3.84.684 4.915 1.53 1.986 1.565 2.383 4.254 2.544 6.245 3.034-2.64 10.223-3.228 11.427 4.67 1.3-6.018 5.735-6.473 6.773-6.478 1.865-.006 5.049 1.12 6.082 4.165V6.378h6.524v2.415c.48-1.823 2.09-2.813 3.722-2.823 1.574-.01 4.797 1.738 5.624 8.391V5.502c-.007-1.277-.788-1.937-2.066-1.93L57.457.039h7.592v14.328c.692-6.347 4.234-8.378 7.216-8.378 3.027 0 5.174 1.688 6.273 3.848 1.408 2.763 1.308 5.684 1.223 7.577l-9.237.002c-.033.363.001.972.03 1.533.078 1.572.594 2.994 1.825 2.987zm-48.251 0c1.001.006 1.53-.935 1.735-2.133l4.811-.002c-.243-1.2-.272-1.453-.299-2.386l-8.102.001c-.033.363.002.972.03 1.533.078 1.572.594 2.994 1.825 2.987zm11.788-5.724c0 3.184.572 5.747 2.009 5.767 1.476.019 2.009-2.583 2.009-5.767 0-3.185-.572-5.746-2.01-5.766-1.397-.02-2.008 2.581-2.008 5.766zm-11.821-5.88c-1.231-.006-1.787 1.5-1.865 3.071-.026.533-.036.557 0 .955h3.651c.036-.398.027-.422 0-.955-.078-1.571-.556-3.077-1.786-3.07zm48.25.117c-1.231-.007-1.748 1.383-1.826 2.954-.026.533-.036.557 0 .955h3.651c.036-.398.026-.422 0-.955-.078-1.571-.595-2.96-1.825-2.954zM50.527 19.11c0 1.602.394 2.818 1.517 2.818 1.255 0 2.004-1.7 2.004-5.698 0-4.39-.677-5.896-1.856-5.948-1.142-.05-1.725.92-1.665 2.923v5.905zM8.92 10.89h1.548c1.4-.04 1.89-.884 1.89-3.027 0-1.949-.685-2.962-1.89-2.962H8.92v5.989z"></path>
                                </svg>