<svg width="167" height="37" viewBox="0 0 167 37" fill="none" xmlns="http://www.w3.org/2000/svg">
<path d="M150.516 19.8946C150.366 20.0384 150.486 20.5561 150.396 20.8436L150.246 20.7286C150.216 20.8436 150.126 21.0449 150.126 21.16C150.096 21.275 150.036 21.2175 149.976 21.1887C149.856 21.1312 149.766 21.0449 149.646 21.2175C149.466 21.6776 149.376 22.1665 149.346 22.6841C149.406 22.9429 149.466 23.173 149.526 23.4031C149.616 23.6331 149.706 23.8632 149.796 24.0933C149.886 24.0933 149.976 24.122 150.036 24.1795C150.096 24.2946 150.186 24.4383 150.246 24.5534C150.426 24.5821 150.606 24.5246 150.726 24.5534C151.086 24.4671 151.505 24.6396 151.835 24.6396C152.615 27.1991 154.624 29.0683 156.963 29.701C157.083 29.7585 157.203 29.8448 157.293 29.9023C157.533 29.9598 157.773 30.0173 158.013 30.0461L158.373 30.1036C158.493 30.1036 158.613 30.1036 158.763 30.1036C159.872 30.1324 161.012 29.8735 161.971 29.3559C162.961 28.8383 163.801 28.0906 164.46 27.1991C164.58 27.0265 164.7 26.8252 164.85 26.5664C164.91 26.4226 164.97 26.3076 165.06 26.1638C165.09 26.1063 165.12 26.02 165.15 25.9625L165.24 25.7324C165.3 25.5887 165.36 25.4449 165.42 25.3011C165.45 25.1573 165.51 25.0135 165.54 24.8697C165.63 24.5821 165.66 24.3521 165.72 24.1508C165.51 25.7612 164.73 27.3429 163.531 28.4932C162.331 29.6722 160.622 30.3337 158.942 30.3912C159.032 30.3912 159.122 30.4199 159.212 30.4199C161.012 30.3912 162.781 29.5572 164.04 28.2631C164.13 28.1481 164.25 28.0331 164.34 27.918C164.43 27.803 164.52 27.688 164.64 27.5442C164.46 27.803 164.25 28.0331 164.04 28.2631C163.501 28.8383 162.931 29.4134 162.151 29.8735C161.911 29.9886 161.611 30.1036 161.342 30.1899C161.042 30.2474 160.772 30.3337 160.502 30.3912C160.292 30.4199 160.052 30.4487 159.842 30.4487C159.632 30.4487 159.422 30.4199 159.212 30.4199C158.942 30.4487 158.673 30.4199 158.403 30.3912C158.313 30.3912 158.253 30.3912 158.163 30.3912C158.193 30.4199 158.253 30.4487 158.343 30.5062C158.433 30.535 158.523 30.5637 158.673 30.5925C158.793 30.6212 158.942 30.65 159.122 30.6788C159.302 30.6788 159.482 30.7075 159.662 30.7075C160.442 30.7075 161.491 30.5637 162.451 30.1036C163.411 29.6722 164.28 28.9821 164.85 28.3206C165.12 27.9755 165.39 27.6592 165.54 27.4004C165.63 27.2566 165.69 27.1416 165.75 27.0265C165.81 26.9115 165.84 26.8252 165.87 26.7677C166.05 26.3076 166.08 25.8475 166.11 25.3874C166.11 25.1573 166.11 24.9272 166.11 24.6684C166.11 24.4383 166.11 24.1795 166.11 23.9495C166.11 23.6044 166.23 23.3456 166.14 23.0867C166.08 23.058 166.02 22.9429 165.99 22.7992C165.96 22.6266 165.99 22.4828 165.96 22.3103C165.96 22.1377 165.93 21.9939 165.93 21.8214C165.93 21.5051 165.84 21.2175 165.69 20.9874C165.63 20.8149 165.72 20.441 165.81 20.0959C165.9 19.7221 165.93 19.4058 165.84 19.4058C165.48 19.4058 165.45 19.4058 165.45 19.2907C165.45 19.2332 165.45 19.1757 165.45 19.0607C165.51 18.9456 165.48 18.7731 165.36 18.5718C165.33 18.5143 165.24 18.4568 165.12 18.3705C165 18.2842 164.88 18.2267 164.82 18.1117C164.76 17.9391 164.67 17.8241 164.58 17.7091C164.49 17.594 164.4 17.5365 164.31 17.4502C164.22 17.364 164.1 17.3064 163.98 17.1914C163.86 17.1339 163.741 17.0189 163.561 16.9038C163.321 16.7313 163.111 16.5875 162.931 16.4437C162.781 16.2999 162.631 16.1849 162.481 16.0699C162.331 15.9548 162.181 15.8686 162.001 15.7823C161.821 15.696 161.581 15.6385 161.312 15.6097C161.252 15.6097 160.802 15.466 160.352 15.4084C160.142 15.3797 159.932 15.3509 159.752 15.3222C159.602 15.3222 159.482 15.3222 159.482 15.3222C159.332 15.2934 159.182 15.2646 159.032 15.2359C158.882 15.2071 158.733 15.2071 158.613 15.2071C158.343 15.1784 158.073 15.2071 157.833 15.2359C157.593 15.2359 157.353 15.2646 157.113 15.2646C156.993 15.2646 156.873 15.2359 156.753 15.2359C156.633 15.2359 156.483 15.2071 156.364 15.1784C155.824 15.466 155.194 15.696 154.564 15.9836C153.934 16.2712 153.305 16.645 152.885 17.1051C152.675 17.3352 152.525 17.5365 152.345 17.7091C152.195 17.8816 152.015 18.0541 151.865 18.1979C151.565 18.5143 151.206 18.7731 150.876 19.262C150.696 19.492 150.666 19.7508 150.516 19.8946Z"/>
<path d="M146.169 28.407C146.139 28.2345 146.169 28.0907 146.139 27.9181C146.139 27.7456 146.109 27.6018 146.109 27.4292C146.109 27.1129 146.019 26.8253 145.869 26.5953C145.809 26.4227 145.899 26.0489 145.989 25.7038C146.079 25.3299 146.109 25.0136 146.019 25.0136C145.659 25.0136 145.629 25.0136 145.629 24.8986C145.629 24.841 145.629 24.7835 145.629 24.6685C145.599 24.5535 145.569 24.4097 145.479 24.2084C145.449 24.1509 145.359 24.0933 145.239 24.0071C145.119 23.9208 144.999 23.8633 144.939 23.7483C144.879 23.5757 144.789 23.4607 144.699 23.3456C144.609 23.2306 144.519 23.1731 144.429 23.0868C144.339 23.0006 144.219 22.943 144.099 22.828C143.979 22.7417 143.829 22.6555 143.68 22.5117C143.44 22.3391 143.23 22.1953 143.05 22.0516C142.9 21.9078 142.75 21.7927 142.6 21.6777C142.45 21.5627 142.3 21.4764 142.12 21.3901C141.94 21.3039 141.7 21.2463 141.43 21.2176C141.37 21.2176 140.921 21.0738 140.471 21.0163C140.261 20.9875 140.051 20.9588 139.871 20.93C139.721 20.93 139.601 20.93 139.601 20.93C139.451 20.9012 139.301 20.8725 139.151 20.8437C139.001 20.815 138.851 20.815 138.732 20.815C138.462 20.7862 138.192 20.815 137.952 20.8437C137.712 20.8437 137.472 20.8725 137.232 20.8725C137.112 20.8725 136.992 20.8437 136.872 20.8437C136.752 20.8437 136.602 20.815 136.482 20.7862C135.943 21.0738 135.313 21.3039 134.683 21.5914C134.053 21.879 133.424 22.2529 133.004 22.713C132.794 22.943 132.644 23.1443 132.464 23.3169C132.314 23.4894 132.134 23.662 131.984 23.8058C131.684 24.1221 131.324 24.3809 130.995 24.8698C130.815 25.1574 130.785 25.3874 130.635 25.5312C130.485 25.675 130.605 26.1927 130.515 26.4802L130.365 26.3652C130.335 26.4802 130.245 26.6815 130.245 26.7966C130.215 26.9116 130.155 26.8541 130.095 26.8253C129.975 26.7678 129.885 26.6815 129.765 26.8541C129.585 27.3142 129.495 27.8031 129.465 28.3207C129.525 28.5795 129.585 28.8096 129.645 29.0397C129.735 29.2697 129.825 29.4998 129.915 29.7298C130.005 29.7298 130.095 29.7586 130.155 29.8161C130.215 29.9312 130.305 30.0749 130.365 30.19C130.545 30.2187 130.725 30.1612 130.845 30.19C131.205 30.1037 131.624 30.2762 131.954 30.2762C132.734 32.8357 134.743 34.7049 137.082 35.3376C137.202 35.3951 137.322 35.4814 137.412 35.5389C137.652 35.5964 137.892 35.6539 138.132 35.6827L138.492 35.7402C138.612 35.7402 138.732 35.7402 138.881 35.7402C139.991 35.769 141.131 35.5101 142.09 34.9925C143.08 34.4749 143.919 33.7272 144.579 32.8357C144.699 32.6631 144.819 32.4618 144.969 32.203C145.029 32.0592 145.089 31.9442 145.179 31.8004C145.209 31.7429 145.239 31.6566 145.269 31.5991L145.359 31.369C145.419 31.2253 145.479 31.0815 145.539 30.9377C145.569 30.7939 145.629 30.6501 145.659 30.5063C145.749 30.2187 145.779 29.9887 145.839 29.7874C145.629 31.3978 144.849 32.9795 143.65 34.1298C142.45 35.3088 140.741 35.9703 139.061 36.0278C139.151 36.0278 139.241 36.0565 139.331 36.0565C141.131 36.0278 142.9 35.1938 144.159 33.8997C144.249 33.7847 144.369 33.6697 144.459 33.5546C144.549 33.4396 144.639 33.3246 144.759 33.1808C144.579 33.4396 144.369 33.6697 144.159 33.8997C143.62 34.4749 143.05 35.05 142.27 35.5101C142.03 35.6252 141.73 35.7402 141.46 35.8265C141.161 35.884 140.891 35.9703 140.621 36.0278C140.411 36.0565 140.171 36.0853 139.961 36.0853C139.751 36.0853 139.541 36.0565 139.331 36.0565C139.061 36.0853 138.791 36.0565 138.522 36.0278C138.432 36.0278 138.372 36.0278 138.282 36.0278C138.312 36.0565 138.372 36.0853 138.462 36.1428C138.552 36.1716 138.642 36.2003 138.791 36.2291C138.911 36.2578 139.061 36.2866 139.241 36.3154C139.421 36.3154 139.601 36.3441 139.781 36.3441C140.561 36.3441 141.61 36.2003 142.57 35.7402C143.53 35.3088 144.399 34.6187 144.969 33.9572C145.239 33.6121 145.509 33.2958 145.659 33.037C145.749 32.8932 145.809 32.7782 145.869 32.6631C145.929 32.5481 145.959 32.4618 145.989 32.4043C146.169 31.9442 146.198 31.4841 146.228 31.0239C146.228 30.7939 146.228 30.5638 146.228 30.305C146.228 30.0749 146.228 29.8161 146.228 29.5861C146.228 29.241 146.348 28.9822 146.258 28.7233C146.288 28.6371 146.228 28.522 146.169 28.407Z"/>
<path d="M134.653 10.0595C134.743 10.0595 134.833 10.0883 134.893 10.1458C134.953 10.2608 135.043 10.4046 135.103 10.5196C135.283 10.5484 135.463 10.4909 135.583 10.5196C135.943 10.4334 136.362 10.6059 136.692 10.6059C137.472 13.1653 139.481 15.0346 141.82 15.6673C141.94 15.7248 142.06 15.811 142.15 15.8686C142.39 15.9261 142.63 15.9836 142.87 16.0124L143.23 16.0699C143.35 16.0699 143.47 16.0699 143.619 16.0699C144.729 16.0986 145.869 15.8398 146.828 15.3222C147.818 14.8045 148.657 14.0568 149.317 13.1653C149.437 12.9928 149.557 12.7915 149.707 12.5327C149.767 12.3889 149.827 12.2739 149.917 12.1301C149.947 12.0726 149.977 11.9863 150.007 11.9288L150.097 11.6987C150.157 11.5549 150.217 11.4111 150.277 11.2673C150.307 11.1235 150.367 10.9798 150.397 10.836C150.487 10.5484 150.517 10.3183 150.577 10.117C150.367 11.7275 149.587 13.3091 148.388 14.4594C147.188 15.6385 145.509 16.2999 143.799 16.3574C143.889 16.3574 143.979 16.3862 144.069 16.3862C145.869 16.3287 147.638 15.5235 148.897 14.2006C148.987 14.0856 149.107 13.9706 149.197 13.8555C149.287 13.7405 149.377 13.6255 149.497 13.4817C149.317 13.7405 149.107 13.9706 148.897 14.2006C148.358 14.7758 147.788 15.3509 147.008 15.811C146.768 15.9261 146.468 16.0411 146.198 16.1274C145.899 16.1849 145.629 16.2712 145.359 16.3287C145.149 16.3574 144.909 16.3862 144.699 16.3862C144.489 16.3862 144.279 16.3574 144.069 16.3574C143.799 16.3862 143.53 16.3574 143.26 16.3287C143.17 16.3287 143.11 16.3287 143.02 16.3287C143.05 16.3574 143.11 16.3862 143.2 16.4437C143.29 16.4725 143.38 16.5012 143.53 16.53C143.649 16.5587 143.799 16.5875 143.979 16.6163C144.159 16.6163 144.339 16.645 144.519 16.645C145.299 16.645 146.348 16.4725 147.308 16.0411C148.268 15.6097 149.137 14.9196 149.707 14.2581C149.977 13.913 150.247 13.5967 150.397 13.3379C150.487 13.1941 150.547 13.0791 150.607 12.964C150.667 12.849 150.697 12.7627 150.727 12.7052C150.907 12.2451 150.937 11.785 150.967 11.3249C150.967 11.0948 150.967 10.8647 150.967 10.6059C150.967 10.3758 150.967 10.117 150.967 9.88697C150.967 9.54187 151.086 9.28306 150.997 9.02424C150.937 8.99548 150.877 8.88045 150.847 8.73666C150.817 8.56411 150.847 8.42033 150.817 8.24778C150.817 8.07523 150.787 7.93144 150.787 7.7589C150.787 7.44256 150.697 7.15499 150.547 6.92493C150.487 6.75238 150.577 6.37853 150.667 6.03344C150.757 5.65959 150.787 5.34325 150.697 5.34325C150.337 5.34325 150.307 5.34326 150.307 5.22823C150.307 5.17071 150.307 5.11319 150.307 4.99816C150.277 4.88313 150.247 4.73934 150.157 4.53804C150.127 4.48053 150.037 4.42301 149.917 4.33674C149.797 4.25046 149.677 4.19295 149.617 4.07792C149.557 3.90537 149.467 3.79034 149.377 3.67531C149.287 3.56028 149.197 3.50276 149.107 3.41649C149.017 3.33022 148.897 3.2727 148.777 3.15767C148.657 3.0714 148.508 2.98513 148.358 2.84134C148.118 2.66879 147.908 2.525 147.728 2.38121C147.578 2.23743 147.428 2.12239 147.278 2.00736C147.128 1.89233 146.978 1.80606 146.798 1.71979C146.618 1.63351 146.378 1.576 146.108 1.54724C146.049 1.54724 145.599 1.40345 145.149 1.34594C144.939 1.31718 144.729 1.28842 144.549 1.25966C144.399 1.25966 144.279 1.25966 144.279 1.25966C144.129 1.23091 143.979 1.20215 143.829 1.17339C143.679 1.14463 143.53 1.14463 143.41 1.14463C143.14 1.11588 142.87 1.14463 142.63 1.17339C142.39 1.17339 142.15 1.20215 141.91 1.20215C141.79 1.20215 141.67 1.17339 141.55 1.17339C141.43 1.17339 141.28 1.14463 141.16 1.11588C140.621 1.40345 139.991 1.63351 139.361 1.92109C138.731 2.20867 138.102 2.58252 137.682 3.04264C137.472 3.2727 137.322 3.474 137.142 3.64655C136.992 3.8191 136.812 3.99164 136.662 4.13543C136.362 4.45176 136.003 4.71058 135.673 5.19946C135.493 5.48704 135.463 5.7171 135.313 5.86089C135.163 6.00468 135.283 6.52232 135.193 6.80989L135.043 6.69486C135.013 6.80989 134.923 7.0112 134.923 7.12623C134.893 7.24126 134.833 7.18374 134.773 7.15499C134.653 7.09747 134.563 7.0112 134.443 7.18374C134.263 7.64387 134.173 8.13275 134.143 8.65038C134.203 8.9092 134.263 9.13926 134.323 9.36933C134.473 9.59939 134.563 9.82945 134.653 10.0595Z"/>
<path d="M0.0374853 2.03613C0.0674732 2.15116 0.0974501 2.26619 0.157426 2.38122C0.217402 2.46749 0.24739 2.58252 0.307366 2.6688C0.367342 2.75507 0.427328 2.81258 0.487304 2.89886L0.577264 2.98513L0.757185 3.18643L1.14704 3.56028C1.65684 4.04916 2.16663 4.5668 2.67642 5.05568L3.06626 5.42953L3.4561 5.80338C3.72599 6.03344 3.99589 6.29226 4.26578 6.52233C4.80556 7.01121 5.34535 7.50009 5.88513 7.98897C6.4549 8.44909 7.02467 8.93797 7.56445 9.42685C7.83434 9.65691 8.13423 9.91573 8.43411 10.1458C8.73399 10.3759 9.03386 10.6059 9.30375 10.836C9.90351 11.2961 10.5033 11.7562 11.103 12.2451C11.7028 12.734 12.3325 13.1653 12.9623 13.6255C13.592 14.0856 14.2218 14.5457 14.8515 14.9771C15.5113 15.4084 16.171 15.8686 16.8307 16.2999C17.1606 16.53 17.4905 16.7601 17.8203 16.9614L18.8399 17.594C19.5296 18.0254 20.2194 18.4568 20.8791 18.8881C21.5688 19.2907 22.2586 19.6933 22.9783 20.1247L24.0278 20.7286L25.1074 21.3038L27.2365 22.4828C27.9563 22.8567 28.676 23.2305 29.3957 23.5756C30.8351 24.3233 32.3345 24.9848 33.8039 25.6749C36.7727 26.9978 39.7715 28.2344 42.8603 29.2984L43.9998 29.701L44.5696 29.9023L45.1393 30.0749C45.919 30.3049 46.6687 30.5637 47.4484 30.7938L48.0182 30.9663L48.588 31.1389L49.7575 31.4552L50.927 31.7716C51.3169 31.8866 51.7067 31.9729 52.0965 32.0591C58.334 33.6121 64.6915 34.3885 70.839 34.0147C73.8978 33.8421 76.9266 33.4108 79.7754 32.7493C82.6543 32.0879 85.4132 31.1677 87.9921 30.1611C90.901 29.0108 93.6598 27.803 96.3288 26.624C96.4187 26.624 96.5387 26.624 96.6287 26.624C96.7486 26.624 96.8686 26.6239 97.0185 26.5952C97.1684 26.5664 97.3184 26.5664 97.6183 26.4802C97.3484 26.5377 97.1984 26.5089 97.0485 26.5089C96.9285 26.5089 96.8386 26.4802 96.7186 26.4514C97.3784 26.1638 98.0081 25.8763 98.6678 25.5887C98.8178 25.5887 98.9677 25.5887 99.0877 25.6174C99.2076 25.6749 98.9977 25.8763 98.9077 26.0488C99.5375 25.9338 99.5975 26.1063 99.3875 26.3076C99.5375 26.3076 99.6874 26.2789 99.6874 26.2789C99.6574 26.3364 99.5975 26.5377 99.5975 26.5377C100.377 26.5089 101.217 26.5377 102.026 26.5952C102.836 26.6527 103.616 26.6815 104.366 26.5952C104.695 26.5952 105.235 26.4802 105.595 26.4514C105.775 26.4226 106.165 26.5664 106.285 26.5952C106.555 26.4802 106.555 26.3076 106.675 26.1351C107.214 26.2789 108.084 26.5664 108.804 26.7677C109.523 26.969 110.093 27.0553 110.153 26.7677C111.023 27.0553 111.293 26.854 112.192 27.1991C112.792 27.4292 113.422 27.7167 114.052 28.0906C114.681 28.4644 115.251 28.9246 115.701 29.4422C116.211 29.9886 116.481 30.6788 116.541 31.3115C116.541 31.4552 116.571 31.599 116.571 31.7428C116.571 31.8866 116.571 32.0016 116.571 32.1167C116.571 32.433 116.511 32.6343 116.361 32.8931C116.301 33.0082 116.211 33.1232 116.121 33.2382C116.061 33.2957 116.031 33.3532 115.971 33.4108L115.851 33.5258C115.521 33.8421 115.101 34.0722 114.681 34.0147C114.471 33.9859 114.292 33.8709 114.142 33.6983C114.022 33.5258 113.962 33.3245 113.932 33.1519C113.932 33.0944 113.962 33.1232 113.782 32.8356C113.662 32.6631 113.512 32.548 113.422 32.433C113.182 32.2605 112.972 32.1167 112.762 32.0304C112.522 31.9154 112.312 31.8291 111.952 31.7716C111.833 31.7716 111.743 31.7428 111.503 31.7716C111.383 31.8003 111.233 31.8291 111.023 31.9441C110.933 32.0016 110.783 32.1454 110.723 32.2605C110.693 32.318 110.633 32.4042 110.603 32.4618C110.603 32.4905 110.573 32.548 110.573 32.5768L110.573 32.6055L110.513 32.9794L110.483 33.1519L110.483 33.3532C110.483 33.497 110.483 33.6121 110.483 33.7559C110.543 34.0147 110.573 34.2735 110.693 34.5323C110.903 35.0212 111.263 35.4526 111.683 35.7401L111.833 35.8552L111.982 35.9414C112.072 35.999 112.192 36.0565 112.282 36.114C112.492 36.2003 112.702 36.3153 112.912 36.3728C113.332 36.5453 113.782 36.6029 114.232 36.6604C115.101 36.7467 116.001 36.6891 116.9 36.4016C117.35 36.2578 117.77 36.0565 118.19 35.7976C118.61 35.5101 118.97 35.1362 119.27 34.7049C119.539 34.2447 119.719 33.7271 119.749 33.2382C119.779 33.1232 119.749 32.9794 119.749 32.8644C119.749 32.7493 119.749 32.6055 119.719 32.4905C119.689 32.2605 119.659 32.0016 119.569 31.8003C119.33 30.9088 118.88 30.1611 118.4 29.4422C117.44 28.0618 116.211 26.8253 114.861 25.8763C112.132 23.9207 108.924 22.9717 106.015 22.5979C105.955 22.5979 105.865 22.5691 105.805 22.5691C108.924 21.3325 111.893 20.3548 114.651 19.6646C118.4 18.7156 121.759 18.3417 124.487 18.3417C124.667 18.3417 124.817 18.3417 124.997 18.3417C125.177 18.3417 125.327 18.3417 125.477 18.3705C125.807 18.3993 126.107 18.3993 126.437 18.3993C126.737 18.428 127.036 18.4568 127.336 18.4855C127.636 18.5143 127.906 18.5431 128.176 18.5718C129.226 18.7156 130.125 18.8881 130.875 19.0319L131.745 19.1757L132.254 19.262C132.584 19.3195 132.944 19.3195 133.364 19.2045C133.454 19.1757 133.574 19.1182 133.694 19.0894C133.784 19.0319 133.934 18.9457 134.054 18.8881C134.114 18.8594 134.204 18.7731 134.264 18.7156C134.324 18.6293 134.383 18.6006 134.443 18.4855C134.563 18.2842 134.653 18.0829 134.683 17.8529C134.743 17.364 134.563 16.9901 134.413 16.7601L134.353 16.6738C134.324 16.645 134.324 16.645 134.294 16.6163L134.174 16.5013L134.054 16.3862C134.024 16.3575 133.994 16.3287 133.964 16.3C133.904 16.2424 133.844 16.2137 133.754 16.1562C133.694 16.1274 133.634 16.0987 133.574 16.0699L133.394 15.9836L133.244 15.9261C133.034 15.8398 132.854 15.7823 132.674 15.7248C132.974 15.8398 133.304 15.9549 133.724 16.2424C133.844 16.3287 133.934 16.3862 134.084 16.5588C134.144 16.645 134.204 16.7026 134.294 16.8176C134.353 16.9326 134.413 17.0477 134.473 17.249C134.503 17.3352 134.503 17.4215 134.533 17.5365C134.533 17.6516 134.533 17.7666 134.503 17.8816C134.473 17.9967 134.443 18.0829 134.413 18.198C134.353 18.2842 134.324 18.3993 134.264 18.4568C134.024 18.7444 133.754 18.8881 133.544 18.9457C133.124 19.0894 132.764 19.0894 132.404 19.0319L132.284 19.0032L132.164 18.9744L132.044 18.9457C131.954 18.9169 131.894 18.8881 131.805 18.8881C131.475 18.8019 131.115 18.6868 130.755 18.6006C129.286 18.2555 127.546 17.9679 125.627 17.9104C123.708 17.8241 121.609 17.9391 119.419 18.2555C117.23 18.5718 114.981 19.0894 112.732 19.7509C110.153 20.4986 107.574 21.4476 105.085 22.4541C104.815 22.4253 104.545 22.4253 104.306 22.3966C105.415 21.9652 107.454 20.8437 109.014 20.2398L108.654 20.5561C109.224 20.3548 110.333 19.8947 110.903 19.7221C111.473 19.5208 111.353 19.6358 111.233 19.7221C110.993 19.9234 110.753 20.1247 111.773 19.8371C114.112 19.0607 116.511 18.3993 119 18.0254C121.399 17.5365 123.828 17.3352 126.227 17.479C126.377 17.4215 126.557 17.364 126.886 17.3352L127.426 17.364C127.606 17.3927 127.786 17.4215 127.966 17.4215L129.046 17.5653C129.435 17.5078 129.435 17.364 129.585 17.2777C130.575 17.4215 131.535 17.6228 132.524 17.8816C133.304 18.0829 134.054 17.3927 132.314 16.8751C132.284 16.8751 132.254 16.8751 132.254 16.8463C132.494 16.7888 132.584 16.7026 132.434 16.53C132.374 16.4725 132.044 16.3575 131.565 16.2137C131.325 16.1274 131.055 16.0411 130.755 15.9549C130.455 15.8686 130.125 15.7536 129.795 15.6673C129.106 15.5235 128.356 15.3222 127.666 15.1784C126.946 15.0634 126.287 14.9483 125.807 14.8333C125.327 14.7183 126.467 14.6895 126.946 14.5745C126.617 14.5457 126.317 14.4882 126.047 14.4595C125.777 14.4307 125.567 14.4019 125.387 14.3732C124.997 14.3444 124.757 14.3157 124.637 14.2582C124.397 14.1719 124.637 14.1144 125.207 14.0569C124.547 14.0281 123.918 13.9706 123.918 13.9706C124.068 13.9131 124.577 13.7693 124.577 13.7693C124.128 13.7405 123.708 13.7118 123.258 13.7118C122.808 13.7118 122.358 13.7118 121.908 13.7118L121.219 13.7118L120.529 13.7693C120.079 13.798 119.629 13.8268 119.15 13.8843C117.35 14.1144 115.491 14.4307 113.752 14.9196C112.852 15.1496 112.012 15.4372 111.173 15.696C110.333 15.9836 109.493 16.2712 108.684 16.6163C107.064 17.249 105.535 17.9391 104.096 18.6006C103.466 18.8881 102.656 19.2907 101.817 19.6934C100.977 20.096 100.137 20.4986 99.4475 20.8149C98.7578 21.1312 97.1684 21.6776 96.5987 21.9077C95.669 22.4541 95.879 22.5691 95.5491 22.8855C93.33 23.6907 89.8214 24.9848 86.9425 25.9625C84.0337 26.969 81.7246 27.688 81.9645 27.9468C81.0649 28.1769 80.3452 28.3782 79.7154 28.5795C79.0857 28.7808 78.5459 28.9246 77.9762 29.0683C77.4364 29.2409 76.8666 29.4134 76.2069 29.5285C75.877 29.586 75.5171 29.6723 75.1273 29.7585C74.7375 29.8448 74.3176 29.9311 73.8078 29.9886C68.7099 30.8226 62.0526 30.8801 55.6651 29.6147C55.2153 29.5285 54.7955 29.471 54.3456 29.3847L53.6859 29.2696L53.0562 29.1259C52.2165 28.9246 51.3469 28.7233 50.5072 28.5219C50.2973 28.4644 50.0874 28.4357 49.8774 28.3782L49.2477 28.2056L47.9882 27.8318L46.7587 27.4579L46.1289 27.2854L45.5292 27.0841C44.9294 26.8828 44.3297 26.6815 43.7299 26.4802C43.1302 26.2788 42.5604 26.1063 41.9906 25.8762C35.9331 23.6331 30.5052 20.9299 25.5272 17.9966C20.5492 15.0634 15.9911 11.8425 11.6728 8.39158C10.5932 7.52884 9.54367 6.63736 8.49409 5.74587C7.4745 4.82562 6.42491 3.90538 5.40532 2.98513C4.89552 2.49625 4.41571 2.03613 3.90592 1.54725L3.15622 0.828306L2.9763 0.655761L2.88634 0.569487C2.85635 0.540729 2.85635 0.540729 2.7364 0.454456C2.58646 0.339425 2.40654 0.195637 2.19662 0.109364C1.95672 0.0230913 1.68682 -0.034425 1.38694 0.0230903C0.787184 0.0806055 0.277385 0.51197 0.127446 1.02961C-0.0224942 1.51849 -0.0224906 1.80607 0.0374853 2.03613ZM95.0993 26.3076C95.2792 26.3939 95.3991 26.4226 95.4891 26.4802C94.4695 26.8828 93.5099 27.2854 92.5503 27.688C90.9609 28.3207 89.4615 28.8958 88.0521 29.4134C90.3612 28.4644 92.7302 27.4004 95.0993 26.3076ZM95.6091 26.0776C96.1189 25.8475 96.6586 25.5887 97.1984 25.3586C97.2584 25.3586 97.3184 25.3586 97.3484 25.3299C97.3484 25.3299 97.3484 25.3299 97.3784 25.3299C97.3484 25.4449 97.3784 25.5599 97.4683 25.6749C96.9885 25.8763 96.5387 26.0488 96.0589 26.2501C95.9089 26.1926 95.789 26.1638 95.6091 26.0776ZM97.6782 25.7037C97.7082 25.7037 97.7382 25.7037 97.7982 25.7037C97.2884 25.9338 96.8086 26.1351 96.3288 26.3651C96.2988 26.3651 96.2988 26.3651 96.2688 26.3364C96.7186 26.1063 97.1984 25.905 97.6782 25.7037ZM105.025 23.2305C104.905 23.173 104.665 23.2018 104.426 23.2305C104.515 23.2018 104.575 23.173 104.665 23.1443C105.055 23.2018 105.415 23.2881 105.745 23.3743C105.445 23.3168 105.235 23.2881 105.025 23.2305ZM103.646 23.1443C103.496 23.1155 103.166 23.058 102.986 23.058C102.926 23.058 102.896 23.0292 102.866 23.0292C102.956 23.0005 103.046 22.943 103.166 22.9142C103.436 22.943 103.706 22.9717 103.946 23.0005C103.856 23.058 103.736 23.1155 103.646 23.1443ZM78.6659 32.6343C77.5563 32.8644 78.276 32.7206 80.2552 32.2605C82.2344 31.8003 85.4431 30.8801 89.1317 29.3847C91.1409 28.5795 93.3 27.6305 95.729 26.5377C95.759 26.5377 95.759 26.5377 95.789 26.5664C93.3 27.6592 91.0509 28.637 89.1617 29.3847C84.8134 31.1677 81.3048 32.1167 78.6659 32.6343ZM105.715 22.9717C106.945 23.1155 107.844 23.3168 108.504 23.5181C108.774 23.6044 108.594 23.5469 108.084 23.4319C107.574 23.2881 106.765 23.1155 105.715 22.9717C105.535 22.943 105.355 22.943 105.175 22.9142L105.205 22.9142C105.385 22.9142 105.565 22.943 105.715 22.9717ZM104.306 22.8567C104.006 22.8567 103.676 22.8279 103.346 22.8279C103.376 22.8279 103.406 22.7992 103.436 22.7992C103.766 22.7992 104.066 22.8279 104.336 22.8279C104.366 22.8567 104.336 22.8567 104.306 22.8567Z"/>
</svg>
