<svg id="logo-vca" viewBox="0 0 202 63.157"><title>logo-vca</title><g fill="#fff"><path d="M30.7 36.868a3.318 3.318 0 0 0-2.341 1.376 9.625 9.625 0 0 1-7.389 3.418c-5.361 0-9.56-4.456-9.56-10.144a10.032 10.032 0 0 1 9.849-10.183 9.094 9.094 0 0 1 6.388 2.654 3.717 3.717 0 0 0 2.4 1.243 2.261 2.261 0 0 0 2.388-2.482c0-2.135-5.173-6.488-11.176-6.488A15.093 15.093 0 0 0 6.377 31.518a15.5 15.5 0 0 0 4.276 10.754c3.055 1.307 15.089 2.09 18.18 2.084 2.557-1.614 4.215-3.684 4.215-5.008a2.391 2.391 0 0 0-2.353-2.48M169.957 23.515a2.447 2.447 0 0 0-1.618-.581 2.4 2.4 0 0 0-1.544.541 2.691 2.691 0 0 0-.891 1.644 6.288 6.288 0 0 0-.08 1.113v16.742l1.082-.038c.133 0 .26-.009.386-.014l.65-.024c.46-.014.92-.028 1.37-.047l.419.415 1.194-.052V26.165a4.644 4.644 0 0 0-.217-1.509 2.607 2.607 0 0 0-.752-1.141M168.585 15.236a2.8 2.8 0 1 0 0 5.6h.01a2.8 2.8 0 1 0-.01-5.6M195.832 29.815c-.406-1.636-1.125-3.756-2.222-4.55a12.017 12.017 0 0 0-7.423-2.193 24.69 24.69 0 0 0-6.239.856 11.242 11.242 0 0 0-2.5.97 3.993 3.993 0 0 0-.984.753 2.2 2.2 0 0 0-.618 1.5 2.656 2.656 0 0 0 .537 1.614 2.343 2.343 0 0 0 1.866.922 7.3 7.3 0 0 0 2.2-.475l.16-.05a16.359 16.359 0 0 1 5.573-.969 8.464 8.464 0 0 1 2.79.39 4.4 4.4 0 0 1 1.323.721 1.506 1.506 0 0 1 .589.916 20.526 20.526 0 0 1 .112 2.4 14.563 14.563 0 0 0-6.76-1.686 12.29 12.29 0 0 0-7.654 2.436 8.263 8.263 0 0 0-3.2 6.04l-.038.64 1.141.077c.141.012.278.02.413.028l1.981.15 1.55.122.051-.651a3.431 3.431 0 0 1 1.488-2.447 7.041 7.041 0 0 1 4.227-1.273 12.2 12.2 0 0 1 6.809 2.359v3.226l1.569.179q1.118.131 2.127.258l1.42.179-.01-8.857a14.9 14.9 0 0 0-.28-3.593M160.277 26.973l-.092-.113a8.437 8.437 0 0 0-2.749-2.133 11.068 11.068 0 0 0-4.839-.95 18.266 18.266 0 0 0-8.353 2.131 5.142 5.142 0 0 0-.394-.6 3.742 3.742 0 0 0-.919-.873 2.459 2.459 0 0 0-1.35-.424 2.546 2.546 0 0 0-1.63.642 2.494 2.494 0 0 0-.847 1.852 2.8 2.8 0 0 0 .191.978c.06.166.132.333.21.517l.42 1.044a15.608 15.608 0 0 1 .263 3.922V39.1l.616-.009c.157 0 .313-.006.47-.008h.4c.42 0 .844-.008 1.271-.009l.842-.006h1.5v-7.556a14.938 14.938 0 0 1 3.109-1.7 11.616 11.616 0 0 1 4.246-.714 6.5 6.5 0 0 1 2.267.338 3.763 3.763 0 0 1 1.464.964 2.689 2.689 0 0 1 .652 1.464 15.554 15.554 0 0 1 .125 2.524v4.872l1.515.044c.711.026 1.419.052 2.122.083l1.467.064v-5.066a18.9 18.9 0 0 0-.277-4.019 7.626 7.626 0 0 0-1.7-3.39M136.283 25.845l-.129-.2-.236-.2a9.418 9.418 0 0 0-5.518-1.805 10.549 10.549 0 0 0-6.488 2.5 8.76 8.76 0 0 0-.349-.527 5.423 5.423 0 0 0-1.017-1.1 2.693 2.693 0 0 0-1.671-.632 2.6 2.6 0 0 0-1.954.844 2.573 2.573 0 0 0-.656 1.707 3.069 3.069 0 0 0 .345 1.42 5.726 5.726 0 0 0 .542.845 4.918 4.918 0 0 1 .689 1.224 7.463 7.463 0 0 1 .366 2.55v7.354l1.457-.094c.7-.042 1.411-.083 2.12-.119l.421-.024.523-.026.577-.027v-7.5A10.775 10.775 0 0 1 127.39 30a5.037 5.037 0 0 1 3.011-1 5.462 5.462 0 0 1 1.183.141 3.633 3.633 0 0 1 1.489.686l.34.28.468.05c.033 0 .115.009.232.009a2.973 2.973 0 0 0 1-.169 2.509 2.509 0 0 0 1.341-1.11 2.583 2.583 0 0 0 .341-1.309 3.19 3.19 0 0 0-.252-1.221 3.479 3.479 0 0 0-.261-.51M113.216 27.074a15.3 15.3 0 0 0-19.359 0 11.859 11.859 0 0 0-3.952 8.979 12.053 12.053 0 0 0 1.428 5.747l.084.154 1.2-.1q1.188-.094 2.361-.193l2.555-.213-1.023-1.22a6.323 6.323 0 0 1-1.5-4.174 6.467 6.467 0 0 1 2.29-5.015 10.354 10.354 0 0 1 12.468 0 6.565 6.565 0 0 1 1.561 8l-.678 1.3 5.913-.443.071-.232a12.429 12.429 0 0 0 .529-3.615 11.86 11.86 0 0 0-3.95-8.98M91.043 21.705a2.588 2.588 0 0 0 .875-.886 2.406 2.406 0 0 0 .362-1.234 2.452 2.452 0 0 0-.534-1.544 3.4 3.4 0 0 0-1.866-1.111 9.364 9.364 0 0 0-2.35-.25 10.182 10.182 0 0 0-4.434 1 7.714 7.714 0 0 0-2.479 1.838l-.294.358-.048.079v.006a6.778 6.778 0 0 0-1.163 2.493 18.153 18.153 0 0 0-.34 4.183v15.972l1.076-.059c.129-.006.254-.014.377-.022.473-.028.936-.055 1.4-.086l2.144-.136v-9.08h2.1a2.644 2.644 0 0 0 1.805-.678 2.473 2.473 0 0 0 .8-1.841 2.7 2.7 0 0 0-.164-.949 2.273 2.273 0 0 0-1.065-1.212 2.876 2.876 0 0 0-1.38-.316h-2.1v-1.59a14.752 14.752 0 0 1 .182-2.879 2.041 2.041 0 0 1 .574-1.149 4.781 4.781 0 0 1 3.135-.938 3.431 3.431 0 0 1 1.023.113l1.1.213.2.013a2.033 2.033 0 0 0 1.066-.307M72.37 15.236a2.8 2.8 0 1 0 0 5.6h.012a2.8 2.8 0 1 0-.017-5.6M73.959 23.515a2.438 2.438 0 0 0-1.617-.581 2.393 2.393 0 0 0-1.544.541 2.7 2.7 0 0 0-.891 1.644 6.193 6.193 0 0 0-.079 1.113V43.84l1.08-.036c.133 0 .261-.009.387-.014l.65-.022c.493-.016.986-.033 1.465-.053l1.519-.067V26.165a4.658 4.658 0 0 0-.218-1.509 2.608 2.608 0 0 0-.752-1.141M66 13.83a5.787 5.787 0 0 0-.183-1.588 2.808 2.808 0 0 0-.645-1.171 2.314 2.314 0 0 0-3.283-.042 2.957 2.957 0 0 0-.764 1.677 7.835 7.835 0 0 0-.067 1.171V59.69a5.851 5.851 0 0 0 .186 1.592 2.8 2.8 0 0 0 .644 1.171 2.314 2.314 0 0 0 3.283.042 2.958 2.958 0 0 0 .764-1.679A7.8 7.8 0 0 0 66 59.647V27.7zM57.746 33.453a27.44 27.44 0 0 0-.282-4.853 5.469 5.469 0 0 0-2.223-3.228 12.066 12.066 0 0 0-7.421-2.18 24.941 24.941 0 0 0-6.239.852 11.3 11.3 0 0 0-2.5.963 3.982 3.982 0 0 0-.985.75 2.2 2.2 0 0 0-.619 1.5 2.615 2.615 0 0 0 .537 1.6 2.352 2.352 0 0 0 1.867.916 7.288 7.288 0 0 0 2.168-.459l.186-.061a16.482 16.482 0 0 1 5.581-.965 8.667 8.667 0 0 1 2.788.387 4.453 4.453 0 0 1 1.325.715 1.5 1.5 0 0 1 .593.908 21.49 21.49 0 0 1 .11 2.4 14.641 14.641 0 0 0-6.759-1.678 12.345 12.345 0 0 0-7.656 2.419A8.142 8.142 0 0 0 35 39.927a8.048 8.048 0 0 0 .36 2.392l.106.343.794.039 2.125.1.2.008c.856.039 1.718.07 2.58.1l.443.016-1.008-1.401a2.529 2.529 0 0 1-.5-1.5 3.364 3.364 0 0 1 1.5-2.65 7.091 7.091 0 0 1 4.232-1.265 11.965 11.965 0 0 1 6.642 2.244l.168.1V43.2h.357c.709.008 1.432.012 2.159.016h2.645l-.052-2.406z"></path></g><g fill="#fff"><path d="M104.907 20.056h-.216a2.5 2.5 0 0 1-2.312-1.775L97.971 8.092a2.718 2.718 0 0 1-.215-.995 2.006 2.006 0 0 1 1.99-1.909 1.973 1.973 0 0 1 1.99 1.451l3.09 8.361 3.145-8.414a1.981 1.981 0 0 1 1.909-1.4 1.933 1.933 0 0 1 1.962 1.935 2.885 2.885 0 0 1-.215.968l-4.407 10.192a2.541 2.541 0 0 1-2.313 1.775M114.451 1.909a2.322 2.322 0 0 1 4.571 0v.053a2.317 2.317 0 0 1-4.571 0zm.243 5.323a2.043 2.043 0 1 1 4.086 0v10.646a2.043 2.043 0 1 1-4.086 0zM122.355 18.389a1.627 1.627 0 0 1-.78-1.4 1.585 1.585 0 0 1 1.614-1.614 1.568 1.568 0 0 1 .806.215 7.583 7.583 0 0 0 3.9 1.29c1.182 0 1.72-.43 1.72-1.075v-.053c0-.888-1.4-1.183-2.984-1.667-2.017-.591-4.3-1.532-4.3-4.328v-.052c0-2.93 2.366-4.57 5.27-4.57a10.125 10.125 0 0 1 4.462 1.1 1.665 1.665 0 0 1 .968 1.533 1.607 1.607 0 0 1-1.64 1.612 1.489 1.489 0 0 1-.753-.188 7.689 7.689 0 0 0-3.119-.915c-.994 0-1.505.431-1.505 1v.053c0 .806 1.372 1.183 2.931 1.721 2.016.671 4.355 1.64 4.355 4.274v.054c0 3.2-2.392 4.651-5.511 4.651a10.039 10.039 0 0 1-5.431-1.64M136.174 1.909a2.322 2.322 0 0 1 4.571 0v.053a2.317 2.317 0 0 1-4.571 0zm.243 5.323a2.043 2.043 0 1 1 4.086 0v10.646a2.043 2.043 0 1 1-4.086 0zM145.637 15.674V8.845h-.137a1.747 1.747 0 1 1 0-3.495h.135v-1.8a2.043 2.043 0 1 1 4.086 0v1.8h1.8a1.747 1.747 0 1 1 0 3.495h-1.8V15c0 .941.4 1.4 1.318 1.4.135 0 .4-.027.483-.027a1.7 1.7 0 0 1 1.695 1.693 1.663 1.663 0 0 1-1.047 1.534 6.034 6.034 0 0 1-2.339.4c-2.5 0-4.194-1-4.194-4.328"></path></g><path d="M201.645 43.908l-.034-.036a2.38 2.38 0 0 0-1.2-.742 3.786 3.786 0 0 0-.694-.133c-.111-.018-2.605-.429-6.932-.978-.268-.036-.542-.069-.823-.105l-.353-.042q-1.008-.127-2.129-.255l-.452-.053c-.305-.036-.616-.069-.924-.106-4.158-.47-8.518-.889-12.99-1.248-.269-.022-.535-.044-.806-.064l-.529-.04c-.648-.05-1.3-.1-1.979-.15-.138-.006-.275-.017-.416-.027-.3-.02-.619-.04-.925-.063q-1.382-.094-2.81-.185l-.844-.052-2.932-.169-.9-.044a744.232 744.232 0 0 0-4.26-.2l-.856-.036h-.1l-.293-.009c-.7-.028-1.407-.053-2.118-.079l-.42-.011c-.294-.011-.59-.017-.887-.025a412.464 412.464 0 0 0-12.3-.194h-2.121c-.428 0-.854.006-1.271.011h-.4l-.871.012c-4.86.058-9.674.2-14.645.451-.3.014-.595.025-.9.041l-.419.022c-.711.036-1.425.073-2.123.114l-.378.022-.849.05q-1.564.094-3.1.2c-.443.03-.888.058-1.327.089l-.127.01c-.161.009-.321.022-.487.031l-2.7.2c-.248.017-.494.038-.741.057-3.2.241-6.347.5-9.392.75l-.152.012c-1.448.121-2.911.238-4.381.356l-1.941.156-.2.013c-.784.064-1.569.125-2.361.185l-.838.064-.224.017c-2.022.15-3.757.272-5.386.379-.316.02-.628.042-.937.061l-1 .061a263.714 263.714 0 0 1-1.775.106c-.287.019-.566.033-.849.048-1.622.093-3.183.169-4.72.238l-.893.039-.42.017c-.478.02-.97.038-1.463.052l-.65.023c-.127.006-.254.011-.385.014l-.858.03a340.483 340.483 0 0 1-5.562.149l-.412.008q-.728.014-1.473.02l-.472.008h-.4l-.868.008c-1.073.009-2.158.016-3.267.016H55.58c-.726 0-1.448-.008-2.157-.014H53.015a427.391 427.391 0 0 1-11.416-.282l-2.578-.1-.2-.008c-.831-.039-1.653-.08-2.46-.121l-.307-.014-.347-.019c-.982-.05-1.943-.1-2.887-.161-.236-.016-.474-.028-.705-.042l-.234-.014c-.164-.009-.327-.02-.492-.031l-.521-.034A542.083 542.083 0 0 1 28.423 42c-.59-.042-1.171-.089-1.756-.135-3.6-.274-7.113-.595-10.48-.955-.446-.047-.9-.092-1.345-.142l-.19-.02c-.907-.1-1.77-.2-2.572-.3l-.66-.08a577.824 577.824 0 0 1-8.078-1.044l-.642-.095a3 3 0 0 0-.781-.106 2.04 2.04 0 0 0-1.168.335 1.715 1.715 0 0 0-.487.509 1.89 1.89 0 0 0-.264.882v.122a1.784 1.784 0 0 0 .444 1.191 2.728 2.728 0 0 0 1.184.745 4.384 4.384 0 0 0 .447.123l.145.03.121.02c.629.105 2 .321 4.083.606A386.954 386.954 0 0 0 57.68 46.9c7.39 0 14.655-.208 22.175-.628l.9-.048.949-.057q.749-.042 1.49-.089l.374-.026c.285-.017.564-.036.846-.055 5.433-.356 10.551-.778 15.5-1.188l.212-.017c12.235-1 24.887-2.046 41.466-2.046a393.6 393.6 0 0 1 57.757 4.107 1.758 1.758 0 0 0 .2.044 2.489 2.489 0 0 0 .451.041 2.1 2.1 0 0 0 1.089-.288 1.905 1.905 0 0 0 .871-1.337 2 2 0 0 0 .028-.327 1.761 1.761 0 0 0-.355-1.071" fill="#ffd100"></path></svg>