<svg width="260" height="156" viewBox="0 0 260 156" fill="none" xmlns="http://www.w3.org/2000/svg">
<g clip-path="url(#clip0)">
<path d="M247.6 91.6001C248.7 93.5001 250.7 94.5001 252.8 94.5001C253.9 94.5001 255.1 94.2001 256.1 93.6001C259.2 91.9001 260.4 88.1001 258.8 85.3001C257.2 82.4001 253.4 81.5001 250.3 83.3001C247.2 85.0001 246 88.8001 247.6 91.6001Z" fill="#645856"/>
<path d="M245.6 81.7001C246.7 81.7001 247.9 81.4001 248.9 80.8001C250.4 80.0001 251.5 78.7001 252 77.1001C252.5 75.5001 252.4 73.9001 251.6 72.5001C250.8 71.1001 249.5 70.1001 247.8 69.7001C246.2 69.3001 244.5 69.6001 243 70.4001C241.5 71.2001 240.4 72.5001 239.9 74.1001C239.4 75.7001 239.5 77.3001 240.3 78.7001C241.4 80.6001 243.4 81.7001 245.6 81.7001Z" fill="#645856"/>
<path d="M236.4 94.2999C236.9 94.3999 237.4 94.4999 237.8 94.4999C238.9 94.4999 240.1 94.1999 241.1 93.5999C244.2 91.8999 245.4 88.0999 243.8 85.2999C243 83.8999 241.7 82.8999 240 82.4999C238.4 82.0999 236.7 82.3999 235.2 83.1999C232.1 84.8999 230.9 88.6999 232.5 91.4999C233.4 92.9999 234.7 93.9999 236.4 94.2999Z" fill="#645856"/>
<path d="M233.7 75.8C234.2 75.8 234.5 75.4 234.6 75.3C234.9 74.8 234.6 74.1 234 73.8C229.3 71.2 226.6 66.5999 224.4 61.5999C226.3 62.9999 228.5 63.7999 230.7 63.7999C231.4 63.7999 232.1 63.6999 232.7 63.5999C235.2 62.9999 235.6 61.5999 235.6 60.7999C235.6 59.2999 234.2 57.8 232.9 57.4C231.9 57.1 231 57.3999 230.5 58.2999L230.3 58.7L230.5 59.0999C230.8 59.5999 231.6 59.7999 231.9 59.7999C232.3 59.7999 232.5 59.7 232.6 59.5C232.7 59.4 232.9 59.4 232.9 59.4C233 59.5 233.1 59.6999 233.1 60.2999C233.1 60.7999 232.9 60.9 232.5 61.4C230.9 62.8 227.8 61 226.9 60.5C224.9 59.3 223.3 57.6 222.2 55.7C222.2 55.6 222.1 55.5 222.1 55.4C221.3 53.1 220.5 51 219.6 49C216.6 42.3 211.9 37.2 204.7 33.2C202.5 32 200.2 30.8 197.7 29.9V5.09995L221.4 35H223.7V0.699951H221.1V30.6L197.3 0.699951H195V28.9C190.1 27.1999 185 25.9999 179.7 25.2999L168.4 0.699951H165.6L149.9 35H152.8L156.3 27.2999H176.8C177.2 27.2999 177.5 27.4 177.9 27.4L181.4 35H184.3L181 27.7C190.6 29.1 199.5 32.3 206.2 37C214.2 42.6 217.1 49.3999 220.7 58.0999L221.1 59.0999C221.5 59.9999 221.8 60.9 222.2 61.7C224.3 67.1 226.4 72.3 232.9 75.5C233.2 75.8 233.5 75.8 233.7 75.8ZM167 3.49995L176.6 24.7999H157.3L167 3.49995Z" fill="#645856"/>
<path d="M14 35L24 4.79995L34 35H36.8L47.9 0.699951H45.1L35.3 31.1L25.3 0.699951H22.7L12.6 31.1L3.00001 0.699951H0.100006L11.2 35H14Z" fill="#645856"/>
<path d="M72.8 35.6C82.7 35.6 90.7 27.6 90.7 17.8C90.7 8 82.7 0 72.8 0C62.9 0 54.9 8 54.9 17.8C54.9 27.7 62.9 35.6 72.8 35.6ZM72.8 2.6C81.2 2.6 88 9.5 88 17.8C88 26.2 81.1 33 72.8 33C64.4 33 57.5 26.2 57.5 17.8C57.6 9.5 64.4 2.6 72.8 2.6Z" fill="#645856"/>
<path d="M121.7 30.4L106.7 0.699951H104.2V35H106.8V6.19995L120.7 33.9H122.5L136.5 6.09995V35H139.1V0.699951H136.6L121.7 30.4Z" fill="#645856"/>
<path d="M35.2 150.8L25.1 120.4H22.6L12.5 150.8L2.8 120.4H0L11 154.7H13.9L23.9 124.6L33.8 154.7H36.7L47.7 120.4H44.9L35.2 150.8Z" fill="#645856"/>
<path d="M59 120.4H56.4V154.7H59V120.4Z" fill="#645856"/>
<path d="M99.3 150.3L75.5 120.4H73.2V154.7H75.8V124.9L99.5 154.7H101.9V120.4H99.3V150.3Z" fill="#645856"/>
<path d="M114.3 154.7H137.9V152.1H116.9V139.1H134.8V136.6H116.9V122.9H137.9V120.4H114.3V154.7Z" fill="#645856"/>
<path d="M175 131.4C175 125.5 170.7 120.4 163.3 120.4H148.2V154.7H150.8V142.6H163.3C163.7 142.6 164 142.6 164.4 142.6L173.1 154.8H176.3L167.3 142.1C172.2 140.5 175 136.3 175 131.4ZM163.2 140.1H150.7V122.9H163.2C169.2 122.9 172.4 127 172.4 131.5C172.5 136 169.2 140.1 163.2 140.1Z" fill="#645856"/>
<path d="M189.2 120.4H186.6V154.7H189.2V120.4Z" fill="#645856"/>
<path d="M202.6 154.7H226.2V152.1H205.2V139.1H223V136.6H205.2V122.9H226.2V120.4H202.6V154.7Z" fill="#645856"/>
<path d="M246.5 136.2C240.9 134.4 236.2 132.9 236.2 128.5C236.2 124.8 239.5 122.1 245.7 122.1C252.1 122.1 256 124.9 256 128.7V128.9H258.6V128.5C258.6 123.4 253.3 119.6 245.8 119.6C238.4 119.6 233.6 123.2 233.6 128.6C233.6 134.8 240.2 136.9 245.8 138.6C251.6 140.4 256.4 141.9 256.4 146.4C256.4 150.1 253 152.8 246.6 152.8C240 152.8 235.8 150 235.8 146.2V146H233.2V146.4C233.2 151.6 238.7 155.3 246.5 155.3C254.1 155.3 259.1 151.8 259.1 146.4C259.2 140 252 137.9 246.5 136.2Z" fill="#645856"/>
<path d="M23.5 60.3C13.6 60.3 5.60001 68.3 5.60001 78.1C5.60001 88 13.6 95.9001 23.5 95.9001C33.4 95.9001 41.4 87.9 41.4 78.1C41.4 68.3 33.4 60.3 23.5 60.3ZM23.5 93.3001C15.1 93.3001 8.20001 86.5 8.20001 78.1C8.20001 69.7 15.1 62.9001 23.5 62.9001C31.9 62.9001 38.7 69.8 38.7 78.1C38.8 86.5 31.9 93.3001 23.5 93.3001Z" fill="#645856"/>
<path d="M84.3 95.2999L95.3 60.8999H92.5L82.8 91.3999L72.7 60.8999H70.1L60.1 91.3999L50.4 60.8999H47.6L58.6 95.2999H61.5L71.4 65.0999L81.4 95.2999H84.3Z" fill="#645856"/>
<path d="M134.4 95.2999V60.8999H131.8V90.7999L108 60.8999H105.7V95.2999H108.3V65.3999L132 95.2999H134.4Z" fill="#645856"/>
<path d="M173.1 92.6999H152.1V79.5999H169.9V77.1999H152.1V63.4999H173.1V60.8999H149.5V95.2999H173.1V92.6999Z" fill="#645856"/>
<path d="M214.5 78.0999C214.5 68.4999 209 60.8999 198.5 60.8999H185.1V95.1999H198.5C209 95.2999 214.5 87.6999 214.5 78.0999ZM198.4 92.6999H187.7V63.4999H198.4C207.1 63.4999 211.9 69.7999 211.9 78.0999C211.9 86.3999 207.1 92.6999 198.4 92.6999Z" fill="#645856"/>
</g>
<defs>
<clipPath id="clip0">
<rect width="259.6" height="155.4" fill="white"/>
</clipPath>
</defs>
</svg>
