<svg width="755" height="95" viewBox="0 0 755 95" fill="none" xmlns="http://www.w3.org/2000/svg">
<g clip-path="url(#clip0)">
<path d="M255 82.6C253.4 82.2 251.7 82.5 250.2 83.3C248.7 84.1 247.6 85.4 247.1 87C246.6 88.6 246.7 90.2 247.5 91.6C248.3 93 249.6 94 251.3 94.4C251.8 94.5 252.3 94.6 252.7 94.6C253.8 94.6 255 94.3 256 93.7C259.1 92 260.3 88.2 258.7 85.4C257.9 83.9 256.6 82.9 255 82.6Z" fill="#645856"/>
<path d="M251.9 77.1C252.4 75.5 252.3 73.9 251.5 72.5C250.7 71.1 249.4 70.1 247.7 69.7C246.1 69.3 244.4 69.6 242.9 70.4C241.4 71.2 240.3 72.5 239.8 74.1C239.3 75.7 239.4 77.3 240.2 78.7C241.3 80.6 243.3 81.6 245.4 81.6C246.5 81.6 247.7 81.3 248.7 80.7C250.3 79.9 251.4 78.6 251.9 77.1Z" fill="#645856"/>
<path d="M235.2 83.2C232.1 84.9 230.9 88.7 232.5 91.5C233.3 92.9 234.6 93.9 236.3 94.3C236.8 94.4 237.3 94.5 237.7 94.5C238.8 94.5 240 94.2 241 93.6C244.1 91.9 245.3 88.1 243.7 85.3C242.1 82.4 238.3 81.5 235.2 83.2Z" fill="#645856"/>
<path d="M233.6 75.8C234.1 75.8 234.4 75.4 234.5 75.3C234.8 74.8 234.5 74.1 233.9 73.8C229.2 71.2 226.5 66.5999 224.3 61.5999C226.2 62.9999 228.4 63.7999 230.6 63.7999C231.3 63.7999 232 63.6999 232.6 63.5999C235.1 62.9999 235.5 61.5999 235.5 60.7999C235.5 59.2999 234.1 57.8 232.8 57.4C231.8 57.1 230.9 57.3999 230.4 58.2999L230.2 58.7L230.4 59.0999C230.7 59.5999 231.5 59.7999 231.8 59.7999C232.1 59.7999 232.4 59.7 232.5 59.5C232.6 59.4 232.8 59.4 232.8 59.4C232.9 59.5 233 59.6999 233 60.2999C233 60.7999 232.8 60.9 232.4 61.4C230.8 62.8 227.7 61 226.8 60.5C224.8 59.3 223.2 57.6 222.1 55.7C222.1 55.7 222.1 55.6999 222.1 55.5999C222.1 55.4999 222 55.3999 222 55.2999C221.2 52.9999 220.4 50.9 219.5 48.9C216.5 42.2 211.8 37.0999 204.6 33.0999C202.4 31.8999 200.1 30.6999 197.6 29.7999V5.09995L221.2 35H223.5V0.699951H221V30.6L197.2 0.699951H194.9V28.9C190 27.1999 184.9 25.9999 179.6 25.2999L168.3 0.699951H165.5L149.7 35H152.6L156.1 27.2999H176.6C177 27.2999 177.3 27.4 177.7 27.4L181.2 35H184.1L180.8 27.7C190.3 29.1 199.3 32.3 206 37C214 42.6 216.9 49.3999 220.5 58.0999L220.9 59.0999C221.3 59.9999 221.6 60.9 222 61.7C224.1 67.1 226.2 72.3 232.7 75.5C233 75.8 233.3 75.8 233.6 75.8ZM166.9 3.49995L176.5 24.7999H157.2L166.9 3.49995Z" fill="#645856"/>
<path d="M35.2 31.1L25.1 0.699951H22.6L12.5 31.1L2.8 0.699951H0L11 35H13.9L23.9 4.79995L33.8 35H36.7L47.7 0.699951H44.9L35.2 31.1Z" fill="#645856"/>
<path d="M72.7 0C62.8 0 54.8 8 54.8 17.8C54.8 27.7 62.8 35.6 72.7 35.6C82.6 35.6 90.6 27.6 90.6 17.8C90.6 8 82.5 0 72.7 0ZM72.7 33C64.3 33 57.4 26.2 57.4 17.8C57.4 9.4 64.3 2.6 72.7 2.6C81.1 2.6 87.9 9.5 87.9 17.8C87.9 26.2 81.1 33 72.7 33Z" fill="#645856"/>
<path d="M121.5 30.4L106.6 0.699951H104.1V35H106.7V6.19995L120.6 33.9H122.4L136.4 6.09995V35H139V0.699951H136.5L121.5 30.4Z" fill="#645856"/>
<path d="M530.9 32.0999L520.8 1.69995H518.3L508.2 32.0999L498.5 1.69995H495.7L506.7 36H509.6L519.5 5.79995L529.5 36H532.4L543.4 1.69995H540.6L530.9 32.0999Z" fill="#645856"/>
<path d="M554.6 1.69995H552V36H554.6V1.69995Z" fill="#645856"/>
<path d="M595 31.5L571.2 1.69995H568.9V36H571.5V6.09995L595.2 36H597.5V1.69995H595V31.5Z" fill="#645856"/>
<path d="M610 36H633.6V33.4H612.6V20.4H630.5V17.9H612.6V4.19995H633.6V1.69995H610V36Z" fill="#645856"/>
<path d="M670.7 12.7C670.7 6.79995 666.4 1.69995 659 1.69995H643.9V36H646.5V23.7999H659C659.4 23.7999 659.7 23.7999 660.1 23.7999L668.8 36H672L663 23.2999C667.9 21.7999 670.7 17.5 670.7 12.7ZM658.9 21.4H646.4V4.09995H658.9C664.9 4.09995 668.1 8.19995 668.1 12.7C668.2 17.3 664.9 21.4 658.9 21.4Z" fill="#645856"/>
<path d="M684.9 1.69995H682.3V36H684.9V1.69995Z" fill="#645856"/>
<path d="M698.3 36H721.8V33.4H700.9V20.4H718.7V17.9H700.9V4.19995H721.8V1.69995H698.3V36Z" fill="#645856"/>
<path d="M742.2 17.5C736.6 15.7 731.9 14.2 731.9 9.8C731.9 6.1 735.2 3.4 741.4 3.4C747.8 3.4 751.7 6.2 751.7 10V10.2H754.3V9.9C754.3 4.8 749 1 741.5 1C734.1 1 729.3 4.6 729.3 10C729.3 16.2 735.9 18.3 741.5 20C747.3 21.8 752.1 23.3 752.1 27.8C752.1 31.5 748.7 34.2 742.3 34.2C735.7 34.2 731.5 31.4 731.5 27.6V27.4H728.9V27.8C728.9 33 734.4 36.7 742.2 36.7C749.8 36.7 754.8 33.2 754.8 27.8C754.8 21.3 747.7 19.2 742.2 17.5Z" fill="#645856"/>
<path d="M273.8 0.400024C263.9 0.400024 255.9 8.40003 255.9 18.2C255.9 28.1 263.9 36 273.8 36C283.7 36 291.7 28 291.7 18.2C291.7 8.40003 283.7 0.400024 273.8 0.400024ZM273.8 33.5C265.4 33.5 258.5 26.7 258.5 18.3C258.5 9.90002 265.4 3.10002 273.8 3.10002C282.2 3.10002 289 10 289 18.3C289 26.6 282.2 33.5 273.8 33.5Z" fill="#645856"/>
<path d="M333 31.5L323 1.09998H320.4L310.3 31.5L300.6 1.09998H297.8L308.9 35.4H311.7L321.7 5.29998L331.7 35.4H334.5L345.6 1.09998H342.8L333 31.5Z" fill="#645856"/>
<path d="M382 31L358.3 1.09998H356V35.4H358.6V5.59998L382.3 35.4H384.6V1.09998H382V31Z" fill="#645856"/>
<path d="M399.7 35.4H423.3V32.8H402.3V19.8H420.2V17.3H402.3V3.59998H423.3V1.09998H399.7V35.4Z" fill="#645856"/>
<path d="M448.8 1.09998H435.4V35.4H448.8C459.2 35.4 464.8 27.9 464.8 18.2C464.8 8.59998 459.2 1.09998 448.8 1.09998ZM448.7 32.8H438V3.59998H448.7C457.4 3.59998 462.2 9.89998 462.2 18.2C462.2 26.6 457.3 32.8 448.7 32.8Z" fill="#645856"/>
</g>
<defs>
<clipPath id="clip0">
<rect width="754.8" height="94.5" fill="white"/>
</clipPath>
</defs>
</svg>
